SplineFontDB: 3.0
FontName: AyannaNarrowSinhala-ExtraBold
FullName: AyannaNarrowSinhala-ExtraBold
FamilyName: AyannaNarrow
Weight: Bold
Copyright: Copyright (c) 2015, Pathum,,,
UComments: "2015-3-5: Created with FontForge (http://fontforge.org)"
Version: pre
ItalicAngle: 0
UnderlinePosition: 0
UnderlineWidth: 0
Ascent: 819
Descent: 205
InvalidEm: 0
LayerCount: 4
Layer: 0 0 "Back" 1
Layer: 1 0 "Fore" 0
Layer: 2 0 "Back 2" 1
Layer: 3 0 "Back 3" 1
XUID: [1021 417 1726274797 7187508]
OS2Version: 0
OS2_WeightWidthSlopeOnly: 0
OS2_UseTypoMetrics: 1
CreationTime: 1425560291
ModificationTime: 1444486527
OS2TypoAscent: 0
OS2TypoAOffset: 1
OS2TypoDescent: 0
OS2TypoDOffset: 1
OS2TypoLinegap: 0
OS2WinAscent: 0
OS2WinAOffset: 1
OS2WinDescent: 0
OS2WinDOffset: 1
HheadAscent: 0
HheadAOffset: 1
HheadDescent: 0
HheadDOffset: 1
OS2Vendor: 'PfEd'
MarkAttachClasses: 1
DEI: 91125
Encoding: sinhala_abhaya
Compacted: 1
UnicodeInterp: none
NameList: sinhala
DisplaySize: -48
AntiAlias: 1
FitToEm: 1
WinInfo: 286 13 10
BeginPrivate: 0
EndPrivate
Grid
297.5 1331 m 0
 297.5 -717 l 1024
-1024 110 m 0
 2048 110 l 1024
-1024 -154 m 0
 2048 -154 l 1024
-1024 1584.5 m 0
 2048 1584.5 l 1024
-1024 79 m 0
 2048 79 l 1024
-1024 496 m 0
 2048 496 l 1024
-1024 -89 m 0
 2048 -89 l 1024
-1024 318 m 0
 2048 318 l 1024
-1024 416 m 0
 2048 416 l 1024
-1024 594 m 0
 2048 594 l 1024
-1024 811 m 0
 2048 811 l 1024
-1024 527 m 0
 2048 527 l 1024
-1024 755 m 0
 2048 755 l 1024
-1024 819 m 0
 2048 819 l 1024
-1024 0 m 0
 2048 0 l 1024
EndSplineSet
BeginChars: 65537 560

StartChar: si_Tta
Encoding: 34 3495 0
Width: 535
VWidth: 0
Flags: HMW
LayerCount: 4
Fore
SplineSet
22 252.395507812 m 4
 22 381.53714418 89 472 186.693359375 472 c 4
 214.459960938 472 243.491402573 465.063326227 271.865234375 445.2578125 c 5
 234 345 l 5
 220.152337018 352.988913084 207.481945024 356.607528934 196.136448879 356.607528934 c 4
 155.619931127 356.607528934 132 310.458802474 132 252.395507812 c 4
 132 189.243164062 159.225585938 115 252.145507812 115 c 4
 356.59765625 115 397.145507812 195.017578125 397.145507812 354 c 4
 397.145507812 583 325.825195312 640 243 640 c 4
 201.896484375 640 161.811523438 618.959960938 144.755859375 576.85546875 c 5
 35.7236328125 613.029296875 l 5
 71.7080078125 707.868164062 156.279296875 755 243 755 c 4
 382.471679688 755 513.145507812 675.859375 513.145507812 354 c 4
 513.145507812 118 432.145507812 0 252.145507812 0 c 4
 74.1455078125 0 22 136.287109375 22 252.395507812 c 4
EndSplineSet
Layer: 3
SplineSet
22 252.395507812 m 0
 22 421.909179688 152.729492188 528.416992188 271.865234375 445.2578125 c 1
 234 345 l 1
 170.700195312 381.518554688 132 326.717773438 132 252.395507812 c 0
 132 189.243164062 159.225585938 115 252.145507812 115 c 0
 356.59765625 115 397.145507812 195.017578125 397.145507812 354 c 0
 397.145507812 583 325.825195312 640 243 640 c 0
 201.896484375 640 161.811523438 618.959960938 144.755859375 576.85546875 c 1
 35.7236328125 613.029296875 l 1
 71.7080078125 707.868164062 156.279296875 755 243 755 c 0
 382.471679688 755 513.145507812 675.859375 513.145507812 354 c 0
 513.145507812 118 432.145507812 0 252.145507812 0 c 0
 74.1455078125 0 22 136.287109375 22 252.395507812 c 0
EndSplineSet
EndChar

StartChar: si_Sa
Encoding: 58 3523 1
Width: 584
VWidth: 0
Flags: HW
LayerCount: 4
Fore
SplineSet
254.8203125 467.353515625 m 4
 254.8203125 473.071047507 255.384548733 478.329189009 256.635742188 483 c 4
 276.264648438 556.276367188 335.354492188 594 398.172851562 594 c 4
 484.732421875 594 536.83203125 532.13671875 536.83203125 456.407226562 c 4
 536.83203125 428.149714062 525.584209051 394.649624076 505.446289062 369.030273438 c 5
 428.737304688 410.436523438 l 5
 436.720703125 419.560546876 443.356445312 439.108398438 443.356445312 451.1640625 c 4
 443.356445312 475 429.143554688 496 394 496 c 4
 371.26171875 496 342.435546875 481.030273438 342.435546875 434.341796875 c 4
 342.435546875 428.678710937 342.938476562 422.2421875 344 416 c 4
 297.5 318.436523438 l 5
 284.889064099 359.422394782 254.8203125 425.62457443 254.8203125 467.353515625 c 4
139.780273438 207 m 4
 139.780273438 157.264648438 153.96875 115 189.262695312 115 c 4
 235.962890625 115 251.893554688 176.75 251.893554688 249.5 c 5
 343.106445312 249.5 l 5
 343.106445312 176.75 359.037109375 115 405.737304688 115 c 4
 441.03125 115 455.219726562 157.264648438 455.219726562 207 c 4
 455.219726562 258.725585938 435.262695312 318 394.981445312 318 c 6
 200.018554688 318 l 6
 159.262695312 318 139.780273438 258.08984375 139.780273438 207 c 4
32.7802734375 207 m 4
 32.7802734375 248.30078125 44.2626953125 294 58.2626953125 319.563476562 c 5
 17.4462890625 319.666992188 l 5
 17.4462890625 416 l 5
 412.262695312 416 l 6
 453.262695312 416 489.173750193 393.523363255 513.262695312 368.23828125 c 4
 547.08984375 332.731445312 562.219726562 278.352539062 562.219726562 207 c 4
 562.219726562 95.095703125 517.350585938 0 405.737304688 0 c 4
 353.057617188 0 313.645507812 31.6025390625 297.5 79.0302734375 c 5
 281.354492188 31.6025390625 241.942382812 0 189.262695312 0 c 4
 77.6494140625 0 32.7802734375 95.095703125 32.7802734375 207 c 4
61.2119140625 461.536132812 m 4
 61.2119140625 532.131835938 109.211914063 594 196.827148438 594 c 4
 259.645507812 594 318.738869277 556.277309405 338.364257812 483 c 4
 339.615234375 478.329101563 340.1796875 473.071289062 340.1796875 467.353515625 c 4
 340.1796875 425.624999999 310.111328125 359.422851562 297.5 318.436523438 c 5
 251 416 l 4
 252.061523438 422.252507366 252.564453125 428.669348468 252.564453125 434.341796875 c 4
 252.564453125 481.030273438 223.73828125 496 201 496 c 4
 168.958089195 496 154.057617188 474.292687532 154.057617188 450.72265625 c 4
 154.057617188 437.756455854 158.566733589 424.22656227 167.211914062 413.436523438 c 5
 91.5009765625 375.436523438 l 5
 70.474609375 403.236328125 61.2119140625 433.094726562 61.2119140625 461.536132812 c 4
EndSplineSet
Layer: 3
SplineSet
356.262695312 391.40625 m 1
 266.262695312 319.40625 l 1
 254.262695312 358.40625 252.446289062 396.705078125 252.446289062 427.969726562 c 0
 252.446289062 448.502929688 249.831054688 467.178710938 254.431640625 483.969726562 c 0
 274.326171875 556.58984375 333.166992188 593.969726562 395.698242188 593.969726562 c 0
 482.2578125 593.969726562 534.357421875 532.106445312 534.357421875 456.376953125 c 0
 534.357421875 428.57421875 523.572265625 395.61328125 504.262695312 370.40625 c 1
 426.262695312 410.40625 l 1
 434.24609375 419.530273438 440.881835938 439.078125 440.881835938 451.133789062 c 0
 440.881835938 474.969726562 425.053710938 495.969726562 395.698242188 495.969726562 c 0
 367.171875 495.969726562 344.942382812 471.9140625 344.942382812 434.28125 c 0
 344.942382812 428.618164062 345.4453125 422.211914062 346.506835938 415.969726562 c 1
 356.262695312 391.40625 l 1
196.827148438 593.969726562 m 0
 259.645507812 593.969726562 318.735693423 556.246377162 338.364257812 482.969726562 c 0
 348.747070312 444.208984375 311.838867188 365.0078125 297.5 318.40625 c 1
 246.018554688 415.969726562 l 0
 247.080078125 422.211914062 247.583007812 428.618164062 247.583007812 434.28125 c 0
 247.583007812 471.9140625 223.73828125 495.969726562 195.211914062 495.969726562 c 0
 151.33203125 495.969726562 142.8515625 443.810546875 167.211914062 413.40625 c 1
 91.5009765625 375.40625 l 1
 70.474609375 403.206054688 61.2119140625 433.064453125 61.2119140625 461.505859375 c 0
 61.2119140625 532.1015625 109.211914062 593.969726562 196.827148438 593.969726562 c 0
348.018554688 416 m 1
 412.262695312 416 l 2
 453.262695312 416 489.173828125 393.5234375 513.262695312 368.23828125 c 0
 547.08984375 332.731445312 562.219726562 278.352539062 562.219726562 207 c 0
 562.219726562 95.095703125 517.350585938 0 405.737304688 0 c 0
 353.057617188 0 313.645507812 31.6025390625 297.5 79.0302734375 c 1
 281.354492188 31.6025390625 241.942382812 0 189.262695312 0 c 0
 77.6494140625 0 32.7802734375 95.095703125 32.7802734375 207 c 0
 32.7802734375 248.30078125 44.2626953125 294 58.2626953125 319.563476562 c 1
 17.4462890625 319.666992188 l 1
 17.4462890625 416 l 1
 253.018554688 416 l 1
 348.018554688 416 l 1
394.981445312 318 m 2
 200.018554688 318 l 2
 159.262695312 318 139.780273438 258.08984375 139.780273438 207 c 0
 139.780273438 157.264648438 153.96875 115 189.262695312 115 c 0
 235.962890625 115 251.893554688 176.75 251.893554688 249.5 c 1
 343.106445312 249.5 l 1
 343.106445312 176.75 359.037109375 115 405.737304688 115 c 0
 441.03125 115 455.219726562 157.264648438 455.219726562 207 c 0
 455.219726562 258.725585938 435.262695312 318 394.981445312 318 c 2
EndSplineSet
EndChar

StartChar: si_La
Encoding: 54 3517 2
Width: 586
VWidth: 0
Flags: HW
LayerCount: 4
Fore
SplineSet
22.220703125 208 m 0
 22.220703125 403.26953125 99.1155522402 594 313 594 c 0
 485.501930502 594 564 451 564 332 c 0
 564 195 500.808510638 88 384 88 c 0
 267.419461985 88 225.992405415 163.104292261 225.992405415 228.977263775 c 0
 225.992405415 256.165000903 233.049333507 281.780220645 244.791992188 299.893554688 c 1
 240.19921875 299.893554688 208.106445312 299.893554688 201.791992188 299.893554688 c 1
 202.791992188 394.893554688 l 1
 397.791992188 394.893554688 l 1
 397.791992188 299.893554688 l 1
 349.791992188 299.893554688 332 269.705078125 332 242.063476562 c 0
 332 218.723632812 353.411790821 197.200195312 382 197.200195312 c 0
 432 197.200195312 450 262 450 332 c 0
 450 427.025390625 404.648275862 479 313 479 c 0
 184.135152439 479 137.220703125 352.634765625 137.220703125 208 c 0
 137.220703125 65.4227642276 202.895507812 -39 309 -39 c 0
 384.1484375 -39 436.736328125 9.42849099099 445.563476562 73 c 1
 559 57 l 1
 546.665039062 -57.1005859375 456.083984375 -154 309 -154 c 0
 112.895507812 -154 22.220703125 6 22.220703125 208 c 0
EndSplineSet
Layer: 2
SplineSet
305 479 m 4
 169.212890625 479 137.220703125 352.634765625 137.220703125 208 c 4
 137.220703125 66 202.895507812 -38 309 -38 c 4
 384.1484375 -38 436.736328125 9.99609375 445.563476562 73 c 5
 559 57 l 5
 546.665039062 -57.1005859375 456.083984375 -154 309 -154 c 4
 112.895507812 -154 22.220703125 6 22.220703125 208 c 4
 22.220703125 403.26953125 75.9228515625 594 305 594 c 4
 483 594 564 451 564 332 c 4
 564 195 498 88 376 88 c 4
 208 88 193 237.893554688 234 299.893554688 c 5
 229.407226562 299.893554688 197.314453125 299.893554688 191 299.893554688 c 5
 192 394.893554688 l 5
 387 394.893554688 l 5
 387 299.893554688 l 5
 339 299.893554688 321.208007812 269.705078125 321.208007812 242.063476562 c 4
 321.208007812 218.723632812 343.815429688 197.200195312 374 197.200195312 c 4
 426 197.200195312 450 262 450 332 c 4
 450 427.025390625 402 479 305 479 c 4
EndSplineSet
Layer: 3
SplineSet
309.220703125 -89 m 4
 384.369140625 -89 436.95703125 -41.00390625 445.784179688 22 c 5
 559.220703125 6 l 5
 546.885742188 -108.100585938 456.3046875 -205 309.220703125 -205 c 4
 113.116210938 -205 22.220703125 -57 22.220703125 182 c 4
 22.220703125 377.26953125 75.9228515625 594 305 594 c 4
 503 594 564 421 564 302 c 4
 564 146.380859375 510 55 376 55 c 4
 221 55 205 204.893554688 246 266.893554688 c 5
 241.407226562 266.893554688 209.314453125 266.893554688 203 266.893554688 c 5
 204 361.893554688 l 5
 399 361.893554688 l 5
 399 266.893554688 l 5
 351 266.893554688 333.208007812 236.705078125 333.208007812 209.063476562 c 4
 333.208007812 185.723632812 345.815429688 164.200195312 376 164.200195312 c 4
 441 164.200195312 450 232 450 302 c 4
 450 397.025390625 413 479 305 479 c 4
 169.212890625 479 137.220703125 326.634765625 137.220703125 182 c 4
 137.220703125 6 203.116210938 -89 309.220703125 -89 c 4
EndSplineSet
EndChar

StartChar: si_Ddha
Encoding: 37 3498 3
Width: 574
VWidth: 0
Flags: HW
HStem: -203.419 159.545<-3280.79 -3180.92 -3004.95 -2899.47> 198.779 110.436<-3469.88 -3399.56 -3270.92 -3176.78>
VStem: -3436.11 138.128<-26.994 174.788> -3154.71 124.583<-19.8393 122.863>
LayerCount: 4
Fore
SplineSet
272.790039062 611.133789062 m 4
 272.790039062 667.848632812 313.998046875 688.157226562 313.998046875 709.823242188 c 4
 313.998046875 716.953125 309.536132812 724.23046875 297.673828125 733 c 5
 404 755 l 5
 384.778320312 647 l 21
 368.399414062 639.98046875 358.778320312 621.141601562 358.778320312 605 c 4
 358.778320312 585.998046875 376.790039062 559.627929688 418 548.854492188 c 4
 422.333984375 547.721679688 426.924804688 546.76171875 431.778320312 546 c 5
 516 524 l 5
 448.673828125 461 l 5
 434.87890625 461.400390625 420.431640625 463.6796875 406 467.640625 c 4
 339.229492188 485.969726562 272.790039062 540.30859375 272.790039062 611.133789062 c 4
44.7802734375 193.436523438 m 4
 44.7802734375 234.737304688 56.2626953125 280.436523438 70.2626953125 306 c 5
 39.0185546875 306 l 5
 39.0185546875 391 l 5
 328.261347656 389.5 l 5
 361.763671875 306 l 5
 212.018554688 306 l 5
 171.262695312 306 151.780273438 245.162109375 151.780273438 193.436523438 c 4
 151.780273438 156.328125 157.454101562 114.65234375 194.711914062 114.65234375 c 4
 236.887695312 114.65234375 251.893554688 179.677734375 251.893554688 249.5 c 5
 347.8046875 249.5 l 5
 347.8046875 176.75 363.272460938 115 406.262695312 115 c 4
 463.018554688 115 463.018554688 239.958007812 463.018554688 293 c 4
 463.018554688 384.547851562 448.15625 481.404296875 429.516601562 545 c 5
 423.778320312 579 405.778320312 628 383.6953125 648 c 5
 360.958007812 683.220703125 332.458007812 712.00390625 297.673828125 733 c 5
 369.673828125 817 l 5
 448.651367188 764.920898438 503.0625 686.227539062 535.161132812 588 c 4
 559.149414062 514.590820312 578.018554688 410 578.018554688 293 c 4
 578.018554688 181.99609375 577.018554688 0 406.262695312 0 c 4
 350.342773438 0 312.3203125 33.14453125 297.5 79.0302734375 c 5
 281.354492188 31.6025390625 241.942382812 0 189.262695312 0 c 4
 73.462890625 0 44.7802734375 105.454101562 44.7802734375 193.436523438 c 4
97.35546875 409.272460938 m 4
 97.35546875 481.53515625 146.326171875 531.563476562 220.627929688 531.563476562 c 4
 297.614257812 531.563476562 369.012695312 474.899414062 369.012695312 365.563476562 c 4
 369.012695312 351 365.819335938 325 361.763671875 306 c 5
 271.383789062 371.875 l 5
 272.324323233 376.782574445 272.798688675 381.77029089 272.798688675 386.713601115 c 4
 272.798688675 416.143780956 255.984994547 444 220.627929688 444 c 4
 195.828125 444 186.8359375 426.133789062 186.8359375 404.787109375 c 4
 186.8359375 386.79296875 199.12109375 370.325195312 207.819335938 356 c 5
 127.819335938 318.563476562 l 5
 107.819335938 351 97.35546875 380.620117188 97.35546875 409.272460938 c 4
EndSplineSet
Layer: 2
SplineSet
249.893554688 249.5 m 1
 345.8046875 249.5 l 1
 345.8046875 176.75 361.272460938 115 404.262695312 115 c 0
 461.018554688 115 461.018554688 239.958007812 461.018554688 293 c 0
 461.018554688 384.547851562 446.15625 481.404296875 427.516601562 545 c 1
 421.778320312 579 403.778320312 628 381.6953125 648 c 1
 358.958007812 683.220703125 330.458007812 712.00390625 295.673828125 733 c 1
 367.673828125 817 l 1
 446.651367188 764.920898438 501.0625 686.227539062 533.161132812 588 c 0
 557.149414062 514.590820312 576.018554688 410 576.018554688 293 c 0
 576.018554688 181.99609375 575.018554688 0 404.262695312 0 c 0
 348.342773438 0 310.3203125 33.14453125 295.5 79.0302734375 c 1
 279.354492188 31.6025390625 239.942382812 0 187.262695312 0 c 1
 71.46484375 0 42.7802734375 105.454101562 42.7802734375 193.436523438 c 0
 42.7802734375 234.737304688 54.2626953125 280.436523438 68.2626953125 306 c 1
 37.0185546875 306 l 1
 37.0185546875 391 l 1
 326.262695312 388 l 1
 360.102539062 304 l 1
 210.018554688 304.436523438 l 1
 169.262695312 304.436523438 149.780273438 245.162109375 149.780273438 193.436523438 c 0
 149.780273438 156.328125 155.454101562 114.65234375 192.711914062 114.65234375 c 0
 234.887695312 114.65234375 249.893554688 179.677734375 249.893554688 249.5 c 1
-373.525390625 0 m 0
 -426.225585938 0 -465.6171875 31.6025390625 -481.762695312 79.0302734375 c 1
 -497.908203125 31.6025390625 -537.299804688 0 -590 0 c 0
 -705.799804688 0 -734.482421875 105.454101562 -734.482421875 193.436523438 c 0
 -734.482421875 234.737304688 -723 280.436523438 -709 306 c 1
 -740.244140625 306 l 1
 -740.244140625 391 l 1
 -451 388 l 1
 -417.16015625 304 l 1
 -567.244140625 304.436523438 l 1
 -608 304.436523438 -627.482421875 245.162109375 -627.482421875 193.436523438 c 0
 -627.482421875 156.328125 -621.80859375 114.65234375 -584.55078125 114.65234375 c 0
 -542.375 114.65234375 -527.369140625 179.677734375 -527.369140625 249.5 c 1
 -436.15625 249.5 l 1
 -436.15625 176.75 -420.482421875 109.151367188 -373.525390625 115 c 0
 -324.72265625 121.079101562 -324.759765625 239.958007812 -324.759765625 293 c 0
 -324.759765625 384.547851562 -339.622070312 481.404296875 -358.26171875 545 c 1
 -364 579 -382 628 -404.083007812 648 c 1
 -426.8203125 683.220703125 -455.3203125 712.00390625 -490.104492188 733 c 1
 -418.104492188 817 l 1
 -339.126953125 764.920898438 -284.715820312 686.227539062 -252.6171875 588 c 0
 -228.62890625 514.590820312 -209.759765625 410 -209.759765625 293 c 0
 -209.759765625 181.99609375 -215.76953125 0 -373.525390625 0 c 0
-356 546 m 1
 -346 565 -338.456054688 609.987304688 -351.104492188 624 c 0
 -357.301757812 630.865234375 -392 651 -403 647 c 1
 -419.37890625 639.98046875 -429 621.141601562 -429 605 c 0
 -429 584 -407 554 -356 546 c 1
-490.104492188 733 m 1
 -424.104492188 781 l 1
 -381.104492188 764 l 1
 -331.198242188 736.635742188 -260.735351562 491.768554688 -339.104492188 461 c 1
 -416.724609375 463.250976562 -514.98828125 525 -514.98828125 611.133789062 c 0
 -514.98828125 686.51171875 -442.196289062 697.581054688 -490.104492188 733 c 1
-592.087890625 402.787109375 m 0
 -592.087890625 389.465820312 -587.571289062 375.438476562 -578.663085938 364.3203125 c 1
 -654.374023438 326.3203125 l 1
 -675.400390625 354.120117188 -684.663085938 383.978515625 -684.663085938 412.419921875 c 0
 -684.663085938 484.68359375 -632.59765625 529.563476562 -558.295898438 529.563476562 c 0
 -481.309570312 529.563476562 -409.911132812 472.899414062 -409.911132812 363.563476562 c 0
 -409.911132812 349 -413.104492188 323 -417.16015625 304 c 1
 -417.16015625 304 -508.60546875 364.313476562 -507.540039062 369.875 c 0
 -501 404 -517 442 -558.295898438 442 c 0
 -583.095703125 442 -592.087890625 424.133789062 -592.087890625 402.787109375 c 0
429.778320312 546 m 1
 439.778320312 565 447.322265625 609.987304688 434.673828125 624 c 0
 428.4765625 630.865234375 393.778320312 651 382.778320312 647 c 1
 366.399414062 639.98046875 356.778320312 621.141601562 356.778320312 605 c 0
 356.778320312 584 378.778320312 554 429.778320312 546 c 1
295.673828125 733 m 1
 361.673828125 781 l 1
 404.673828125 764 l 1
 454.580078125 736.635742188 525.04296875 491.768554688 446.673828125 461 c 1
 369.053710938 463.250976562 270.790039062 525 270.790039062 611.133789062 c 0
 270.790039062 686.51171875 343.58203125 697.581054688 295.673828125 733 c 1
185.174804688 402.787109375 m 0
 185.174804688 389.465820312 189.69140625 375.438476562 198.599609375 364.3203125 c 1
 122.888671875 326.3203125 l 1
 101.862304688 354.120117188 92.599609375 383.978515625 92.599609375 412.419921875 c 0
 92.599609375 484.68359375 144.665039062 529.563476562 218.966796875 529.563476562 c 0
 295.953125 529.563476562 367.3515625 472.899414062 367.3515625 363.563476562 c 0
 367.3515625 349 364.158203125 323 360.102539062 304 c 1
 360.102539062 304 268.657226562 364.313476562 269.72265625 369.875 c 0
 276.262695312 404 260.262695312 442 218.966796875 442 c 0
 194.166992188 442 185.174804688 424.133789062 185.174804688 402.787109375 c 0
185.174804688 402.787109375 m 0
 185.174804688 389.465820312 189.69140625 375.438476562 198.599609375 364.3203125 c 1
 122.888671875 326.3203125 l 1
 101.862304688 354.120117188 92.599609375 383.978515625 92.599609375 412.419921875 c 0
 92.599609375 484.68359375 144.665039062 529.563476562 218.966796875 529.563476562 c 0
 295.953125 529.563476562 367.3515625 472.899414062 367.3515625 363.563476562 c 0
 367.3515625 349 364.158203125 323 360.102539062 304 c 1
 360.102539062 304 268.657226562 364.313476562 269.72265625 369.875 c 0
 276.262695312 404 260.262695312 442 218.966796875 442 c 0
 194.166992188 442 185.174804688 424.133789062 185.174804688 402.787109375 c 0
EndSplineSet
Layer: 3
SplineSet
-373 0 m 0
 -428.919921875 0 -466.942382812 33.14453125 -481.762695312 79.0302734375 c 1
 -497.908203125 31.6025390625 -537.3203125 0 -590 0 c 1
 -705.797851562 0 -734.482421875 105.454101562 -734.482421875 193.436523438 c 0
 -734.482421875 234.737304688 -723 280.436523438 -709 306 c 1
 -740.244140625 306 l 1
 -740.244140625 391 l 1
 -451 388 l 1
 -417.16015625 304 l 1
 -567.244140625 304.436523438 l 1
 -608 304.436523438 -627.482421875 245.162109375 -627.482421875 193.436523438 c 0
 -627.482421875 157.760742188 -620.041015625 115 -590 115 c 0
 -543.299804688 115 -527.369140625 176.75 -527.369140625 249.5 c 1
 -431.458007812 249.5 l 1
 -431.458007812 176.75 -415.990234375 115 -373 115 c 0
 -325 115 -324.759765625 239.958007812 -324.759765625 293 c 0
 -324.759765625 390 -341.444335938 492.959960938 -361.629882812 556 c 0
 -386.725585938 634.375976562 -428.5859375 695.8671875 -490.104492188 733 c 1
 -418.104492188 817 l 1
 -339.126953125 764.920898438 -284.715820312 686.227539062 -252.6171875 588 c 0
 -228.62890625 514.590820312 -209.759765625 410 -209.759765625 293 c 0
 -209.759765625 181.99609375 -215.244140625 0 -373 0 c 0
-355.104492188 557 m 1
 -345.104492188 576 -338.456054688 609.987304688 -351.104492188 624 c 0
 -357.301757812 630.865234375 -392.104492188 656 -403.104492188 652 c 1
 -445.104492188 634 -439.104492188 563 -355.104492188 557 c 1
-490.104492188 733 m 1
 -424.104492188 781 l 1
 -381.104492188 764 l 1
 -331.198242188 736.635742188 -260.735351562 491.768554688 -339.104492188 461 c 1
 -416.724609375 463.250976562 -514.98828125 525 -514.98828125 611.133789062 c 0
 -514.98828125 686.51171875 -442.196289062 697.581054688 -490.104492188 733 c 1
-592.087890625 402.787109375 m 0
 -592.087890625 389.465820312 -587.571289062 375.438476562 -578.663085938 364.3203125 c 1
 -654.374023438 326.3203125 l 1
 -675.400390625 354.120117188 -684.663085938 383.978515625 -684.663085938 412.419921875 c 0
 -684.663085938 484.68359375 -632.59765625 529.563476562 -558.295898438 529.563476562 c 0
 -481.309570312 529.563476562 -409.911132812 472.899414062 -409.911132812 363.563476562 c 0
 -409.911132812 349 -413.104492188 323 -417.16015625 304 c 1
 -417.16015625 304 -508.60546875 364.313476562 -507.540039062 369.875 c 0
 -501 404 -517 442 -558.295898438 442 c 0
 -583.095703125 442 -592.087890625 424.133789062 -592.087890625 402.787109375 c 0
1739.10449219 546 m 1
 1749.10449219 565 1756.6484375 609.987304688 1744 624 c 0
 1737.80273438 630.865234375 1703.10449219 651 1692.10449219 647 c 1
 1675.72558594 639.98046875 1666.10449219 621.141601562 1666.10449219 605 c 0
 1666.10449219 584 1688.10449219 554 1739.10449219 546 c 1
1636 727 m 1
 1673 723 l 1
 1716 706 l 1
 1765.90625 678.635742188 1834.36914062 491.768554688 1756 461 c 1
 1678.37988281 463.250976562 1580.11621094 525 1580.11621094 611.133789062 c 0
 1580.11621094 686.51171875 1611 707 1636 727 c 1
1770.75585938 293 m 0
 1770.75585938 390.330078125 1763.04199219 467.44140625 1743.66308594 524 c 1
 1733 602 1686 647 1659.02929688 627 c 1
 1653.28417969 629.483398438 1647.27734375 631.609375 1641 633.375976562 c 0
 1625.59375 637.711914062 1608.55664062 639.884765625 1589.75585938 639.884765625 c 0
 1589.75585938 755 l 0
 1631.17089844 755 1667.55859375 749.3203125 1699.33105469 738 c 0
 1834.03320312 690.0078125 1885.75585938 540.64453125 1885.75585938 293 c 0
 1885.75585938 181.99609375 1884.75585938 0 1714 0 c 0
 1658.08007812 0 1620.05761719 33.14453125 1605.23730469 79.0302734375 c 1
 1589.09179688 31.6025390625 1549.6796875 0 1497 0 c 1
 1381.20214844 0 1352.51757812 105.454101562 1352.51757812 193.436523438 c 0
 1352.51757812 234.737304688 1364 280.436523438 1378 306 c 1
 1346.75585938 306 l 1
 1346.75585938 391 l 1
 1636 388 l 1
 1669.83984375 304 l 1
 1519.75585938 304.436523438 l 1
 1479 304.436523438 1459.51757812 245.162109375 1459.51757812 193.436523438 c 0
 1459.51757812 157.760742188 1466.95898438 115 1497 115 c 0
 1543.70019531 115 1559.63085938 176.75 1559.63085938 249.5 c 1
 1655.54199219 249.5 l 1
 1655.54199219 176.75 1671.00976562 115 1714 115 c 0
 1770.75585938 115 1770.75585938 239.958007812 1770.75585938 293 c 0
1494.91210938 402.787109375 m 0
 1494.91210938 389.465820312 1499.42871094 375.438476562 1508.33691406 364.3203125 c 1
 1432.62597656 326.3203125 l 1
 1411.59960938 354.120117188 1402.33691406 383.978515625 1402.33691406 412.419921875 c 0
 1402.33691406 484.68359375 1454.40234375 529.563476562 1528.70410156 529.563476562 c 0
 1605.69042969 529.563476562 1677.08886719 472.899414062 1677.08886719 363.563476562 c 0
 1677.08886719 349 1673.89550781 323 1669.83984375 304 c 1
 1669.83984375 304 1578.39453125 364.313476562 1579.45996094 369.875 c 0
 1586 404 1570 442 1528.70410156 442 c 0
 1503.90429688 442 1494.91210938 424.133789062 1494.91210938 402.787109375 c 0
249.893554688 249.5 m 1
 345.8046875 249.5 l 1
 345.8046875 176.75 361.272460938 115 404.262695312 115 c 0
 461.018554688 115 461.018554688 239.958007812 461.018554688 293 c 0
 461.018554688 384.547851562 446.15625 481.404296875 427.516601562 545 c 1
 421.778320312 579 403.778320312 628 381.6953125 648 c 1
 358.958007812 683.220703125 330.458007812 712.00390625 295.673828125 733 c 1
 367.673828125 817 l 1
 446.651367188 764.920898438 501.0625 686.227539062 533.161132812 588 c 0
 557.149414062 514.590820312 576.018554688 410 576.018554688 293 c 0
 576.018554688 181.99609375 575.018554688 0 404.262695312 0 c 0
 348.342773438 0 310.3203125 33.14453125 295.5 79.0302734375 c 1
 279.354492188 31.6025390625 239.942382812 0 187.262695312 0 c 1
 71.46484375 0 42.7802734375 105.454101562 42.7802734375 193.436523438 c 0
 42.7802734375 234.737304688 54.2626953125 280.436523438 68.2626953125 306 c 1
 37.0185546875 306 l 1
 37.0185546875 391 l 1
 326.262695312 388 l 1
 360.102539062 304 l 1
 210.018554688 304.436523438 l 1
 169.262695312 304.436523438 149.780273438 245.162109375 149.780273438 193.436523438 c 0
 149.780273438 156.328125 155.454101562 114.65234375 192.711914062 114.65234375 c 0
 234.887695312 114.65234375 249.893554688 179.677734375 249.893554688 249.5 c 1
429.778320312 546 m 1
 439.778320312 565 447.322265625 609.987304688 434.673828125 624 c 0
 428.4765625 630.865234375 393.778320312 651 382.778320312 647 c 1
 366.399414062 639.98046875 356.778320312 621.141601562 356.778320312 605 c 0
 356.778320312 584 378.778320312 554 429.778320312 546 c 1
295.673828125 733 m 1
 361.673828125 781 l 1
 404.673828125 764 l 1
 454.580078125 736.635742188 525.04296875 491.768554688 446.673828125 461 c 1
 369.053710938 463.250976562 270.790039062 525 270.790039062 611.133789062 c 0
 270.790039062 686.51171875 343.58203125 697.581054688 295.673828125 733 c 1
185.174804688 402.787109375 m 0
 185.174804688 389.465820312 189.69140625 375.438476562 198.599609375 364.3203125 c 1
 122.888671875 326.3203125 l 1
 101.862304688 354.120117188 92.599609375 383.978515625 92.599609375 412.419921875 c 0
 92.599609375 484.68359375 144.665039062 529.563476562 218.966796875 529.563476562 c 0
 295.953125 529.563476562 367.3515625 472.899414062 367.3515625 363.563476562 c 0
 367.3515625 349 364.158203125 323 360.102539062 304 c 1
 360.102539062 304 268.657226562 364.313476562 269.72265625 369.875 c 0
 276.262695312 404 260.262695312 442 218.966796875 442 c 0
 194.166992188 442 185.174804688 424.133789062 185.174804688 402.787109375 c 0
185.174804688 402.787109375 m 0
 185.174804688 389.465820312 189.69140625 375.438476562 198.599609375 364.3203125 c 1
 122.888671875 326.3203125 l 1
 101.862304688 354.120117188 92.599609375 383.978515625 92.599609375 412.419921875 c 0
 92.599609375 484.68359375 144.665039062 529.563476562 218.966796875 529.563476562 c 0
 295.953125 529.563476562 367.3515625 472.899414062 367.3515625 363.563476562 c 0
 367.3515625 349 364.158203125 323 360.102539062 304 c 1
 360.102539062 304 268.657226562 364.313476562 269.72265625 369.875 c 0
 276.262695312 404 260.262695312 442 218.966796875 442 c 0
 194.166992188 442 185.174804688 424.133789062 185.174804688 402.787109375 c 0
-1635 673 m 5
 -1622 616 l 5
 -1653 579 l 5
 -1756 574 -1816 668 -1816 761 c 4
 -1816 988.370117188 -1538 1020 -1431 863 c 5
 -1510 798 l 5
 -1576 899 -1713 866.481445312 -1713 758 c 4
 -1713 701.146484375 -1681 670 -1635 673 c 5
1101 518 m 1
 1111 537 1107.16699219 565.499023438 1098 582 c 0
 1093 591 1058 614 1043 613 c 1
 1023 563 1047 514 1101 518 c 1
941.666015625 651 m 1
 992.666015625 728 l 1
 1054.66601562 688 l 1
 1104.57226562 660.635742188 1196.36914062 472.768554688 1118 442 c 1
 1070 442 1006.04492188 461.791015625 975 522 c 0
 942 586 988 631.115234375 941.666015625 651 c 1
1130.24023438 293 m 0
 1130.24023438 383.708984375 1120.32226562 458.587890625 1100.6328125 516 c 1
 1095 558 1072 596 1041 614.034179688 c 1
 1013.95703125 638.405273438 980.821289062 651 941.666015625 651 c 0
 941.666015625 755 l 0
 1142.44921875 755 1245.24023438 599.055664062 1245.24023438 293 c 0
 1245.24023438 181.99609375 1239.75585938 0 1082 0 c 0
 1026.08007812 0 988.057617188 33.14453125 973.237304688 79.0302734375 c 1
 957.091796875 31.6025390625 917.6796875 0 865 0 c 1
 749.202148438 0 720.517578125 105.454101562 720.517578125 193.436523438 c 0
 720.517578125 234.737304688 732 257.436523438 746 283 c 1
 714.755859375 283 l 1
 714.755859375 368 l 1
 1004 365 l 1
 1037.83984375 281 l 1
 887.755859375 281.436523438 l 1
 847 281.436523438 827.517578125 245.162109375 827.517578125 193.436523438 c 0
 827.517578125 157.760742188 834.958984375 115 865 115 c 0
 911.700195312 115 927.630859375 176.75 927.630859375 249.5 c 1
 1023.54199219 249.5 l 1
 1023.54199219 176.75 1039.00976562 115 1082 115 c 0
 1130 115 1130.24023438 239.958007812 1130.24023438 293 c 0
862.912109375 379.787109375 m 0
 862.912109375 366.465820312 867.428710938 352.438476562 876.336914062 341.3203125 c 1
 800.625976562 303.3203125 l 1
 779.599609375 331.120117188 770.336914062 360.978515625 770.336914062 389.419921875 c 0
 770.336914062 461.68359375 822.40234375 506.563476562 896.704101562 506.563476562 c 0
 973.690429688 506.563476562 1045.08886719 449.899414062 1045.08886719 340.563476562 c 0
 1045.08886719 326 1041.89550781 300 1037.83984375 281 c 1
 1037.83984375 281 946.39453125 341.313476562 947.459960938 346.875 c 0
 954 381 938 419 896.704101562 419 c 0
 871.904296875 419 862.912109375 401.133789062 862.912109375 379.787109375 c 0
EndSplineSet
EndChar

StartChar: si_Dda
Encoding: 36 3497 4
Width: 612
VWidth: 0
Flags: HMW
LayerCount: 4
Fore
SplineSet
44.7802734375 193.436523438 m 4
 44.7802734375 234.737304688 56.2626953125 280.436523438 70.2626953125 306 c 5
 39.0185546875 306 l 5
 39.0185546875 391 l 5
 328.26171875 389.5 l 5
 361.763671875 306 l 5
 212.018554688 306 l 6
 171.262695312 306 151.780273438 245.162109375 151.780273438 193.436523438 c 4
 151.780273438 156.328125 157.454101562 114.65234375 194.711914062 114.65234375 c 4
 236.887695312 114.65234375 251.893554688 179.677734375 251.893554688 249.5 c 5
 347.8046875 249.5 l 5
 347.8046875 176.75 363.272460938 115 406.262695312 115 c 4
 463.018554688 115 463.018554688 239.958007812 463.018554688 293 c 4
 463.018554688 522.796875 420.018554688 639.884765625 282.018554688 639.884765625 c 4
 240.915039062 639.884765625 193.255859375 618.959960938 176.200195312 576.85546875 c 5
 67.16796875 613.029296875 l 5
 103.15234375 707.868164062 195.297851562 755 282.018554688 755 c 4
 499.018554688 755 578.018554688 599.055664062 578.018554688 293 c 4
 578.018554688 181.99609375 577.018554688 0 406.262695312 0 c 4
 350.342773438 0 312.3203125 33.14453125 297.5 79.0302734375 c 5
 281.354492188 31.6025390625 241.942382812 0 189.262695312 0 c 4
 73.462890625 0 44.7802734375 105.454101562 44.7802734375 193.436523438 c 4
97.35546875 409.272460938 m 4
 97.35546875 481.53515625 146.326171875 531.563476562 220.627929688 531.563476562 c 4
 297.614257812 531.563476562 369.012695312 474.899414062 369.012695312 365.563476562 c 4
 369.012695312 351 365.819335938 325 361.763671875 306 c 5
 271.383789062 371.875 l 5
 272.324323233 376.782574445 272.798688675 381.77029089 272.798688675 386.713601115 c 4
 272.798688675 416.143780956 255.984994547 444 220.627929688 444 c 4
 195.828125 444 186.8359375 426.133789062 186.8359375 404.787109375 c 4
 186.8359375 386.79296875 199.12109375 370.325195312 207.819335938 356 c 5
 127.819335938 318.563476562 l 5
 107.819335938 351 97.35546875 380.620117188 97.35546875 409.272460938 c 4
EndSplineSet
Layer: 2
SplineSet
227.630859375 249.5 m 5
 323.541992188 249.5 l 5
 323.541992188 176.75 339.009765625 115 382 115 c 4
 438.755859375 115 438.755859375 239.958007812 438.755859375 293 c 4
 438.755859375 522.796875 395.755859375 639.884765625 257.755859375 639.884765625 c 4
 216.65234375 639.884765625 168.993164062 618.959960938 151.9375 576.85546875 c 5
 42.9052734375 613.029296875 l 5
 78.8896484375 707.868164062 171.03515625 755 257.755859375 755 c 4
 474.755859375 755 553.755859375 599.055664062 553.755859375 293 c 4
 553.755859375 181.99609375 552.755859375 0 382 0 c 4
 326.080078125 0 288.057617188 33.14453125 273.237304688 79.0302734375 c 5
 257.091796875 31.6025390625 217.6796875 0 165 0 c 4
 49.2001953125 0 20.517578125 105.454101562 20.517578125 193.436523438 c 4
 20.517578125 234.737304688 32 280.436523438 46 306 c 5
 14.755859375 306 l 5
 14.755859375 391 l 5
 304 388 l 5
 337.83984375 304 l 5
 187.755859375 304.436523438 l 5
 147 304.436523438 127.517578125 245.162109375 127.517578125 193.436523438 c 4
 127.517578125 156.328125 133.19140625 114.65234375 170.44921875 114.65234375 c 4
 212.625 114.65234375 227.630859375 179.677734375 227.630859375 249.5 c 5
162.912109375 402.787109375 m 4
 162.912109375 389.465820312 167.428710938 375.438476562 176.336914062 364.3203125 c 5
 100.625976562 326.3203125 l 5
 79.599609375 354.120117188 70.3369140625 383.978515625 70.3369140625 412.419921875 c 4
 70.3369140625 484.68359375 122.40234375 529.563476562 196.704101562 529.563476562 c 4
 273.690429688 529.563476562 345.088867188 472.899414062 345.088867188 363.563476562 c 4
 345.088867188 349 341.895507812 323 337.83984375 304 c 5
 337.83984375 304 246.39453125 364.313476562 247.459960938 369.875 c 4
 254 404 238 442 196.704101562 442 c 4
 171.904296875 442 162.912109375 424.133789062 162.912109375 402.787109375 c 4
EndSplineSet
Layer: 3
SplineSet
431.484375 293 m 4
 431.484375 522.796875 367.83203125 639.884765625 242.91015625 639.884765625 c 4
 201.806640625 639.884765625 161.721679688 618.959960938 144.666015625 576.85546875 c 5
 35.6337890625 613.029296875 l 5
 71.6181640625 707.868164062 156.189453125 755 242.91015625 755 c 4
 443.693359375 755 546 599.055664062 546.484375 293 c 4
 546.484375 181.99609375 541 0 383.244140625 0 c 4
 327.32421875 0 289.301757812 33.14453125 274.481445312 79.0302734375 c 5
 258.3359375 31.6025390625 218.923828125 0 166.244140625 0 c 5
 50.4462890625 0 21.76171875 105.454101562 21.76171875 193.436523438 c 4
 21.76171875 234.737304688 33.244140625 280.436523438 47.244140625 306 c 5
 16 306 l 5
 16 391 l 5
 305.244140625 388 l 5
 339.083984375 304 l 5
 189 304.436523438 l 5
 148.244140625 304.436523438 128.76171875 245.162109375 128.76171875 193.436523438 c 4
 128.76171875 157.760742188 136.203125 115 166.244140625 115 c 4
 212.944335938 115 228.875 176.75 228.875 249.5 c 5
 324.786132812 249.5 l 5
 324.786132812 176.75 340.25390625 115 383.244140625 115 c 4
 431.244140625 115 431.484375 239.958007812 431.484375 293 c 4
164.15625 402.787109375 m 4
 164.15625 389.465820312 168.672851562 375.438476562 177.581054688 364.3203125 c 5
 101.870117188 326.3203125 l 5
 80.84375 354.120117188 71.5810546875 383.978515625 71.5810546875 412.419921875 c 4
 71.5810546875 484.68359375 123.646484375 529.563476562 197.948242188 529.563476562 c 4
 274.934570312 529.563476562 346.333007812 472.899414062 346.333007812 363.563476562 c 4
 346.333007812 349 343.139648438 323 339.083984375 304 c 5
 339.083984375 304 247.638671875 364.313476562 248.704101562 369.875 c 4
 255.244140625 404 239.244140625 442 197.948242188 442 c 4
 173.1484375 442 164.15625 424.133789062 164.15625 402.787109375 c 4
EndSplineSet
EndChar

StartChar: si_Nna
Encoding: 38 3499 5
Width: 878
VWidth: 0
Flags: HW
LayerCount: 4
Fore
SplineSet
227 506 m 1
 269 496 l 1
 346 464 l 1
 346 464 398.779296875 539 409 550 c 0
 513.999023438 663.000976562 510 714 510 779 c 0
 394 779 l 0
 394 720 388.713867188 681.774414062 258 552 c 0
 214.241210938 508.555664062 227 506 227 506 c 1
517.901367188 297.078125 m 0
 517.901367188 496 402.381835938 594 262 594 c 0
 73 594 -11 382 68 233 c 1
 113 285 l 1
 138 371 l 1
 138 426.325195312 175 480 262 480 c 0
 339.28125 480 402.901367188 416 402.901367188 297.078125 c 0
 402.901367188 185.544921875 357.487304688 112.55078125 260.546875 112.55078125 c 0
 212 112.55078125 173 131 143 115 c 0
 100 74 l 1
 124 9 l 1
 154 41 201.549804688 8.947265625 253 8.947265625 c 0
 416.72265625 8.947265625 517.901367188 108.526367188 517.901367188 297.078125 c 0
124 9 m 1
 135 157 170 143 230 185 c 1
 144 253 l 1
 64 180 42 183 22 29 c 1
 124 9 l 1
549.754882812 406 m 4
 576.754882812 406 581.95703125 372 581.95703125 333 c 4
 581.95703125 267.864257812 581.95703125 238 581.95703125 238 c 5
 674.95703125 238 l 5
 674.95703125 238 674.95703125 267.864257812 674.95703125 333 c 4
 674.95703125 372 680.159179688 406 707.159179688 406 c 4
 741 406 741.840820312 338.390625 741.840820312 277 c 4
 741.840820312 208.103515625 738.262695312 110 654 110 c 4
 569 110 592 228 491 208 c 5
 457 115 l 5
 523 147 503 0 654 0 c 4
 848.578125 0 856.840820312 166 856.840820312 277 c 4
 856.840820312 386 850.842773438 520 715 520 c 4
 676 520 637.943359375 491.129882812 628.45703125 468 c 5
 618.970703125 491.129882812 580.9140625 520 541.9140625 520 c 4
 463 520 414.16015625 415 430 268 c 4
 514 235 l 5
 528 292 500.794921875 406 549.754882812 406 c 4
149.235351562 298.48828125 m 0
 149.235351562 325.829101562 171.106445312 347.702148438 198.446289062 347.702148438 c 0
 225.786132812 347.702148438 247.659179688 325.829101562 247.659179688 298.48828125 c 0
 247.659179688 271.1484375 225.786132812 249.27734375 198.446289062 249.27734375 c 0
 171.106445312 249.27734375 149.235351562 271.1484375 149.235351562 298.48828125 c 0
53.0146484375 298.48828125 m 0
 53.0146484375 216.549804688 118.564453125 151 200.502929688 151 c 0
 282.444335938 151 348 216.549804688 348 298.48828125 c 0
 348 336.970703125 333.541015625 371.838867188 309.717773438 398 c 0
 286.909179688 423.046875 252.567382812 437 219.227539062 437 c 0
 182.885742188 437 147.732421875 420.948242188 130 398 c 1
 86.423828125 370.978515625 53.0146484375 335.545898438 53.0146484375 298.48828125 c 0
EndSplineSet
Layer: 2
SplineSet
227 506 m 5
 269 496 l 5
 346 464 l 5
 346 464 398.779296875 539 409 550 c 4
 513.999023438 663.000976562 510 714 510 779 c 4
 394 779 l 4
 394 720 388.713867188 681.774414062 258 552 c 4
 214.241210938 508.555664062 227 506 227 506 c 5
517.901367188 297.078125 m 4
 517.901367188 496 402.381835938 594 262 594 c 4
 73 594 -11 382 68 233 c 5
 113 285 l 5
 138 371 l 5
 138 426.325195312 175 480 262 480 c 4
 339.28125 480 402.901367188 416 402.901367188 297.078125 c 4
 402.901367188 185.544921875 357.487304688 112.55078125 260.546875 112.55078125 c 4
 212 112.55078125 173 131 143 115 c 4
 100 74 l 5
 124 9 l 5
 154 41 201.549804688 8.947265625 253 8.947265625 c 4
 416.72265625 8.947265625 517.901367188 108.526367188 517.901367188 297.078125 c 4
124 9 m 5
 135 157 170 143 230 185 c 5
 144 253 l 5
 64 180 42 183 22 29 c 5
 124 9 l 5
549.754882812 406 m 4
 576.754882812 406 581.95703125 372 581.95703125 333 c 4
 581.95703125 267.864257812 581.95703125 238 581.95703125 238 c 5
 674.95703125 238 l 5
 674.95703125 238 674.95703125 267.864257812 674.95703125 333 c 4
 674.95703125 372 680.159179688 406 707.159179688 406 c 4
 741 406 741.840820312 338.390625 741.840820312 277 c 4
 741.840820312 208.103515625 738.262695312 110 654 110 c 4
 593 110 582 141 571 168 c 5
 475 134 l 5
 487 48 569.4609375 0 654 0 c 4
 848.578125 0 856.840820312 166 856.840820312 277 c 4
 856.840820312 386 850.842773438 520 715 520 c 4
 676 520 637.943359375 491.129882812 628.45703125 468 c 5
 618.970703125 491.129882812 580.9140625 520 541.9140625 520 c 4
 438.95703125 520 414.16015625 415 430 268 c 4
 515 235 l 5
 524 287 500.794921875 406 549.754882812 406 c 4
149.235351562 298.48828125 m 4
 149.235351562 325.829101562 171.106445312 347.702148438 198.446289062 347.702148438 c 4
 225.786132812 347.702148438 247.659179688 325.829101562 247.659179688 298.48828125 c 4
 247.659179688 271.1484375 225.786132812 249.27734375 198.446289062 249.27734375 c 4
 171.106445312 249.27734375 149.235351562 271.1484375 149.235351562 298.48828125 c 4
53.0146484375 298.48828125 m 4
 53.0146484375 216.549804688 118.564453125 151 200.502929688 151 c 4
 282.444335938 151 348 216.549804688 348 298.48828125 c 4
 348 336.970703125 333.541015625 371.838867188 309.717773438 398 c 4
 286.909179688 423.046875 252.567382812 437 219.227539062 437 c 4
 182.885742188 437 147.732421875 420.948242188 130 398 c 5
 86.423828125 370.978515625 53.0146484375 335.545898438 53.0146484375 298.48828125 c 4
EndSplineSet
Layer: 3
SplineSet
517.901367188 297.078125 m 0
 517.901367188 108.526367188 416.72265625 8.947265625 253 8.947265625 c 0
 201.549804688 8.947265625 154 41 124 9 c 1
 100 74 l 1
 143 115 l 0
 173 131 212 112.55078125 260.546875 112.55078125 c 0
 357.487304688 112.55078125 402.901367188 185.544921875 402.901367188 297.078125 c 0
 402.901367188 416 339.28125 482 262 482 c 0
 175 482 133.901367188 429.325195312 133.901367188 374 c 1
 113 285 l 1
 68 233 l 1
 -11 382 73 594 262 594 c 0
 402.381835938 594 517.901367188 496 517.901367188 297.078125 c 0
155.041992188 294.859375 m 0
 155.041992188 270.4921875 174.53515625 251 198.901367188 251 c 0
 223.268554688 251 242.762695312 270.4921875 242.762695312 294.859375 c 0
 242.762695312 319.2265625 223.268554688 338.720703125 198.901367188 338.720703125 c 0
 174.53515625 338.720703125 155.041992188 319.2265625 155.041992188 294.859375 c 0
227 506 m 1
 227 506 214.241210938 508.555664062 258 552 c 0
 388.713867188 681.774414062 394 720 394 779 c 0
 510 779 l 0
 510 714 513.999023438 663.000976562 409 550 c 0
 398.779296875 539 346 464 346 464 c 1
 269 496 l 1
 227 506 l 1
124 9 m 1
 22 29 l 1
 42 183 64 180 144 253 c 1
 230 185 l 1
 170 143 135 157 124 9 c 1
549.754882812 406 m 0
 500.794921875 406 529 333 514 235 c 1
 430 268 l 0
 414.16015625 415 464 520 541.9140625 520 c 0
 580.9140625 520 618.970703125 491.129882812 628.45703125 468 c 1
 637.943359375 491.129882812 676 520 715 520 c 0
 850.842773438 520 856.840820312 386 856.840820312 277 c 0
 856.840820312 166 848.578125 0 654 0 c 0
 514 0 546 88 456 114 c 1
 495 206 l 1
 609 180 580 110 654 110 c 0
 738.262695312 110 741.840820312 208.103515625 741.840820312 277 c 0
 741.840820312 338.390625 741 406 707.159179688 406 c 0
 680.159179688 406 674.95703125 372 674.95703125 333 c 0
 674.95703125 267.864257812 674.95703125 238 674.95703125 238 c 1
 581.95703125 238 l 1
 581.95703125 238 581.95703125 267.864257812 581.95703125 333 c 0
 581.95703125 372 576.754882812 406 549.754882812 406 c 0
53.0146484375 298.48828125 m 0
 53.0146484375 335.545898438 86.423828125 370.978515625 130 398 c 1
 147.732421875 420.948242188 182.885742188 437 219.227539062 437 c 0
 252.567382812 437 286.909179688 423.046875 309.717773438 398 c 0
 333.541015625 371.838867188 348 336.970703125 348 298.48828125 c 0
 348 216.549804688 282.444335938 151 200.502929688 151 c 0
 118.564453125 151 53.0146484375 216.549804688 53.0146484375 298.48828125 c 0
EndSplineSet
EndChar

StartChar: si_A
Encoding: 3 3461 6
Width: 559
VWidth: 0
Flags: HW
LayerCount: 4
Fore
SplineSet
290.479492188 -205 m 1
 288.104492188 416 l 1
 288.104492188 416 300.479492188 489 346.173828125 533.184570312 c 1
 348.639648438 535.82421875 418.720703125 613.930664062 493.274414062 613.930664062 c 1
 535.479492188 552 l 1
 523.82421875 545.444335938 519.99609375 532.885742188 519.99609375 516.64453125 c 0
 519.99609375 485.538085938 534.040039062 440.918945312 534.040039062 399.081054688 c 0
 534.040039062 349.94140625 503.110351562 294.291992188 426.015625 294.291992188 c 0
 414.825195312 294.291992188 402.662109375 295.46484375 389.479492188 298 c 1
 390.479492188 378 l 1
 394.765625 377.610351562 398.795898438 377.418945312 402.577148438 377.418945312 c 0
 436.080078125 377.418945312 450.071289062 392.47265625 450.071289062 418.328125 c 0
 450.071289062 438.103303033 443.368396582 460.721761125 438.473116285 477.999999226 c 0
 437.34435702 481.9840349 436.311704261 485.684143584 435.479492188 489 c 1
 391.997070312 459 395.078125 403.255859375 394.479492188 327.2265625 c 1
 394.479492188 -205 l 1
 290.479492188 -205 l 1
22.2197265625 217 m 4
 22.2197265625 330.947265625 118.899726562 421.3515625 239.219726562 421.3515625 c 4
 258.049726562 421.3515625 270.219726562 420 288.026367188 418.436523438 c 5
 289.087890625 424.678710938 289.590820312 430.6484375 289.590820312 436.311523438 c 4
 289.590820312 473.944335938 267.361328125 498 238.834960938 498 c 4
 209.479492188 498 193.651367188 477 193.651367188 453.1640625 c 4
 193.651367188 440.755522838 197.168236262 427.391088382 205 418 c 5
 127.219726562 379 l 5
 107.91015625 404.20703125 100.17578125 430.604492188 100.17578125 458.407226562 c 4
 100.17578125 534.13671875 152.275390625 596 238.834960938 596 c 4
 315.825195312 596 387.219726562 539.3359375 387.219726562 430 c 4
 387.219726562 398.735351562 380.219726562 357 368.219726562 318 c 5
 368.219726562 318 287.750976562 318 239.219726562 318 c 4
 183.219726562 318 134.219726562 273 134.219726562 217 c 4
 134.219726562 161 172.817382812 112 270.479492188 112 c 4
 389.161132812 112 444.109375 174.814453125 464.479492188 194 c 5
 533.479492188 111 l 5
 494.0703125 70.8330078125 396.762695312 0 270.479492188 0 c 4
 102.927734375 0 22.2197265625 96.6640625 22.2197265625 217 c 4
EndSplineSet
Layer: 2
SplineSet
268.256835938 115 m 4
 386.938476562 115 441.88671875 174.814453125 462.256835938 194 c 5
 531.256835938 111 l 5
 512.243164062 91.62109375 470.245117188 42.2705078125 390.256835938 17.46484375 c 4
 356.3046875 6.9365234375 315.955078125 0 268.256835938 0 c 4
 100.705078125 0 19.9970703125 96.6640625 19.9970703125 217 c 4
 19.9970703125 330.947265625 116.680664062 421.3515625 236.997070312 421.3515625 c 5
 255.83203125 421.3515625 267.997070312 420 285.803710938 418.436523438 c 5
 286.865234375 424.678710938 287.368164062 430.6484375 287.368164062 436.311523438 c 4
 287.368164062 473.944335938 265.138671875 498 236.612304688 498 c 4
 207.256835938 498 191.428710938 477 191.428710938 453.1640625 c 4
 191.428710938 441.108398438 195.013671875 428.124023438 202.997070312 419 c 5
 124.997070312 379 l 5
 105.6875 404.20703125 97.953125 430.604492188 97.953125 458.407226562 c 4
 97.953125 534.13671875 150.052734375 596 236.612304688 596 c 4
 313.602539062 596 384.997070312 539.3359375 384.997070312 430 c 4
 384.997070312 398.735351562 377.997070312 357 365.997070312 318 c 5
 365.997070312 318 285.528320312 318 236.997070312 318 c 4
 180.997070312 318 135.997070312 273 135.997070312 217 c 4
 135.997070312 161 170.594726562 115 268.256835938 115 c 4
896.256835938 318 m 0
 840.256835938 318 795.256835938 273 795.256835938 217 c 0
 795.256835938 161 840.256835938 116 896.256835938 116 c 0
 931.549804688 116 962.826171875 131.385742188 982.918945312 155.436523438 c 1
 1069.25683594 93.0419921875 l 1
 1029.14648438 36.2998046875 966.7109375 0 896.256835938 0 c 0
 775.920898438 0 679.256835938 96.6640625 679.256835938 217 c 0
 679.256835938 330.947265625 775.940429688 421.3515625 896.256835938 421.3515625 c 1
 915.091796875 421.3515625 927.256835938 420 945.063476562 418.436523438 c 1
 946.125 424.678710938 946.627929688 430.6484375 946.627929688 436.311523438 c 0
 946.627929688 473.944335938 924.3984375 498 895.872070312 498 c 0
 866.516601562 498 850.688476562 477 850.688476562 453.1640625 c 0
 850.688476562 441.108398438 854.2734375 428.124023438 862.256835938 419 c 1
 784.256835938 379 l 1
 764.947265625 404.20703125 757.212890625 430.604492188 757.212890625 458.407226562 c 0
 757.212890625 534.13671875 809.3125 596 895.872070312 596 c 0
 972.862304688 596 1044.25683594 539.3359375 1044.25683594 430 c 0
 1044.25683594 398.735351562 1037.25683594 357 1025.25683594 318 c 1
 1025.25683594 318 944.788085938 318 896.256835938 318 c 0
1040.25683594 -54.5634765625 m 1
 1117.25683594 -106.563476562 l 1
 1071.34570312 -175.430664062 1016.58984375 -202.407226562 966.311523438 -202.407226562 c 0
 841.930664062 -202.407226562 772.119140625 -78.939453125 835.256835938 21.5380859375 c 1
 925.256835938 44.4365234375 l 1
 935.256835938 4 l 1
 905.953125 -29.796875 914.252929688 -97 966.311523438 -97 c 0
 990.942382812 -97 1017.765625 -85.0556640625 1040.25683594 -54.5634765625 c 1
433.256835938 489 m 5
 386.256835938 457 392.85546875 403.255859375 392.256835938 327.2265625 c 5
 392.256835938 -205 l 5
 288.256835938 -205 l 5
 288.256835938 -4 l 5
 285.881835938 416 l 5
 285.881835938 416 298.256835938 489 343.951171875 533.184570312 c 5
 346.416992188 535.82421875 416.498046875 613.930664062 491.051757812 613.930664062 c 5
 491.329101562 614.115234375 527.100585938 560.6484375 533.256835938 552 c 5
 521.6015625 545.444335938 517.7734375 532.885742188 517.7734375 516.64453125 c 4
 517.7734375 485.538085938 531.817382812 440.918945312 531.817382812 399.081054688 c 4
 531.817382812 342.80859375 491.256835938 278 387.256835938 298 c 5
 388.256835938 378 l 5
 430.520507812 374.158203125 447.848632812 389.5546875 447.848632812 418.328125 c 4
 447.848632812 442.663085938 437.698242188 471.303710938 433.256835938 489 c 5
EndSplineSet
Layer: 3
SplineSet
708.740234375 379 m 1
 689.430664063 404.20703125 681.696289062 430.604492188 681.696289062 458.407226562 c 0
 681.696289062 534.13671875 733.795898437 596 820.35546875 596 c 0
 897.345703125 596 968.740234375 539.3359375 968.740234375 430 c 0
 968.740234375 398.735351562 961.740234375 357 949.740234375 318 c 1
 949.740234375 318 869.271484375 318 820.740234375 318 c 0
 764.740234375 318 715.740234375 273 715.740234375 217 c 0
 715.740234375 161 754.337890625 112 852 112 c 0
 970.681640624 112 1025.62988281 174.814453125 1046 194 c 1
 1115 111 l 1
 1075.59082031 70.8330078125 978.283203124 0 852 0 c 0
 684.448242187 0 603.740234375 96.6640625 603.740234375 217 c 0
 603.740234375 330.947265625 700.423828125 421.3515625 820.740234375 421.3515625 c 1
 839.575195313 421.3515625 851.740234374 420 869.546875 418.436523438 c 1
 870.608398438 424.678710938 871.111328125 430.6484375 871.111328125 436.311523438 c 0
 871.111328125 473.944335938 848.881835938 498 820.35546875 498 c 0
 791 498 799.002691975 453.658105822 775.171875 453.1640625 c 1024
872 -205 m 1
 869.625 416 l 1
 869.625 416 882 489 927.694335938 533.184570312 c 1
 930.160156251 535.82421875 1000.24121094 613.930664062 1074.79492188 613.930664062 c 1
 1075.07226562 614.115234376 1110.84375 560.6484375 1117 552 c 1
 1105.34472656 545.444335938 1101.51660156 532.885742188 1101.51660156 516.64453125 c 0
 1101.51660156 485.538085938 1115.56054688 440.918945312 1115.56054688 399.081054688 c 0
 1115.56054688 349.94140625 1084.63085937 294.291992188 1007.53613281 294.291992188 c 0
 996.345703124 294.291992188 984.182617187 295.46484375 971 298 c 1
 972 378 l 1
 976.286132812 377.610351562 980.31640625 377.418945312 984.09765625 377.418945312 c 0
 1017.60058594 377.418945312 1031.59179688 392.47265625 1031.59179688 418.328125 c 0
 1031.59179688 442.663085938 1021.44140625 471.303710938 1017 489 c 1
 973.517578124 459 976.598632812 403.255859375 976 327.2265625 c 1
 976 -205 l 1
 872 -205 l 1
97.5078125 458.407226562 m 0
 97.5078125 534.13671875 149.607421875 596 236.166992188 596 c 0
 313.157226562 596 384.551757812 539.3359375 384.551757812 430 c 0
 384.551757812 398.735351562 377.551757812 357 365.551757812 318 c 1
 365.551757812 318 285.083007812 318 236.551757812 318 c 0
 180.551757812 318 135.551757812 273 135.551757812 217 c 0
 135.551757812 161 179.436531884 120.000120604 236.551757812 116 c 0
 377.704101562 106.114257812 434.966796875 199.377929688 449.436523438 218.458984375 c 1
 535.774414062 156.064453125 l 1
 515.436523438 127 435.346683013 -8.34464735957 236.551757812 0 c 0
 117.436523438 5 19.5517578125 96.6640625 19.5517578125 217 c 0
 19.5517578125 330.947265625 116.235351562 421.3515625 236.551757812 421.3515625 c 1
 255.38671875 421.3515625 267.551757812 420 285.358398438 418.436523438 c 1
 286.419921875 424.678710938 286.922851562 430.6484375 286.922851562 436.311523438 c 0
 286.922851562 473.944335938 264.693359375 498 236.166992188 498 c 0
 206.811523438 498 190.983398438 477 190.983398438 453.1640625 c 0
 190.983398438 441.108398438 194.568359375 428.124023438 202.551757812 419 c 1
 124.551757812 379 l 1
 105.2421875 404.20703125 97.5078125 430.604492188 97.5078125 458.407226562 c 0
432.811523438 489 m 1
 385.811523438 457 392.41015625 403.255859375 391.811523438 327.2265625 c 1
 391.811523438 -205 l 1
 287.811523438 -205 l 1
 287.811523438 -4 l 1
 285.436523438 416 l 1
 285.436523438 416 297.811523438 489 343.505859375 533.184570312 c 1
 345.971679688 535.82421875 416.052734375 613.930664062 490.606445312 613.930664062 c 1
 490.883789062 614.115234375 526.655273438 560.6484375 532.811523438 552 c 1
 468.811523438 516 640.811523438 299 386.811523438 285 c 1
 388.811523438 374 l 1
 476.811523438 378 442.161132812 451.747070312 432.811523438 489 c 1
EndSplineSet
EndChar

StartChar: si_U
Encoding: 9 3467 7
Width: 553
VWidth: 0
Flags: HW
LayerCount: 4
Fore
SplineSet
30 135 m 0
 30 295.01953125 112.569335938 423.3515625 319.03515625 423.3515625 c 0
 337.865234375 423.3515625 350.03515625 422 367.841796875 420.436523438 c 1
 368.903320312 426.678710938 369.40625 432.6484375 369.40625 438.311523438 c 0
 369.40625 475.944335938 347.176757812 500 318.650390625 500 c 0
 289.294921875 500 273.466796875 479 273.466796875 455.1640625 c 0
 273.466796875 442.755859375 276.983398438 429.390625 284.815429688 420 c 1
 207.03515625 381 l 1
 187.725585938 406.20703125 179.991210938 432.604492188 179.991210938 460.407226562 c 0
 179.991210938 536.13671875 232.090820312 598 318.650390625 598 c 0
 395.640625 598 467.03515625 541.3359375 467.03515625 432 c 0
 467.03515625 400.735351562 460.03515625 359 448.03515625 320 c 1
 448.03515625 320 367.56640625 320 319.03515625 320 c 0
 201 320 147 242.90625 147 135 c 0
 147 42.460144681 195.210461831 -36 301 -36 c 0
 376.1484375 -36 428.736328125 11.99609375 437.563476562 75 c 1
 551 59 l 1
 538.665039062 -55.1005859375 448.083984375 -152 301 -152 c 0
 114.837890625 -152 30 -20.3154296875 30 135 c 0
EndSplineSet
Layer: 2
SplineSet
319.03515625 318 m 4
 191.622070312 318 147 240.90625 147 133 c 4
 147 27.208984375 187 -38 301 -38 c 4
 376.1484375 -38 428.736328125 9.99609375 437.563476562 73 c 5
 551 57 l 5
 538.665039062 -57.1005859375 448.083984375 -154 301 -154 c 4
 114.837890625 -154 30 -22.3154296875 30 133 c 4
 30 293.01953125 112.569335938 421.3515625 319.03515625 421.3515625 c 5
 337.870117188 421.3515625 350.03515625 420 367.841796875 418.436523438 c 5
 368.903320312 424.678710938 369.40625 430.6484375 369.40625 436.311523438 c 4
 369.40625 473.944335938 347.176757812 498 318.650390625 498 c 4
 289.294921875 498 273.466796875 477 273.466796875 453.1640625 c 4
 273.466796875 441.108398438 277.051757812 428.124023438 285.03515625 419 c 5
 207.03515625 379 l 5
 187.725585938 404.20703125 179.991210938 430.604492188 179.991210938 458.407226562 c 4
 179.991210938 534.13671875 232.090820312 596 318.650390625 596 c 4
 395.640625 596 467.03515625 539.3359375 467.03515625 430 c 4
 467.03515625 398.735351562 460.03515625 357 448.03515625 318 c 5
 448.03515625 318 367.56640625 318 319.03515625 318 c 4
983 479 m 0
 847.212890625 479 815.220703125 352.634765625 815.220703125 208 c 0
 815.220703125 66 880.895507812 -38 987 -38 c 0
 1062.1484375 -38 1114.73632812 9.99609375 1123.56347656 73 c 1
 1237 57 l 1
 1224.66503906 -57.1005859375 1134.08398438 -154 987 -154 c 0
 790.895507812 -154 700.220703125 6 700.220703125 208 c 0
 700.220703125 403.26953125 753.922851562 594 983 594 c 0
 1161 594 1242 451 1242 332 c 0
 1242 195 1176 88 1054 88 c 0
 886 88 871 237.893554688 912 299.893554688 c 1
 907.407226562 299.893554688 875.314453125 299.893554688 869 299.893554688 c 1
 870 394.893554688 l 1
 1065 394.893554688 l 1
 1065 299.893554688 l 1
 1017 299.893554688 999.208007812 269.705078125 999.208007812 242.063476562 c 0
 999.208007812 218.723632812 1021.81542969 197.200195312 1052 197.200195312 c 0
 1104 197.200195312 1128 262 1128 332 c 0
 1128 427.025390625 1080 479 983 479 c 0
EndSplineSet
Layer: 3
SplineSet
319.03515625 320 m 4
 191.622070312 320 138.895507812 213.90625 138.895507812 106 c 4
 138.895507812 0.208984375 187 -89 301 -89 c 4
 376.1484375 -89 428.736328125 -41.00390625 437.563476562 22 c 5
 551 6 l 5
 538.665039062 -108.100585938 448.083984375 -205 301 -205 c 4
 114.837890625 -205 21.8955078125 -49.3154296875 21.8955078125 106 c 4
 21.8955078125 266.01953125 112.569335938 423.3515625 319.03515625 423.3515625 c 5
 337.870117188 423.3515625 350.03515625 422 367.841796875 420.436523438 c 5
 368.903320312 426.678710938 369.40625 432.6484375 369.40625 438.311523438 c 4
 369.40625 475.944335938 347.176757812 500 318.650390625 500 c 4
 289.294921875 500 273.466796875 479 273.466796875 455.1640625 c 4
 273.466796875 443.108398438 277.051757812 430.124023438 285.03515625 421 c 5
 207.03515625 381 l 5
 187.725585938 406.20703125 179.991210938 432.604492188 179.991210938 460.407226562 c 4
 179.991210938 536.13671875 232.090820312 598 318.650390625 598 c 4
 395.640625 598 467.03515625 541.3359375 467.03515625 432 c 4
 467.03515625 400.735351562 460.03515625 359 448.03515625 320 c 5
 448.03515625 320 367.56640625 320 319.03515625 320 c 4
EndSplineSet
EndChar

StartChar: si_Da
Encoding: 42 3503 8
Width: 410
VWidth: 0
Flags: HW
LayerCount: 4
Fore
SplineSet
22 217 m 4
 22 330.947265625 118.6796875 421.3515625 239 421.3515625 c 4
 257.830078125 421.3515625 270 420 287.806640625 418.436523438 c 5
 288.868164062 424.678710938 289.37109375 430.6484375 289.37109375 436.311523438 c 4
 289.37109375 473.944335938 267.141601562 498 238.615234375 498 c 4
 209.259765625 498 193.431640625 477 193.431640625 453.1640625 c 4
 193.431640625 440.755859375 196.948242188 427.390625 204.780273438 418 c 5
 127 379 l 5
 107.690429688 404.20703125 99.9560546875 430.604492188 99.9560546875 458.407226562 c 4
 99.9560546875 534.13671875 152.055664062 596 238.615234375 596 c 4
 315.60546875 596 387 539.3359375 387 430 c 4
 387 398.735351562 380 357 368 318 c 5
 368 318 287.53125 318 239 318 c 4
 183 318 134 274 134 217 c 28
 134 160 180.782178218 116 239 116 c 4
 274.29296875 116 305.569335938 131.385742188 325.662109375 155.436523438 c 5
 412 93.0419921875 l 5
 371.889648438 36.2998046875 309.454101562 0 239 0 c 4
 118.6640625 0 22 96.6640625 22 217 c 4
154.333856138 -57.9704260037 m 4
 154.333856138 -31.6057733374 161.779570223 -4.27516015061 178 21.5380859375 c 5
 268 44.4365234375 l 5
 278 4 l 5
 266.924678581 -8.77351030253 261.220860924 -26.3189626573 261.220860924 -43.2046091962 c 4
 261.220860924 -70.9959599628 276.671610602 -97 309.0546875 -97 c 4
 333.685546875 -97 360.508789062 -85.0556640625 383 -54.5634765625 c 5
 460 -106.563476562 l 5
 414.088867188 -175.430664062 359.333007812 -202.407226562 309.0546875 -202.407226562 c 4
 216.627971923 -202.407226562 154.333856138 -134.229651369 154.333856138 -57.9704260037 c 4
EndSplineSet
EndChar

StartChar: si_Halant
Encoding: 62 3530 9
Width: 162
VWidth: 0
Flags: HW
HStem: 493 233<-545 -476>
VStem: -545 69<493 726>
LayerCount: 4
Fore
SplineSet
25 819 m 1
 133 819 l 1
 133 459 l 1
 25 459 l 1
 25 819 l 1
EndSplineSet
EndChar

StartChar: si_DDha
Encoding: 460 -1 10
Width: 791
VWidth: 0
Flags: HMW
LayerCount: 4
Fore
SplineSet
34.7373046875 255 m 0
 34.7373046875 456.80078125 109.609375 527 201.109375 527 c 0
 270.428710938 527 308.258789062 470.580078125 316.737304688 430 c 1
 262.737304688 369 l 1
 257.94921875 385.5859375 244.239257812 423 205.737304688 423 c 0
 171.724609375 423 140.737304688 376.421875 140.737304688 255 c 0
 140.737304688 126.799804688 164.516601562 101.84375 197.737304688 101.84375 c 0
 197.737304688 -0.15625 l 0
 102.737304687 -0.15625 34.7373046875 41.419921875 34.7373046875 255 c 0
207.411132812 231.204101562 m 4
 207.411132812 277.470703125 213.672113542 319.594801178 221.5390625 345 c 4
 245.608398437 422.728515625 300.990234375 472 373.088867188 472 c 4
 400.85546875 472 429.88671875 465.063476562 458.260742188 445.2578125 c 5
 420.395507812 345 l 5
 406.547851562 352.989257812 393.877929688 356.607421875 382.532226562 356.607421875 c 4
 355.749023437 356.607421875 335.707593134 336.647383421 326.275390625 306 c 4
 321.843749999 291.600585938 318.358398438 261.723632812 318.358398438 229.770507812 c 4
 318.358398438 175.234375 328.51171875 114.65234375 361.44921875 114.65234375 c 4
 403.624999999 114.65234375 418.630859375 179.677734375 418.630859375 249.5 c 5
 514.541992188 249.5 l 5
 514.541992188 176.75 530.009765626 115 573 115 c 4
 629.755859375 115 629.755859375 239.958007812 629.755859375 293 c 4
 629.755859375 522.796875 586.755859375 639.884765625 448.755859375 639.884765625 c 4
 407.652343749 639.884765625 359.993164063 618.959960938 342.9375 576.85546875 c 5
 233.905273438 613.029296875 l 5
 269.889648437 707.868164062 362.035156249 755 448.755859375 755 c 4
 665.755859375 755 744.755859375 599.055664062 744.755859375 293 c 4
 744.755859375 181.99609375 743.755859375 0 573 0 c 4
 517.080078126 0 479.057617188 33.14453125 464.237304688 79.0302734375 c 5
 448.091796876 31.6025390625 408.6796875 0 356 0 c 4
 239.391601563 0 207.411132812 126.224609375 207.411132812 231.204101562 c 4
EndSplineSet
EndChar

StartChar: si_Va
Encoding: 55 3520 11
Width: 535
VWidth: 0
Flags: HW
LayerCount: 4
Fore
SplineSet
21.8115234375 218.826171875 m 4
 21.8115234375 279.354492188 41.7099609375 335.661132812 72.189453125 362 c 4
 93.208984375 380.1640625 121.286132812 391 157.887695312 391 c 4
 164.887695312 391 238.530273438 391 252 391 c 5
 281 363 325.944335938 306 325.944335938 306 c 5
 325.944335938 306 200.887695312 306 200.887695312 306 c 6
 144.887695312 306 132.487304688 270.6015625 132.487304688 226.6015625 c 4
 132.487304688 174 159.080078125 115 252 115 c 4
 356.452148438 115 398 195.017578125 398 354 c 4
 398 583 326.6796875 640 243.854492188 640 c 4
 202.750976562 640 162.666015625 618.959960938 145.610351562 576.85546875 c 5
 36.578125 613.029296875 l 5
 72.5625 707.868164062 157.133789062 755 243.854492188 755 c 4
 383.326171875 755 514 675.859375 514 354 c 4
 513 118 432 0 252 0 c 4
 74 0 21.8115234375 137 21.8115234375 218.826171875 c 4
61.5361328125 409.272460938 m 4
 61.5361328125 481.53515625 110.506835938 531.563476562 184.80859375 531.563476562 c 4
 261.794921875 531.563476562 333.193359375 474.899414062 333.193359375 365.563476562 c 4
 333.193359375 351 330 325 325.944335938 306 c 5
 235.564453125 371.875 l 5
 236.504987296 376.782574445 236.979352738 381.77029089 236.979352738 386.713601115 c 4
 236.979352738 416.143780956 220.16565861 444 184.80859375 444 c 4
 160.008789062 444 151.016601562 426.133789062 151.016601562 404.787109375 c 4
 151.016601562 386.79296875 163.301757812 370.325195312 172 356 c 5
 92 318.563476562 l 5
 72 351 61.5361328125 380.620117188 61.5361328125 409.272460938 c 4
EndSplineSet
EndChar

StartChar: si_I
Encoding: 7 3465 15
Width: 524
VWidth: 0
Flags: HW
LayerCount: 4
Fore
SplineSet
22.4984876113 354.12256084 m 0
 22.4984876113 475.952391512 105.065072261 594 246.098632812 594 c 0
 386.48046875 594 502 496 502 297.078125 c 0
 502 130 397.42578125 44.45703125 319 34 c 0
 254.855901786 25.4474535714 231 20 181.901367188 10.439453125 c 1
 180 106 l 1
 268 106 387 129 387 297.078125 c 0
 387 416 323.379882812 482 246.098632812 482 c 0
 159.622964289 482 118.004479442 430 118.004479442 375.000001671 c 0
 118.004479442 374.666757966 128 298.333007812 128 298 c 1
 126 212 l 1
 52.0986328125 233 l 1
 32.0491687044 270.814812052 22.4984876113 312.687435944 22.4984876113 354.12256084 c 0
37.11328125 298.48828125 m 0
 37.11328125 335.545898438 67.423828125 359.978515625 111 387 c 1
 131.460123785 419.224694962 167.860944166 433.396546232 204.14786583 433.396546232 c 0
 238.802688303 433.396546232 273.353627429 420.470857647 293.81640625 398 c 0
 317.63966767 371.838884702 332.098632812 336.970703125 332.098632812 298.48828125 c 0
 332.098632812 216.549804688 266.54296875 151 184.6015625 151 c 0
 102.663085938 151 37.11328125 216.549804688 37.11328125 298.48828125 c 0
139.140625 294.859375 m 0
 139.140625 270.4921875 158.633789062 251 183 251 c 0
 207.3671875 251 226.861328125 270.4921875 226.861328125 294.859375 c 0
 226.861328125 319.2265625 207.3671875 338.720703125 183 338.720703125 c 0
 158.633789062 338.720703125 139.140625 319.2265625 139.140625 294.859375 c 0
80.0546875 -109.563476562 m 1
 157.0546875 -57.5634765625 l 1
 179.740190531 -88.1525537282 204.05164431 -99.9253375518 224.940344138 -99.9253375518 c 0
 255.565813423 -99.9253375518 278.833984375 -74.6194335748 278.833984375 -46.205078125 c 0
 278.833984375 -22.3093976337 268.856403127 12.5681770114 209.505959704 12.5681770114 c 0
 201.286306069 12.5681770114 192.119658051 11.8992089626 181.901367188 10.439453125 c 1
 195 69 l 1
 305 54 l 1
 356 47.986328125 385.674804688 0 385.674804688 -50.5830078125 c 0
 385.674804688 -144.590496767 314.848759588 -203.81711117 235.823245341 -203.81711117 c 0
 180.838055468 -203.81711117 121.883304112 -175.144073552 80.0546875 -109.563476562 c 1
EndSplineSet
Layer: 2
SplineSet
170.901367188 11 m 1
 176.950195312 10.330078125 182.951171875 9.810546875 188.901367188 9.439453125 c 1
 363.4140625 -1.455078125 493.901367188 114.91796875 493.901367188 297.078125 c 0
 493.901367188 496 378.381835938 594 238 594 c 0
 49 594 -35 382 44 233 c 1
 89 285 l 1
 114 371 l 1
 114 426.325195312 151 480 238 480 c 0
 315.28125 480 378.901367188 416 378.901367188 297.078125 c 0
 378.901367188 176.528320312 296 101 187 114 c 0
 170.901367188 11 l 1
29.0146484375 298.48828125 m 0
 29.0146484375 216.549804688 94.564453125 151 176.502929688 151 c 0
 258.444335938 151 324 216.549804688 324 298.48828125 c 0
 324 336.970703125 309.541015625 371.838867188 285.717773438 398 c 0
 262.909179688 423.046875 228.567382812 437 195.227539062 437 c 0
 158.885742188 437 123.732421875 420.948242188 106 398 c 1
 62.423828125 370.978515625 29.0146484375 335.545898438 29.0146484375 298.48828125 c 0
131.041992188 294.859375 m 0
 131.041992188 319.2265625 150.53515625 338.720703125 174.901367188 338.720703125 c 0
 199.268554688 338.720703125 218.762695312 319.2265625 218.762695312 294.859375 c 0
 218.762695312 270.4921875 199.268554688 251 174.901367188 251 c 0
 150.53515625 251 131.041992188 270.4921875 131.041992188 294.859375 c 0
164.0546875 -58.5634765625 m 1
 87.0546875 -110.563476562 l 1
 189 -270.397460938 392.674804688 -211 392.674804688 -51.5830078125 c 0
 392.674804688 -14 363 46.986328125 312 53 c 1
 249.0546875 40.4365234375 l 1
 204 9 l 1
 288 21 285.833984375 -30.3193359375 285.833984375 -47.205078125 c 0
 285.833984375 -95 215.271484375 -128 164.0546875 -58.5634765625 c 1
EndSplineSet
Layer: 3
SplineSet
814.802734375 10.439453125 m 1
 829.901367188 23 841.911132812 31 855.901367188 31 c 1
 868.721679688 31 882.37109375 9.3671875 894.901367188 11.3408203125 c 0
 920.509765625 15.373046875 928.012695312 39.1455078125 953.901367188 44 c 0
 1049.90136719 62 1134.90136719 144.319335938 1134.90136719 297.078125 c 0
 1134.90136719 496 1019.38183594 594 879 594 c 0
 690 594 606 382 685 233 c 1
 730 285 l 1
 750.901367188 374 l 1
 750.901367188 429.325195312 792 482 879 482 c 0
 956.28125 482 1019.90136719 416 1019.90136719 297.078125 c 0
 1019.90136719 129 900.901367188 106 812.901367188 106 c 1
 814.802734375 10.439453125 l 1
670.014648438 298.48828125 m 0
 670.014648438 216.549804688 735.564453125 151 817.502929688 151 c 0
 899.444335938 151 965 216.549804688 965 298.48828125 c 0
 965 336.970703125 950.541015625 371.838867188 926.717773438 398 c 0
 884.828125 444 786.901367188 447 746.901367188 384 c 1
 703.325195312 356.978515625 670.014648438 335.545898438 670.014648438 298.48828125 c 0
772.041992188 294.859375 m 0
 772.041992188 319.2265625 791.53515625 338.720703125 815.901367188 338.720703125 c 0
 840.268554688 338.720703125 859.762695312 319.2265625 859.762695312 294.859375 c 0
 859.762695312 270.4921875 840.268554688 251 815.901367188 251 c 0
 791.53515625 251 772.041992188 270.4921875 772.041992188 294.859375 c 0
789.956054688 -57.5634765625 m 1
 712.956054688 -109.563476562 l 1
 814.901367188 -269.397460938 1018.57617188 -210 1018.57617188 -50.5830078125 c 0
 1018.57617188 0 988.901367188 47.986328125 937.901367188 54 c 1
 827.901367188 69 l 1
 814.802734375 10.439453125 l 1
 898.802734375 22.439453125 911.735351562 -19 911.735351562 -46.205078125 c 0
 911.735351562 -94 845.901367188 -133 789.956054688 -57.5634765625 c 1
34.615234375 298.48828125 m 0
 34.615234375 216.549804688 100.165039062 151 182.103515625 151 c 0
 264.044921875 151 329.600585938 216.549804688 329.600585938 298.48828125 c 0
 329.600585938 336.970703125 315.141601562 371.838867188 291.318359375 398 c 0
 268.509765625 423.046875 234.16796875 437 200.828125 437 c 0
 164.486328125 437 129.333007812 420.948242188 111.600585938 398 c 1
 68.0244140625 370.978515625 34.615234375 335.545898438 34.615234375 298.48828125 c 0
130.8359375 298.48828125 m 0
 130.8359375 325.829101562 152.70703125 347.702148438 180.046875 347.702148438 c 0
 207.38671875 347.702148438 229.259765625 325.829101562 229.259765625 298.48828125 c 0
 229.259765625 271.1484375 207.38671875 249.27734375 180.046875 249.27734375 c 0
 152.70703125 249.27734375 130.8359375 271.1484375 130.8359375 298.48828125 c 0
49.6005859375 233 m 1
 94.6005859375 285 l 1
 119.600585938 371 l 1
 119.600585938 426.325195312 156.600585938 480 243.600585938 480 c 0
 320.881835938 480 384.501953125 416 384.501953125 297.078125 c 0
 384.501953125 176.528320312 301.600585938 101 192.600585938 114 c 0
 150.600585938 13 l 1
 341.600585938 -13 499.501953125 86.609375 499.501953125 297.078125 c 0
 499.501953125 496 383.982421875 594 243.600585938 594 c 0
 54.6005859375 594 -29.3994140625 382 49.6005859375 233 c 1
169.655273438 -58.5634765625 m 1
 92.6552734375 -110.563476562 l 1
 194.600585938 -270.397460938 398.275390625 -211 398.275390625 -51.5830078125 c 0
 398.275390625 -14 368.600585938 46.986328125 317.600585938 53 c 1
 254.655273438 40.4365234375 l 1
 209.600585938 9 l 1
 293.600585938 21 291.434570312 -30.3193359375 291.434570312 -47.205078125 c 0
 291.434570312 -95 220.872070312 -128 169.655273438 -58.5634765625 c 1
EndSplineSet
EndChar

StartChar: si_Ii
Encoding: 8 3466 16
Width: 502
VWidth: 0
Flags: HW
LayerCount: 4
Fore
SplineSet
110 731 m 0
 110 763 136 789 168 789 c 0
 200 789 226 763 226 731 c 0
 226 699 200 673 168 673 c 0
 136 673 110 699 110 731 c 0
413 659 m 0
 413 691 439 717 471 717 c 0
 503 717 529 691 529 659 c 0
 529 627 503 601 471 601 c 0
 439 601 413 627 413 659 c 0
EndSplineSet
Refer: 58 3515 N 1 0 0 1 0 0 2
EndChar

StartChar: si_vocalicR
Encoding: 11 3469 18
Width: 880
VWidth: 0
Flags: HW
LayerCount: 4
Fore
SplineSet
139.780273438 207 m 0
 139.780273438 157.264648438 153.96875 115 189.262695312 115 c 0
 235.962890625 115 251.893554688 176.75 251.893554688 249.5 c 1
 343.106445312 249.5 l 1
 343.106445312 176.75 359.037109375 115 405.737304688 115 c 0
 441.03125 115 455.219726562 157.264648438 455.219726562 207 c 0
 455.219726562 258.725585938 435.446289062 318 394.981445312 318 c 2
 200.018554688 318 l 2
 159.446289062 318 139.780273438 258.725585938 139.780273438 207 c 0
32.7802734375 207 m 0
 32.7802734375 278.352539062 47.91015625 332.731445312 81.7373046875 368.23828125 c 0
 105.826171875 393.5234375 141.737304688 416 182.737304688 416 c 2
 412.262695312 416 l 2
 453.262695312 416 489.173828125 393.5234375 513.262695312 368.23828125 c 0
 547.08984375 332.731445312 562.219726562 278.352539062 562.219726562 207 c 0
 562.219726562 95.095703125 517.350585938 0 405.737304688 0 c 0
 353.057617188 0 313.645507812 31.6025390625 297.5 79.0302734375 c 1
 281.354492188 31.6025390625 241.942382812 0 189.262695312 0 c 0
 77.6494140625 0 32.7802734375 95.095703125 32.7802734375 207 c 0
58.16796875 456.407226562 m 0
 58.16796875 532.13671875 110.267578125 594 196.827148438 594 c 0
 259.645507812 594 318.737931459 556.277058229 338.364257812 483 c 0
 339.615286819 478.329144961 340.1796875 473.071047507 340.1796875 467.353515625 c 0
 340.1796875 425.62457443 310.110935901 359.422394782 297.5 318.436523438 c 1
 251 416 l 17
 252.061523438 422.2421875 252.564453125 428.678710937 252.564453125 434.341796875 c 0
 252.564453125 481.030273438 223.73828125 496 201 496 c 0
 165.856445312 496 151.643554688 475 151.643554688 451.1640625 c 0
 151.643554688 439.108398438 158.279296875 419.560546876 166.262695312 410.436523438 c 1
 89.5537109375 369.030273438 l 1
 69.4157909494 394.649624076 58.16796875 428.149714062 58.16796875 456.407226562 c 0
254.8203125 467.353515625 m 0
 254.8203125 473.071289062 255.384765625 478.329101562 256.635742188 483 c 0
 276.26171875 556.27734375 335.354492188 594 398.172851562 594 c 0
 484.732421875 594 536.83203125 532.13671875 536.83203125 456.407226562 c 0
 536.83203125 428.149414062 525.583984375 394.649414062 505.446289062 369.030273438 c 1
 428.737304688 410.436523438 l 1
 436.720703125 419.560546875 443.356445312 439.108398438 443.356445312 451.1640625 c 0
 443.356445312 475 429.143554688 496 394 496 c 0
 371.26171875 496 342.435546875 481.030273438 342.435546875 434.341796875 c 0
 342.435546875 428.678710938 342.938476562 422.2421875 344 416 c 9
 297.5 318.436523438 l 1
 284.888671875 359.422851562 254.8203125 425.625 254.8203125 467.353515625 c 0
EndSplineSet
Refer: 71 3544 N 1 0 0 1 545.446 0 2
EndChar

StartChar: si_vocalicL
Encoding: 13 3471 20
Width: 940
VWidth: 0
Flags: HW
LayerCount: 4
Fore
SplineSet
801.525390625 280 m 0
 801.525390625 424.437253524 768.109718305 479.84375 731.432617188 479.84375 c 0
 692.930723578 479.84375 679.220628026 442.4296875 674.432617188 425.84375 c 1
 620.432617188 486.84375 l 1
 628.911132812 527.423828125 666.741210938 583.84375 736.060546875 583.84375 c 0
 827.560807832 583.84375 902.432617188 506.41796875 902.432617188 283.84375 c 0
 902.432617188 46.1201171875 810.525390625 7.3725747729e-018 739.432617188 -0.15625 c 0
 739.432617188 82 l 0
 789.643637155 82 801.525390625 114.263392857 801.525390625 280 c 0
122 280 m 0
 122 114.263392857 133.88175347 82 184.092773438 82 c 0
 184.092773438 -0.15625 l 0
 113 0 21.0927734375 46.1201171875 21.0927734375 283.84375 c 0
 21.0927734375 506.41796875 95.9645827931 583.84375 187.46484375 583.84375 c 0
 256.784179687 583.84375 294.614257813 527.423828125 303.092773438 486.84375 c 1
 249.092773438 425.84375 l 1
 244.304762599 442.4296875 230.594667047 479.84375 192.092773438 479.84375 c 0
 155.41567232 479.84375 122 424.437253524 122 280 c 0
419.083984375 467.353515625 m 0
 419.083984375 473.071289062 419.648403073 478.329110783 420.899414062 483 c 0
 440.525390625 556.27734375 499.618164062 594 562.436523438 594 c 0
 648.99609375 594 701.095703125 532.13671875 701.095703125 456.407226562 c 0
 701.095703125 428.149414062 689.84765625 394.649414062 669.709960938 369.030273438 c 1
 593.000976562 410.436523438 l 1
 600.984375 419.560546875 607.620117188 439.108398438 607.620117188 451.1640625 c 0
 607.620117188 475 593.407226562 496 558.263671875 496 c 0
 535.525390625 496 506.69921875 481.030273438 506.69921875 434.341796875 c 0
 506.69921875 428.678710938 507.202148438 422.2421875 508.263671875 416 c 0
 461.763671875 318.436523438 l 1
 449.15234375 359.422851562 419.083984375 425.625 419.083984375 467.353515625 c 0
222.431640625 456.407226562 m 0
 222.431640625 532.13671875 274.53125 594 361.090820312 594 c 0
 423.909179688 594 483.002493226 556.277488404 502.627929688 483 c 0
 503.87890625 478.329101562 504.443359375 473.071289062 504.443359375 467.353515625 c 0
 504.443359375 425.625 474.375 359.422851562 461.763671875 318.436523438 c 1
 415.263671875 416 l 0
 416.325195312 422.2421875 416.828125 428.678710938 416.828125 434.341796875 c 0
 416.828125 481.030273438 388.001953125 496 365.263671875 496 c 0
 330.120117188 496 315.907226562 475 315.907226562 451.1640625 c 0
 315.907226562 439.108398438 322.54296875 419.560546875 330.526367188 410.436523438 c 1
 253.817382812 369.030273438 l 1
 233.6796875 394.649414062 222.431640625 428.149414062 222.431640625 456.407226562 c 0
304.04296875 224 m 0
 304.04296875 144.037109375 382.754882812 104.166992188 461.540039062 104.166992188 c 0
 540.473632812 104.166992188 619.482421875 144.186523438 619.482421875 224 c 0
 619.482421875 275.725585938 592.04296875 318 537.04296875 318 c 2
 386.482421875 318 l 2
 331.482421875 318 304.04296875 275.725585938 304.04296875 224 c 0
197.04296875 224 m 0
 197.04296875 329.65234375 258.099609375 416 380.482421875 416 c 2
 543.04296875 416 l 2
 665.42578125 416 726.484375 329.65234375 726.484375 224 c 0
 726.484375 202.666015625 724.055664062 182.776367188 719.52734375 164.33203125 c 1
 701.52734375 152 698.52734375 132 701.52734375 116.268554688 c 1
 657.009765625 30.5908203125 559.38671875 -12.2490234375 461.763671875 -12.2490234375 c 0
 364.140625 -12.2490234375 266.517578125 30.5908203125 222 116.268554688 c 1
 225 132 222 152 204 164.33203125 c 1
 199.471679688 182.776367188 197.04296875 202.666015625 197.04296875 224 c 0
703.525390625 129.615234375 m 0
 703.525390625 107.364257812 721.158203125 89.4404296875 743.046875 89.4404296875 c 0
 764.935546875 89.4404296875 782.568359375 107.364257812 782.568359375 129.615234375 c 0
 782.568359375 151.865234375 764.935546875 169.790039062 743.046875 169.790039062 c 0
 721.158203125 169.790039062 703.525390625 151.865234375 703.525390625 129.615234375 c 0
614.043945312 130 m 0
 614.043945312 202 672.043945312 260 735.525390625 260 c 0
 819.525390625 260 850.525390625 176 850.525390625 130 c 0
 850.525390625 58 803.018554688 0 744.043945312 0 c 0
 672.043945312 0 614.043945312 58 614.043945312 130 c 0
140.95703125 129.615234375 m 0
 140.95703125 107.364257812 158.58984375 89.4404296875 180.478515625 89.4404296875 c 0
 202.3671875 89.4404296875 220 107.364257812 220 129.615234375 c 0
 220 151.865234375 202.3671875 169.790039062 180.478515625 169.790039062 c 0
 158.58984375 169.790039062 140.95703125 151.865234375 140.95703125 129.615234375 c 0
73 130 m 0
 73 176 104 260 188 260 c 0
 251.481445312 260 309.481445312 202 309.481445312 130 c 0
 309.481445312 58 251.481445312 0 179.481445312 0 c 0
 120.506835938 0 73 58 73 130 c 0
EndSplineSet
EndChar

StartChar: si_E
Encoding: 15 3473 22
Width: 542
VWidth: 0
Flags: HW
LayerCount: 4
Fore
SplineSet
231.732421875 611.133789062 m 0
 231.732421875 667.848632812 272.940429688 688.157226562 272.940429688 709.823242188 c 0
 272.940429688 716.953125 268.478515625 724.23046875 256.616210938 733 c 1
 362.942382812 755 l 1
 343.720703125 647 l 17
 327.341796875 639.98046875 317.720703125 621.141601562 317.720703125 605 c 0
 317.720703125 585.998046875 335.732421875 559.627929688 376.942382812 548.854492188 c 0
 381.276367188 547.721679688 385.8671875 546.76171875 390.720703125 546 c 1
 474.942382812 524 l 1
 407.616210938 461 l 1
 393.821289062 461.400390625 379.374023438 463.6796875 364.942382812 467.640625 c 0
 298.171875 485.969726562 231.732421875 540.30859375 231.732421875 611.133789062 c 0
28.1204340289 200.595777954 m 0
 28.1204340289 243.270370971 40.4984220711 281.648937762 58.76171875 306 c 1
 22 306 l 1
 22 393 l 1
 286.866210938 390 l 1
 320.706054688 306 l 1
 213.76171875 306 l 2
 156.9765625 306 136.743164062 261.911132812 136.743164062 214.068359375 c 0
 136.743164062 166.573242188 166.077148438 115 246.76171875 115 c 0
 351.213867188 115 405.76171875 181.017578125 405.76171875 340 c 0
 405.76171875 415.912109375 404.375976562 484.646484375 388.458984375 545 c 1
 382.708984375 578.997070312 364.706054688 627.989257812 342.637695312 648 c 1
 321.138671875 682.765625 291.071289062 712.203125 256.616210938 733 c 1
 328.616210938 817 l 1
 466.616210938 726 520.76171875 555.741210938 520.76171875 340 c 0
 520.76171875 104 426.76171875 0 246.76171875 0 c 0
 83.1154289466 0 28.1204340289 112.889505744 28.1204340289 200.595777954 c 0
56.2978515625 409.272460938 m 0
 56.2978515625 481.53515625 105.268554688 531.563476562 179.5703125 531.563476562 c 0
 256.556640625 531.563476562 327.955078125 474.899414062 327.955078125 365.563476562 c 0
 327.955078125 351 324.76171875 325 320.706054688 306 c 1
 230.326171875 371.875 l 1
 231.266706046 376.782574445 231.741071488 381.77029089 231.741071488 386.713601115 c 0
 231.741071488 416.143780956 214.92737736 444 179.5703125 444 c 0
 154.770507812 444 145.778320312 426.133789062 145.778320312 404.787109375 c 0
 145.778320312 386.79296875 158.063476562 370.325195312 166.76171875 356 c 1
 86.76171875 318.563476562 l 1
 66.76171875 351 56.2978515625 380.620117188 56.2978515625 409.272460938 c 0
EndSplineSet
EndChar

StartChar: si_Ee
Encoding: 16 3474 23
Width: 573
VWidth: 0
Flags: HW
LayerCount: 4
Fore
SplineSet
404 819 m 1
 512 819 l 1
 512 459 l 1
 404 459 l 1
 404 819 l 1
EndSplineSet
Refer: 22 3473 N 1 0 0 1 0 0 2
EndChar

StartChar: si_Os
Encoding: 18 3476 25
Width: 578
VWidth: 0
Flags: HW
LayerCount: 4
Fore
SplineSet
22 253 m 0
 22 389 55 527 170.287109375 527 c 0
 234.287109375 527 274 481 275 438 c 9
 193 413 l 17
 193 423.39 183 429 176 429 c 0
 140.287109375 429 128.672851562 348 128.672851562 265.912109375 c 0
 128.672851562 203 133.93359375 114.65234375 174.44921875 114.65234375 c 0
 216.625 114.65234375 231.630859375 179.677734375 231.630859375 249.5 c 1
 327.541992188 249.5 l 1
 327.541992188 176.75 343.009765625 115 386 115 c 0
 442.755859375 115 442.755859375 239.958007812 442.755859375 293 c 0
 442.755859375 522.796875 399.755859375 639.884765625 261.755859375 639.884765625 c 0
 220.65234375 639.884765625 172.993164062 618.959960938 155.9375 576.85546875 c 1
 46.9052734375 613.029296875 l 1
 82.8896484375 707.868164062 175.03515625 755 261.755859375 755 c 0
 478.755859375 755 557.755859375 599.055664062 557.755859375 293 c 0
 557.755859375 181.99609375 556.755859375 0 386 0 c 0
 330.080078125 0 292.057617188 33.14453125 277.237304688 79.0302734375 c 1
 261.091796875 31.6025390625 221.6796875 0 169 0 c 0
 56 0 22 115 22 253 c 0
190.059216686 374.955570289 m 0
 190.059216686 387.012544214 193 403 193 413 c 1
 275 438 l 1
 275 424 273.013056404 412.297363103 273.013056404 402.626914927 c 0
 273.013056404 374.977884842 278.664268508 364 292 364 c 0
 302.823242188 364 309 374 309 404.020507812 c 0
 309 425.854492188 306.391601562 446.864257812 290 446.864257812 c 0
 283 446.864257812 276 445 271 438 c 1
 230 498 l 1
 242 513 260.225585938 526 293.225585938 526 c 0
 353.225585938 526 384 479.905273438 384 404 c 0
 384 326.905273438 368 275 287 275 c 0
 214.473314875 275 190.059216686 316.839128919 190.059216686 374.955570289 c 0
EndSplineSet
Layer: 2
SplineSet
174.44921875 114.65234375 m 4
 216.625 114.65234375 231.630859375 179.677734375 231.630859375 249.5 c 5
 327.541992188 249.5 l 5
 327.541992188 176.75 343.009765625 115 386 115 c 4
 442.755859375 115 442.755859375 239.958007812 442.755859375 293 c 4
 442.755859375 522.796875 399.755859375 639.884765625 261.755859375 639.884765625 c 4
 220.65234375 639.884765625 172.993164062 618.959960938 155.9375 576.85546875 c 5
 46.9052734375 613.029296875 l 5
 82.8896484375 707.868164062 175.03515625 755 261.755859375 755 c 4
 478.755859375 755 557.755859375 599.055664062 557.755859375 293 c 4
 557.755859375 181.99609375 556.755859375 0 386 0 c 4
 330.080078125 0 292.057617188 33.14453125 277.237304688 79.0302734375 c 5
 261.091796875 31.6025390625 221.6796875 0 169 0 c 4
 56 0 22 115 22 253 c 4
 22 389 55 527 170.287109375 527 c 4
 234.287109375 527 274 481 275 438 c 4
 193 413 l 4
 192.655273438 423.387695312 183.1953125 429 172.287109375 429 c 4
 140.287109375 429 128.672851562 348 128.672851562 265.912109375 c 4
 128.672851562 203 133.93359375 114.65234375 174.44921875 114.65234375 c 4
271 438 m 5
 230 498 l 5
 242 513 260.225585938 526 293.225585938 526 c 4
 353.225585938 526 384 479.905273438 384 404 c 4
 384 326.905273438 368 275 287 275 c 4
 199.426757812 275 182 336 193 413 c 5
 275 438 l 5
 270 384 274 364 292 364 c 4
 302.823242188 364 309 374 309 404.020507812 c 4
 309 425.854492188 306.391601562 446.864257812 290 446.864257812 c 4
 283 446.864257812 276 445 271 438 c 5
EndSplineSet
Layer: 3
SplineSet
268 436 m 1
 230 498 l 1
 242 513 256 526 289 526 c 0
 349 526 379 469.645507812 379 412.094726562 c 0
 379 347.137695312 368 275 282 275 c 0
 194.426757812 275 181 346 186.706054688 412.546875 c 1
 275 438 l 1
 272 399 267 364 288 364 c 0
 303 364 305.141601562 382.995117188 305.141601562 404.020507812 c 0
 305.141601562 425.854492188 302.166015625 446.864257812 285.774414062 446.864257812 c 0
 280.619140625 446.864257812 273 444 268 436 c 1
128.672851562 265.912109375 m 0
 128.672851562 202 133 115 172.515625 115 c 0
 219.215820312 115 231.390625 176.75 231.390625 249.5 c 1
 327.301757812 249.5 l 1
 327.301757812 176.75 340.64453125 115 383.634765625 115 c 0
 435.846679688 115 442 239.959960938 442 293 c 0
 442 522.796875 378.34765625 639.884765625 253.42578125 639.884765625 c 0
 212.322265625 639.884765625 172.237304688 618.959960938 155.181640625 576.85546875 c 1
 46.1494140625 613.029296875 l 1
 82.1337890625 707.868164062 166.705078125 755 253.42578125 755 c 0
 454.208984375 755 556.515625 599.055664062 556.515625 293 c 0
 556.515625 181.99609375 545.515625 0 387.759765625 0 c 0
 331.83984375 0 291.817382812 33.14453125 276.997070312 79.0302734375 c 1
 260.8515625 31.6025390625 217.6796875 0 165 0 c 0
 53 0 22 115 22 253 c 0
 22 389 66.287109375 527 170.287109375 527 c 0
 234.287109375 527 274 481 275 438 c 0
 186.706054688 412.546875 l 0
 186.361328125 422.934570312 183.1953125 429 172.287109375 429 c 0
 140.287109375 429 128.672851562 348 128.672851562 265.912109375 c 0
EndSplineSet
EndChar

StartChar: si_Oo
Encoding: 19 3477 26
Width: 578
VWidth: 0
Flags: HW
LayerCount: 4
Fore
SplineSet
557 293 m 4
 556.515625 181.99609375 545.515625 0 387.759765625 0 c 4
 331.83984375 0 291.817382812 33.14453125 276.997070312 79.0302734375 c 5
 260.8515625 31.6025390625 217.6796875 0 165 0 c 4
 53 0 22 115 22 253 c 4
 22 389 66.287109375 527 170.287109375 527 c 4
 234.287109375 527 274 481 275 438 c 4
 186.706054688 412.546875 l 4
 186.361328125 422.934570312 183.1953125 429 172.287109375 429 c 4
 140.287109375 429 128.672851562 348 128.672851562 265.912109375 c 4
 128.672851562 202 133 115 172.515625 115 c 4
 219.215820312 115 231.390625 176.75 231.390625 249.5 c 5
 327.301757812 249.5 l 5
 327.301757812 176.75 340.64453125 115 383.634765625 115 c 4
 435.846679688 115 442 239.959960938 442 293 c 4
 442 527 350.321289062 581 229.809570312 581 c 4
 192.267578125 581 140.053710938 564.03125 110.809570312 538 c 5
 47.8095703125 620 l 5
 115.809570312 684 194.809570312 690.975585938 245.809570312 690.975585938 c 4
 435.098632812 690.975585938 557 587 557 293 c 4
387.244140625 565 m 5
 354.244140625 607 l 5
 374.116210938 648 l 5
 400.244140625 655 412.116210938 676.732421875 412.116210938 701 c 4
 412.116210938 733.87890625 376.134765625 771 273.571289062 771 c 4
 189.625 771 165.830078125 747.772460938 165.830078125 724.96484375 c 4
 165.830078125 705.181640625 174.809570312 697 186.809570312 682 c 5
 182.809570312 649 l 5
 99.8095703125 656 l 5
 72.8095703125 680 58.806640625 713.359375 58.806640625 743.688476562 c 4
 58.806640625 811.694335938 120.020507812 871 273.571289062 871 c 4
 437.504882812 871 527.116210938 790.408203125 527.116210938 701 c 4
 527.116210938 607 437.896484375 565 387.244140625 565 c 5
266 440 m 5
 230 498 l 5
 242 513 256 526 289 526 c 4
 349 526 379 469.645507812 379 412.094726562 c 4
 379 347.137695312 368 275 282 275 c 4
 194.426757812 275 181 346 186.706054688 412.546875 c 5
 275 438 l 5
 272 399 270 364 288 364 c 4
 298.823242188 364 305.141601562 382.995117188 305.141601562 404.020507812 c 4
 305.141601562 425.854492188 302.166015625 446.864257812 285.774414062 446.864257812 c 4
 280.619140625 446.864257812 272 446 266 440 c 5
EndSplineSet
EndChar

StartChar: si_Ka
Encoding: 21 3482 28
Width: 696
VWidth: 0
Flags: HW
LayerCount: 4
Fore
SplineSet
23.6279296875 126 m 1
 63 214 l 1
 108.627929688 206 l 1
 114.627929688 197 122.087890625 191.751953125 122.087890625 156 c 0
 122.087890625 138.591796875 123.720703125 109 147 109 c 0
 165.657226562 109 182 119 182 160 c 2
 182 227 l 1
 272 227 l 1
 272 160 l 2
 272 122 284 109 310 109 c 0
 345 109 350.087890625 165.987304688 350.087890625 210 c 0
 350.087890625 335.987304688 270 364 219 346 c 1
 292 426 l 1
 314.44140625 437 457.087890625 431 457.087890625 210 c 0
 457.087890625 112.106445312 417.04296875 0 311.04296875 0 c 0
 272.04296875 0 237.04296875 29 227.627929688 52 c 1
 219.04296875 31 188.04296875 0 151.627929688 0 c 0
 -5.3720703125 0 87.16796875 165 23.6279296875 126 c 1
441.087890625 585 m 4
 558.715820312 585 668.715820312 486 668.715820312 263 c 4
 668.715820312 58 595.599609375 0 492 0 c 4
 416.0859375 0 387.28515625 58.021484375 378 94 c 5
 446 158 l 5
 447 134 450.372070312 103 492 103 c 4
 535.102539062 103 557.715820312 137 557.715820312 263 c 4
 557.715820312 399.940429688 505.940429688 473.229492188 431.359375 473.229492188 c 4
 378.359375 473.229492188 350.578125 457.000976562 311 416 c 4
 308.690429688 413.607421875 200.241210938 290.752929688 116.255859375 206 c 4
 70.6416015625 159.96875 26.6044921875 128.701171875 23.6279296875 126 c 13
 19.6279296875 232 l 5
 83.6376953125 297.920898438 163.551757812 405.911132812 239.087890625 489 c 4
 289.141601562 544.05859375 351.087890625 585 441.087890625 585 c 4
151.615234375 594 m 0
 228.60546875 594 300 537.3359375 300 428 c 0
 300 396.735351562 289.087890625 389.899414062 264.087890625 369.899414062 c 1
 200.806640625 416.436523438 l 0
 201.868164062 422.678710938 202.37109375 428.6484375 202.37109375 434.311523438 c 0
 202.37109375 471.944335938 178.526367188 496 150 496 c 0
 122.166015625 496 108.575195312 475.012695312 108.575195312 451.903320312 c 0
 108.575195312 411.899414062 135.798828125 394.899414062 165.798828125 387.899414062 c 1
 106.087890625 327.899414062 l 1
 60.798828125 344.899414062 16 391.899414062 16 461.536132812 c 0
 16 532.131835938 64 594 151.615234375 594 c 0
EndSplineSet
Layer: 2
SplineSet
157.615234375 594 m 0
 234.60546875 594 306 537.3359375 306 428 c 0
 306 396.735351562 295.087890625 389.899414062 270.087890625 369.899414062 c 1
 206.806640625 416.436523438 l 0
 207.868164062 422.678710938 208.37109375 428.6484375 208.37109375 434.311523438 c 0
 208.37109375 471.944335938 184.526367188 496 156 496 c 0
 128.166015625 496 114.575195312 475.012695312 114.575195312 451.903320312 c 0
 114.575195312 411.899414062 141.798828125 394.899414062 171.798828125 387.899414062 c 1
 112.087890625 327.899414062 l 1
 66.798828125 344.899414062 22 391.899414062 22 461.536132812 c 0
 22 532.131835938 70 594 157.615234375 594 c 0
317.04296875 0 m 0
 278.04296875 0 243.04296875 29 233.627929688 52 c 1
 225.04296875 31 194.04296875 0 150 0 c 0
 43.1767578125 0 34.087890625 100 58.087890625 146 c 1
 158.087890625 249 l 1
 131.087890625 227.963867188 128.087890625 191.751953125 128.087890625 156 c 0
 128.087890625 138.591796875 129.720703125 109 153 109 c 0
 171.657226562 109 188 119 188 160 c 0
 188 176.21875 188 202.995117188 188 227 c 1
 278 227 l 1
 278 202.2265625 278 176.891601562 278 160 c 0
 278 122 290 109 316 109 c 0
 351 109 356.087890625 165.987304688 356.087890625 210 c 0
 356.087890625 335.987304688 291.087890625 370 240.087890625 352 c 1
 313.087890625 432 l 1
 335.529296875 443 463.087890625 431 463.087890625 210 c 0
 463.087890625 112.106445312 423.04296875 0 317.04296875 0 c 0
437.359005852 473.229756406 m 0
 387.773034036 473.229756406 354.196938468 454.532316728 317 416 c 0
 313.435546875 412.307617188 37.5458984375 122.674804688 29.087890625 115 c 1
 26.087890625 249 l 17
 93.087890625 318 77.1484375 298.06640625 137.087890625 364 c 0
 157.087890625 386 245.087890625 489 245.087890625 489 c 0
 294.087890625 545 357.087890625 585 447.087890625 585 c 0
 564.715820312 585 674.715820312 486 674.715820312 263 c 0
 674.715820312 58 601.599609375 0 498 0 c 0
 422.0859375 0 393.28515625 58.021484375 384 94 c 1
 452 158 l 1
 453 134 456.372070312 103 498 103 c 0
 541.102539062 103 563.715820312 137 563.715820312 263 c 0
 563.715820312 399.940392566 511.940461916 473.229756406 437.359005852 473.229756406 c 0
EndSplineSet
Layer: 3
SplineSet
921.615234375 594 m 0
 998.60546875 594 1070 537.3359375 1070 428 c 0
 1070 396.735351562 1059.08789062 389.899414062 1034.08789062 369.899414062 c 1
 970.806640625 416.436523438 l 0
 971.868164062 422.678710938 972.37109375 428.6484375 972.37109375 434.311523438 c 0
 972.37109375 471.944335938 948.526367188 496 920 496 c 0
 892.166015625 496 878.575195312 475.012695312 878.575195312 451.903320312 c 0
 878.575195312 411.899414062 905.798828125 394.899414062 935.798828125 387.899414062 c 1
 876.087890625 327.899414062 l 1
 830.798828125 344.899414062 786 391.899414062 786 461.536132812 c 0
 786 532.131835938 834 594 921.615234375 594 c 0
1081.04296875 0 m 0
 1042.04296875 0 1007.04296875 29 997.627929688 52 c 1
 989.04296875 31 958.04296875 0 914 0 c 0
 807.176757812 0 798.087890625 100 822.087890625 146 c 1
 833 214 l 1
 922.087890625 249 l 1
 895.087890625 227.963867188 892.087890625 191.751953125 892.087890625 156 c 0
 892.087890625 138.591796875 893.720703125 109 917 109 c 0
 935.657226562 109 952 119 952 160 c 0
 952 176.21875 952 202.995117188 952 227 c 1
 1042 227 l 1
 1042 202.2265625 1042 176.891601562 1042 160 c 0
 1042 122 1054 109 1080 109 c 0
 1115 109 1120.08789062 165.987304688 1120.08789062 210 c 0
 1120.08789062 335.987304688 1040 364 989 346 c 1
 1062 426 l 1
 1084.44140625 437 1227.08789062 431 1227.08789062 210 c 0
 1227.08789062 112.106445312 1187.04296875 0 1081.04296875 0 c 0
1200 473 m 0
 1147 473 1120.57910156 457 1081 416 c 0
 1077.43554688 412.307617188 801.545898438 122.674804688 793.087890625 115 c 1
 790.087890625 249 l 17
 857.087890625 318 841.1484375 298.06640625 901.087890625 364 c 0
 921.087890625 386 1009.08789062 489 1009.08789062 489 c 0
 1058.08789062 545 1110 585 1200 585 c 0
 1330 585 1438.71582031 490 1438.71582031 267 c 0
 1438.71582031 70 1361.31542969 0 1257.71582031 0 c 0
 1181.80175781 0 1140.37304688 50.021484375 1131.08789062 86 c 1
 1196.08789062 158 l 1
 1201.26464844 141.4140625 1216.08789062 105 1257.71582031 105 c 0
 1300.81835938 105 1327.71582031 157 1327.71582031 267 c 0
 1327.71582031 399 1282 473 1200 473 c 0
157.615234375 592.100585938 m 0
 234.60546875 592.100585938 306 535.436523438 306 426.100585938 c 0
 306 394.8359375 295.087890625 388 270.087890625 368 c 1
 206.806640625 414.537109375 l 0
 207.868164062 420.779296875 208.37109375 426.749023438 208.37109375 432.412109375 c 0
 208.37109375 470.044921875 184.526367188 494.100585938 156 494.100585938 c 0
 128.166015625 494.100585938 114.575195312 473.11328125 114.575195312 450.00390625 c 0
 114.575195312 410 141.798828125 393 171.798828125 386 c 1
 112.087890625 326 l 1
 66.798828125 343 22 390 22 459.63671875 c 0
 22 530.232421875 70 592.100585938 157.615234375 592.100585938 c 0
322.130859375 0 m 0
 283.130859375 0 248.130859375 29 238.715820312 52 c 1
 230.130859375 31 199.130859375 0 155.087890625 0 c 0
 48.2646484375 0 34.087890625 100 58.087890625 146 c 1
 158.087890625 249 l 1
 131.087890625 227.963867188 128.087890625 191.751953125 128.087890625 156 c 0
 128.087890625 138.591796875 134.80859375 109 158.087890625 109 c 0
 176.745117188 109 193.087890625 119 193.087890625 160 c 0
 193.087890625 176.21875 193.087890625 202.995117188 193.087890625 227 c 1
 283.087890625 227 l 1
 283.087890625 202.2265625 283.087890625 176.891601562 283.087890625 160 c 0
 283.087890625 122 295.087890625 109 321.087890625 109 c 0
 356.087890625 109 356.087890625 165.987304688 356.087890625 210 c 0
 356.087890625 335.987304688 291.087890625 370 240.087890625 352 c 1
 313.087890625 432 l 1
 335.529296875 443 463.087890625 431 463.087890625 210 c 0
 463.087890625 112.106445312 428.130859375 0 322.130859375 0 c 0
447.087890625 482 m 0
 413.89453125 482 374.853515625 473.506835938 326.087890625 423 c 0
 322.5234375 419.307617188 37.5458984375 122.674804688 29.087890625 115 c 1
 26.087890625 249 l 17
 93.087890625 318 77.1484375 298.06640625 137.087890625 364 c 0
 157.087890625 386 245.087890625 489 245.087890625 489 c 0
 294.087890625 545 357.087890625 594 447.087890625 594 c 0
 564.715820312 594 674.715820312 502 674.715820312 279 c 0
 674.715820312 56.42578125 597.315429688 0 493.715820312 0 c 0
 417.801757812 0 376.373046875 50.021484375 367.087890625 86 c 1
 432.087890625 158 l 1
 437.264648438 141.4140625 452.087890625 108 493.715820312 108 c 0
 536.818359375 108 563.715820312 137.340820312 563.715820312 279 c 0
 563.715820312 411 508.715820312 482 447.087890625 482 c 0
EndSplineSet
EndChar

StartChar: si_Kha
Encoding: 22 3483 29
Width: 575
VWidth: 0
Flags: HW
LayerCount: 4
Fore
SplineSet
554.240234375 293 m 0
 553.755859375 181.99609375 537.125 0 396.125 0 c 0
 334 0 306 42 294 74 c 1
 272 152 l 5
 332 226 l 1
 332 158 354 131.5390625 381.081054688 131.5390625 c 0
 408.35546875 131.5390625 439.240234375 171.640625 439.240234375 293 c 0
 439.240234375 522.796875 396.240234375 639.884765625 258.240234375 639.884765625 c 0
 217.13671875 639.884765625 169.477539062 618.959960938 152.421875 576.85546875 c 1
 43.3896484375 613.029296875 l 1
 79.3740234375 707.868164062 171.51953125 755 258.240234375 755 c 0
 475.240234375 755 554.240234375 599.055664062 554.240234375 293 c 0
22 220 m 0
 22 425.889648438 98 488.874023438 202.185546875 488.874023438 c 0
 309.69140625 488.874023438 371.125 430 371.125 324 c 0
 371.125 271.69921875 354.646484375 232.284179688 331 191 c 0
 321.641601562 174.66015625 306.268554688 142.71484375 304 124 c 0
 296.578125 62.76953125 298.651367188 -17.8662109375 305 -75 c 1
 198 -75 l 1
 190 -22 186.686523438 82.8408203125 205 173 c 0
 218 237 259.125 264 259.125 324 c 0
 259.125 354 243.69140625 376.432617188 201 376.432617188 c 0
 161.172851562 376.432617188 129 339.788085938 129 220 c 0
 129 128 150 106 171 106 c 0
 191 106 208 120 224 156 c 1
 280 73 l 1
 228 28 174 -12.5088395126 116.099045319 9.0000035562 c 0
 50.4241035518 33.3967000147 22 106.67227705 22 220 c 0
EndSplineSet
Layer: 2
SplineSet
554.240234375 293 m 4
 554.240234375 599.055664062 475.240234375 755 258.240234375 755 c 4
 171.51953125 755 79.3740234375 707.868164062 43.3896484375 613.029296875 c 5
 152.421875 576.85546875 l 5
 169.477539062 618.959960938 217.13671875 639.884765625 258.240234375 639.884765625 c 4
 396.240234375 639.884765625 439.240234375 522.796875 439.240234375 293 c 4
 439.240234375 171.640625 408.35546875 131.5390625 381.081054688 131.5390625 c 4
 354 131.5390625 332 158 332 226 c 5
 272 152 l 5
 294 74 l 5
 306 42 334 0 396.125 0 c 4
 537.125 0 553.755859375 181.99609375 554.240234375 293 c 4
304 124 m 4
 306.268554688 142.71484375 321.641601562 174.66015625 331 191 c 4
 354.646484375 232.284179688 371.125 271.69921875 371.125 324 c 4
 371.125 430 309.69140625 488.874023438 202.185546875 488.874023438 c 4
 98 488.874023438 22 425.889648438 22 220 c 4
 22 79 66 0 171 0 c 4
 223.478515625 0 251 28 280 73 c 5
 224 156 l 5
 208 120 191 110 171 110 c 4
 150 110 132 128 132 220 c 4
 132 339.788085938 161.172851562 376.432617188 201 376.432617188 c 4
 243.69140625 376.432617188 259.125 354 259.125 324 c 4
 259.125 264 218 237 205 173 c 4
 186.686523438 82.8408203125 190 -22 198 -75 c 5
 305 -75 l 5
 298.651367188 -17.8662109375 296.578125 62.76953125 304 124 c 4
991.875 249.5 m 1
 1087.78613281 249.5 l 1
 1087.78613281 176.75 1103.25390625 115 1146.24414062 115 c 0
 1203 115 1203 239.958007812 1203 293 c 0
 1203 522.796875 1160 639.884765625 1022 639.884765625 c 0
 980.896484375 639.884765625 933.237304688 618.959960938 916.181640625 576.85546875 c 1
 807.149414062 613.029296875 l 1
 843.133789062 707.868164062 935.279296875 755 1022 755 c 0
 1239 755 1318 599.055664062 1318 293 c 0
 1318 181.99609375 1317 0 1146.24414062 0 c 0
 1090.32421875 0 1052.30175781 33.14453125 1037.48144531 79.0302734375 c 1
 1021.3359375 31.6025390625 981.923828125 0 929.244140625 0 c 0
 813.444335938 0 784.76171875 105.454101562 784.76171875 193.436523438 c 0
 784.76171875 234.737304688 796.244140625 280.436523438 810.244140625 306 c 1
 779 306 l 1
 779 391 l 1
 1068.24414062 388 l 1
 1102.08398438 304 l 1
 952 304.436523438 l 1
 911.244140625 304.436523438 891.76171875 245.162109375 891.76171875 193.436523438 c 0
 891.76171875 156.328125 897.435546875 114.65234375 934.693359375 114.65234375 c 0
 976.869140625 114.65234375 991.875 179.677734375 991.875 249.5 c 1
927.15625 402.787109375 m 0
 927.15625 389.465820312 931.672851562 375.438476562 940.581054688 364.3203125 c 1
 864.870117188 326.3203125 l 1
 843.84375 354.120117188 834.581054688 383.978515625 834.581054688 412.419921875 c 0
 834.581054688 484.68359375 886.646484375 529.563476562 960.948242188 529.563476562 c 0
 1037.93457031 529.563476562 1109.33300781 472.899414062 1109.33300781 363.563476562 c 0
 1109.33300781 349 1106.13964844 323 1102.08398438 304 c 1
 1102.08398438 304 1010.63867188 364.313476562 1011.70410156 369.875 c 0
 1018.24414062 404 1002.24414062 442 960.948242188 442 c 0
 936.1484375 442 927.15625 424.133789062 927.15625 402.787109375 c 0
-489 58 m 1
 -477 26 -449 -16 -386.875 -16 c 0
 -245.875 -16 -229.244140625 165.99609375 -229.244140625 277 c 0
 -229.244140625 583.055664062 -331.55078125 739 -532.333984375 739 c 0
 -619.0546875 739 -703.625976562 691.868164062 -739.610351562 597.029296875 c 1
 -630.578125 560.85546875 l 1
 -613.522460938 602.959960938 -573.4375 623.884765625 -532.333984375 623.884765625 c 0
 -407.412109375 623.884765625 -343.759765625 506.796875 -343.759765625 277 c 0
 -343.759765625 155.640625 -374.64453125 115.5390625 -401.918945312 115.5390625 c 0
 -429 115.5390625 -451 142 -451 210 c 1
 -511 136 l 1
 -489 58 l 1
-473 138 m 24
 -457.483398438 197 -411.875 235 -411.875 308 c 0
 -411.875 414 -473.30859375 472.874023438 -580.814453125 472.874023438 c 0
 -685 472.874023438 -761 409.889648438 -761 204 c 0
 -761 63 -717 -16 -612 -16 c 0
 -559.521484375 -16 -532 12 -503 57 c 1
 -559 140 l 1
 -575 104 -592 94 -612 94 c 0
 -633 94 -651 112 -651 204 c 0
 -651 323.788085938 -621.827148438 360.432617188 -582 360.432617188 c 0
 -539.30859375 360.432617188 -523.875 338 -523.875 308 c 0
 -523.875 248 -576 220 -589 156 c 0
 -607.313476562 65.8408203125 -592 -42 -587 -96 c 1
 -476 -89 l 1
 -482.348632812 -31.8662109375 -489.364257812 78.5322265625 -473 138 c 24
EndSplineSet
Layer: 3
SplineSet
294 74 m 5
 306 42 334 0 396.125 0 c 4
 537.125 0 553.755859375 181.99609375 553.755859375 293 c 4
 553.755859375 599.055664062 451.44921875 755 250.666015625 755 c 4
 163.9453125 755 79.3740234375 707.868164062 43.3896484375 613.029296875 c 5
 152.421875 576.85546875 l 5
 169.477539062 618.959960938 209.5625 639.884765625 250.666015625 639.884765625 c 4
 375.587890625 639.884765625 439.240234375 522.796875 439.240234375 293 c 4
 439.240234375 171.640625 408.35546875 131.5390625 381.081054688 131.5390625 c 4
 354 131.5390625 332 158 332 226 c 5
 272 152 l 5
 294 74 l 5
304 124 m 4
 306.268554688 142.71484375 321.641601562 174.66015625 331 191 c 4
 354.646484375 232.284179688 371.125 271.699514269 371.125 324 c 4
 371.125 430 309.69140625 488.874023438 202.185546875 488.874023438 c 4
 98 488.874023438 22 425.889648438 22 220 c 4
 22 79 66 0 171 0 c 4
 223.478515625 0 251 28 280 73 c 5
 224 156 l 5
 208 120 191 110 171 110 c 4
 150 110 132 128 132 220 c 4
 132 339.788085938 161.172851562 376.432617188 201 376.432617188 c 4
 243.69140625 376.432617188 259.125 354 259.125 324 c 4
 259.125 264 218 237 205 173 c 4
 186.686523438 82.8408203125 190 -22 198 -75 c 5
 305 -75 l 5
 298.651367188 -17.8662109375 296.578125 62.76953125 304 124 c 4
EndSplineSet
EndChar

StartChar: si_Ga
Encoding: 23 3484 30
Width: 706
VWidth: 0
Flags: HW
LayerCount: 4
Fore
SplineSet
215.627929688 300.15625 m 5
 262.854537226 330.126981707 265.022144269 362.443336493 265.022144269 392.095587899 c 4
 265.022144269 398.567756444 265.216346736 404.868856066 265.595826845 411.000009532 c 4
 272.906295458 529.113196538 348.976692065 584.15625 430 584.15625 c 4
 536.999023438 584.15625 635 526.53125 635 292.15625 c 4
 635 69.58203125 550.227539062 0.15625 446.627929688 0.15625 c 4
 370.713867188 0.15625 329.28515625 50.177734375 320 86.15625 c 5
 385 158.15625 l 5
 390.176757812 141.5703125 405 106.15625 446.627929688 106.15625 c 4
 489.73046875 106.15625 526 150.497070312 526 292.15625 c 4
 526 439.703125 479.584960938 477.15625 430 477.15625 c 4
 384.725728108 477.15625 370.469771739 447.256490908 367.593357152 389.000028542 c 4
 367.178087377 380.58950659 367 371.58794934 367 362 c 4
 367 286.15625 322 254 262 220 c 5
 215.627929688 300.15625 l 5
21 292 m 4
 21 514.57421875 105.772460938 584 209.372070312 584 c 4
 285.286132812 584 326.71484375 533.978515625 336 498 c 5
 271 426 l 5
 265.823242188 442.5859375 251 478 209.372070312 478 c 4
 166.26953125 478 130 433.659179688 130 292 c 4
 130 144.453125 176.415039062 107 226 107 c 4
 287 107 305.627929688 146.15625 305.627929688 184.15625 c 4
 305.627929688 219.15625 289.890625 231.250976562 277.627929688 236.15625 c 5
 340.627929688 306.15625 l 5
 376.627929688 294.44921875 407.627929688 243.15625 407.627929688 189.15625 c 4
 407.627929688 94.73046875 356.560546875 0 226 0 c 4
 119.000976562 0 21 57.625 21 292 c 4
EndSplineSet
Layer: 2
SplineSet
243.372070312 105.84375 m 0
 193.787109375 105.84375 144.372070312 144.296875 144.372070312 291.84375 c 0
 144.372070312 408 183.641601562 479.84375 226.744140625 479.84375 c 0
 268.372070312 479.84375 283.1953125 442.4296875 288.372070312 425.84375 c 1
 353.372070312 497.84375 l 1
 344.086914062 533.822265625 302.658203125 583.84375 226.744140625 583.84375 c 0
 123.14453125 583.84375 38.3720703125 514.41796875 38.3720703125 291.84375 c 0
 38.3720703125 57.46875 136.373046875 -0.15625 243.372070312 -0.15625 c 0
 373.932617188 -0.15625 425 94.57421875 425 189 c 0
 425 243 394 294.29296875 358 306 c 1
 295 236 l 1
 307.262695312 231.094726562 323 219 323 184 c 0
 323 146 304.372070312 105.84375 243.372070312 105.84375 c 0
456 584 m 0
 376.092773438 584 282.372070312 526.84375 282.372070312 400.84375 c 0
 282.372070312 368.84375 285 333 233 300 c 1
 279.372070312 219.84375 l 1
 339.372070312 253.84375 384.372070312 286 384.372070312 361.84375 c 0
 384.372070312 437.84375 404.189453125 478 456 478 c 0
 502 478 545.372070312 433 545.372070312 292 c 0
 545.372070312 150.340820312 506.579272633 104 464 104 c 0
 418 104 402 133 394 149 c 1
 337.372070312 86 l 1
 346.657226562 50.021484375 388.0859375 0 464 0 c 0
 567.599609375 0 652.372070312 69.42578125 652.372070312 292 c 0
 652.372070312 508 555 584 456 584 c 0
EndSplineSet
Layer: 3
SplineSet
1124 106 m 0
 1074.41503906 106 1025 136.453125 1025 284 c 0
 1025 425.659179688 1064.26953125 480 1107.37207031 480 c 0
 1149 480 1163.82324219 442.5859375 1169 426 c 1
 1234 498 l 1
 1224.71484375 533.978515625 1183.28613281 584 1107.37207031 584 c 0
 1003.77246094 584 919 506.57421875 919 284 c 0
 919 49.625 1017.00097656 0 1124 0 c 0
 1254.56054688 0 1307.9921875 104.57421875 1307.9921875 199 c 0
 1307.9921875 255.70703125 1284 330 1214 350 c 1
 1147 280 l 1
 1159.26269531 275.094726562 1205 249 1205 199 c 0
 1205 155.278320312 1185 106 1124 106 c 0
1327.90722656 0.15625 m 0
 1434.90625 0.15625 1532.90722656 51.625 1532.90722656 286 c 0
 1532.90722656 520.375 1434.90625 584 1327.90722656 584 c 0
 1248 584 1163 527 1163 401 c 0
 1163 369 1159 344 1107 311 c 1
 1160 220 l 1
 1220 254 1265 306.241210938 1265 362 c 0
 1265 438 1280.49511719 478 1327.90722656 478 c 1
 1377.4921875 478 1426.90722656 433.546875 1426.90722656 286 c 0
 1426.90722656 136.084960938 1377.48730469 104 1327.90722656 104 c 1
 1286.27929688 104 1271.45605469 141.5703125 1266.27929688 158.15625 c 1
 1201.27929688 86.15625 l 1
 1210.56445312 50.1787109375 1251.99316406 0.15625 1327.90722656 0.15625 c 0
423 0 m 0
 529.944335938 0 603 51.4970703125 603 286 c 0
 603 481 540 584 422.907226562 584 c 0
 217 584 310.907226562 389.15625 183.907226562 242.15625 c 1
 253.907226562 187.15625 l 1
 387.838867188 270.983398438 304 478 422.907226562 478 c 0
 471 478 497 393 497 288 c 0
 497 135.55859375 464 107 422.907226562 107 c 1
 381.279296875 107 366.456054688 141.239257812 361.279296875 158.15625 c 1
 296.279296875 86.15625 l 1
 305.571289062 50.11328125 347.030273438 0 423 0 c 0
219 106 m 0
 173.421875 106 128 136.453125 128 284 c 0
 128 425.659179688 163.456054688 480 202.372070312 480 c 0
 244 480 258.823242188 442.5859375 264 426 c 1
 329 498 l 1
 319.71484375 533.978515625 278.286132812 584 202.372070312 584 c 0
 103.171875 584 22 506.57421875 22 284 c 0
 22 49.625 116.176757812 0 219 0 c 0
 349.560546875 0 402.9921875 104.57421875 402.9921875 199 c 0
 402.9921875 255.70703125 379 330 309 350 c 1
 242 280 l 1
 254.262695312 275.094726562 300 249 300 199 c 0
 300 155.278320312 280 106 219 106 c 0
EndSplineSet
EndChar

StartChar: si_Gha
Encoding: 24 3485 31
Width: 588
VWidth: 0
Flags: HW
LayerCount: 4
Fore
SplineSet
61.2119140625 461.536132812 m 0
 61.2119140625 532.131835938 109.211914063 594 196.827148438 594 c 0
 259.645507812 594 318.738869277 556.277309405 338.364257812 483 c 0
 339.615234375 478.329101563 340.1796875 473.071289062 340.1796875 467.353515625 c 0
 340.1796875 425.624999999 310.111328125 359.422851562 297.5 318.436523438 c 1
 251 416 l 0
 252.061523438 422.252507366 252.564453125 428.669348468 252.564453125 434.341796875 c 0
 252.564453125 481.030273438 223.73828125 496 201 496 c 0
 168.958089195 496 154.057617188 474.292687532 154.057617188 450.72265625 c 0
 154.057617188 437.756455854 158.566733589 424.22656227 167.211914062 413.436523438 c 1
 91.5009765625 375.436523438 l 1
 70.474609375 403.236328125 61.2119140625 433.094726562 61.2119140625 461.536132812 c 0
254.8203125 467.353515625 m 0
 254.8203125 473.071047507 255.384548733 478.329189009 256.635742188 483 c 0
 276.264648438 556.276367188 335.354492188 594 398.172851562 594 c 0
 484.732421875 594 536.83203125 532.13671875 536.83203125 456.407226562 c 0
 536.83203125 428.149714062 525.584209051 394.649624076 505.446289062 369.030273438 c 1
 428.737304688 410.436523438 l 1
 436.720703125 419.560546876 443.356445312 439.108398438 443.356445312 451.1640625 c 0
 443.356445312 475 429.143554688 496 394 496 c 0
 371.26171875 496 342.435546875 481.030273438 342.435546875 434.341796875 c 0
 342.435546875 428.678710937 342.938476562 422.272460937 344 416.030273438 c 0
 297.5 318.436523438 l 1
 284.889064099 359.422394782 254.8203125 425.62457443 254.8203125 467.353515625 c 0
139.780273438 207 m 0
 139.780273438 157.264648438 147.206054688 115 182.5 115 c 0
 195.566666667 115 199.051111111 123.058628472 199.051111111 135.414398148 c 0
 199.051111111 149.535277778 194.5 169.26875 194.5 189 c 0
 194.5 236.994140625 226.5 258 297.5 258 c 0
 368.5 258 400.5 236.994140625 400.5 189 c 0
 400.5 169.26875 395.948888889 149.535277778 395.948888889 135.414398148 c 0
 395.948888889 123.058628472 399.433333333 115 412.5 115 c 0
 447.793945312 115 455.219726562 157.264648438 455.219726562 207 c 0
 455.219726562 258.725585938 435.262695312 318 394.981445312 318 c 2
 200.018554688 318 l 2
 159.262695312 318 139.780273438 258.08984375 139.780273438 207 c 0
32.7802734375 207 m 0
 32.7802734375 248.30078125 44.2626953125 294 58.2626953125 319.563476562 c 1
 17.4462890625 319.666992188 l 1
 17.4462890625 416 l 1
 412.262695312 416 l 2
 453.262695312 416 489.173750193 393.523363255 513.262695312 368.23828125 c 0
 547.08984375 332.731445312 562.219726562 278.352539062 562.219726562 207 c 0
 562.219726562 95.095703125 524.11328125 0 412.5 0 c 0
 346.025390625 0 313.5 54 313.5 94 c 0
 313.5 125 319.5 141.673828125 319.5 158 c 0
 319.5 171.092773438 314.5 180 297.5 180 c 0
 280.5 180 275.5 171.092773438 275.5 158 c 0
 275.5 141.673828125 281.5 125 281.5 94 c 0
 281.5 54 248.974609375 0 182.5 0 c 0
 70.88671875 0 32.7802734375 95.095703125 32.7802734375 207 c 0
EndSplineSet
Layer: 3
SplineSet
562.219726562 207 m 0
 562.219726562 95.095703125 524.11328125 0 412.5 0 c 0
 346.025390625 0 313.5 54 313.5 94 c 0
 313.5 125 319.5 141.673828125 319.5 158 c 0
 319.5 171.092773438 314.5 180 297.5 180 c 1
 297.5 258 l 1
 368.5 258 400.5 236.994140625 400.5 189 c 0
 400.5 152.00390625 384.5 115 412.5 115 c 0
 447.793945312 115 455.219726562 157.264648438 455.219726562 207 c 0
 455.219726562 258.725585938 435.262695312 318 394.981445312 318 c 2
 200.018554688 318 l 2
 159.262695312 318 139.780273438 258.08984375 139.780273438 207 c 0
 139.780273438 157.264648438 147.206054688 115 182.5 115 c 0
 210.5 115 194.5 152.00390625 194.5 189 c 0
 194.5 236.994140625 226.5 258 297.5 258 c 1
 297.5 180 l 1
 280.5 180 275.5 171.092773438 275.5 158 c 0
 275.5 141.673828125 281.5 125 281.5 94 c 0
 281.5 54 248.974609375 0 182.5 0 c 0
 70.88671875 0 32.7802734375 95.095703125 32.7802734375 207 c 0
 32.7802734375 248.30078125 44.2626953125 294 58.2626953125 319.563476562 c 1
 17.4462890625 319.666992188 l 1
 17.4462890625 416 l 1
 253.018554688 416 l 1
 348.018554688 416 l 1
 412.262695312 416 l 2
 453.262695312 416 489.173828125 393.5234375 513.262695312 368.23828125 c 0
 547.08984375 332.731445312 562.219726562 278.352539062 562.219726562 207 c 0
356.262695312 391.436523438 m 1
 266.262695312 319.436523438 l 1
 254.262695312 358.436523438 247.313476562 396.735351562 247.313476562 428 c 0
 247.313476562 537.3359375 318.708007812 594 395.698242188 594 c 0
 482.2578125 594 534.357421875 532.13671875 534.357421875 456.407226562 c 0
 534.357421875 428.604492188 523.572265625 395.643554688 504.262695312 370.436523438 c 1
 426.262695312 410.436523438 l 1
 434.24609375 419.560546875 440.881835938 439.108398438 440.881835938 451.1640625 c 0
 440.881835938 475 425.053710938 496 395.698242188 496 c 0
 367.171875 496 344.942382812 471.944335938 344.942382812 434.311523438 c 0
 344.942382812 428.6484375 345.4453125 422.2421875 346.506835938 416 c 1
 356.262695312 391.436523438 l 1
196.827148438 594 m 0
 273.817382812 594 345.211914062 537.3359375 345.211914062 428 c 0
 345.211914062 396.735351562 338.262695312 357.436523438 326.262695312 318.436523438 c 1
 246.018554688 416 l 0
 247.080078125 422.2421875 247.583007812 428.6484375 247.583007812 434.311523438 c 0
 247.583007812 471.944335938 223.73828125 496 195.211914062 496 c 0
 151.33203125 496 142.8515625 443.840820312 167.211914062 413.436523438 c 1
 91.5009765625 375.436523438 l 1
 70.474609375 403.236328125 61.2119140625 433.094726562 61.2119140625 461.536132812 c 0
 61.2119140625 532.131835938 109.211914062 594 196.827148438 594 c 0
EndSplineSet
EndChar

StartChar: si_Nga
Encoding: 25 3486 32
Width: 574
VWidth: 0
Flags: HW
LayerCount: 4
Fore
SplineSet
-18.650390625 411.650390625 m 4
 -18.650390625 476.809570312 33.83984375 529.299804688 99 529.299804688 c 4
 164.159179688 529.299804688 216.649414062 476.809570312 216.649414062 411.650390625 c 4
 216.649414062 346.490234375 164.159179688 294 99 294 c 4
 33.83984375 294 -18.650390625 346.490234375 -18.650390625 411.650390625 c 4
60.3349609375 411.301757812 m 4
 60.3349609375 389.05078125 77.9677734375 371.126953125 99.8564453125 371.126953125 c 4
 121.745117188 371.126953125 139.377929688 389.05078125 139.377929688 411.301757812 c 4
 139.377929688 433.551757812 121.745117188 451.4765625 99.8564453125 451.4765625 c 4
 77.9677734375 451.4765625 60.3349609375 433.551757812 60.3349609375 411.301757812 c 4
60.3349609375 411.301757812 m 1
 -19 420 l 1
 -8 527 90 551.563476562 173 551.563476562 c 0
 261.502852184 551.563476562 395.279468659 540 395.279468659 416.011048383 c 0
 395.279468659 344.387165664 333.266581598 282.553252561 246 310 c 0
 180.617310747 330.56391033 132.517578125 292.290771861 132.517578125 193.436523438 c 0
 132.517578125 156.328125 138.19140625 114.65234375 175.44921875 114.65234375 c 0
 217.625 114.65234375 232.630859375 179.677734375 232.630859375 249.5 c 1
 328.541992188 249.5 l 1
 328.541992188 176.75 344.009765625 115 387 115 c 0
 443.755859375 115 443.755859375 239.958007812 443.755859375 293 c 0
 443.755859375 522.796875 400.755859375 639.884765625 262.755859375 639.884765625 c 0
 221.65234375 639.884765625 173.993164062 618.959960938 156.9375 576.85546875 c 1
 47.9052734375 613.029296875 l 1
 83.8896484375 707.868164062 176.03515625 755 262.755859375 755 c 0
 479.755859375 755 558.755859375 599.055664062 558.755859375 293 c 0
 558.755859375 181.99609375 557.755859375 0 387 0 c 0
 331.080078125 0 293.057617188 33.14453125 278.237304688 79.0302734375 c 1
 262.091796875 31.6025390625 222.6796875 0 170 0 c 0
 54.2001953125 0 25.517578125 105.454101562 25.517578125 193.436523438 c 0
 25.517578125 384 178 408 263 389 c 0
 285.511780465 383.967954955 299.927958257 403.646905793 299.927958257 421.369327546 c 0
 299.927958257 466.966655319 237.237824304 472.548007613 185 464 c 1
 126 464 60.3349609375 460 60.3349609375 411.301757812 c 1
EndSplineSet
Layer: 3
SplineSet
-18.650390625 411.650390625 m 4
 -18.650390625 476.809570312 33.83984375 529.299804688 99 529.299804688 c 4
 164.159179688 529.299804688 216.649414062 476.809570312 216.649414062 411.650390625 c 4
 216.649414062 346.490234375 164.159179688 294 99 294 c 4
 33.83984375 294 -18.650390625 346.490234375 -18.650390625 411.650390625 c 4
60.3349609375 411.301757812 m 4
 60.3349609375 389.05078125 77.9677734375 371.126953125 99.8564453125 371.126953125 c 4
 121.745117188 371.126953125 139.377929688 389.05078125 139.377929688 411.301757812 c 4
 139.377929688 433.551757812 121.745117188 451.4765625 99.8564453125 451.4765625 c 4
 77.9677734375 451.4765625 60.3349609375 433.551757812 60.3349609375 411.301757812 c 4
60.3349609375 411.301757812 m 5
 -19 420 l 5
 -8 527 90 551.563476562 173 551.563476562 c 4
 261.502852184 551.563476562 395.279468659 540 395.279468659 416.011048383 c 4
 395.279468659 344.387165664 333.266581598 282.553252561 246 310 c 4
 180.617310747 330.56391033 132.517578125 292.290771861 132.517578125 193.436523438 c 4
 132.517578125 156.328125 138.19140625 114.65234375 175.44921875 114.65234375 c 4
 217.625 114.65234375 232.630859375 179.677734375 232.630859375 249.5 c 5
 328.541992188 249.5 l 5
 328.541992188 176.75 344.009765625 115 387 115 c 4
 443.755859375 115 443.755859375 239.958007812 443.755859375 293 c 4
 443.755859375 522.796875 400.755859375 639.884765625 262.755859375 639.884765625 c 4
 221.65234375 639.884765625 173.993164062 618.959960938 156.9375 576.85546875 c 5
 47.9052734375 613.029296875 l 5
 83.8896484375 707.868164062 176.03515625 755 262.755859375 755 c 4
 479.755859375 755 558.755859375 599.055664062 558.755859375 293 c 4
 558.755859375 181.99609375 557.755859375 0 387 0 c 4
 331.080078125 0 293.057617188 33.14453125 278.237304688 79.0302734375 c 5
 262.091796875 31.6025390625 222.6796875 0 170 0 c 4
 54.2001953125 0 25.517578125 105.454101562 25.517578125 193.436523438 c 4
 25.517578125 384 178 408 263 389 c 4
 285.511780465 383.967954955 299.927958257 403.646905793 299.927958257 421.369327546 c 4
 299.927958257 466.966655319 237.237824304 472.548007613 185 464 c 5
 126 464 60.3349609375 460 60.3349609375 411.301757812 c 5
EndSplineSet
EndChar

StartChar: si_Nnga
Encoding: 26 3487 33
Width: 829
VWidth: 0
Flags: HW
LayerCount: 4
Fore
SplineSet
387.627929688 301.15625 m 1
 434.854492188 331.126953125 437.022460938 363.443359375 437.022460938 393.095703125 c 0
 437.022460938 399.567382812 437.216796875 405.869140625 437.595703125 412 c 0
 444.90625 530.11328125 520.9765625 585.15625 602 585.15625 c 0
 708.999023438 585.15625 807 527.53125 807 293.15625 c 0
 807 70.58203125 722.227539062 1.15625 618.627929688 1.15625 c 0
 542.713867188 1.15625 501.28515625 51.177734375 492 87.15625 c 1
 557 159.15625 l 1
 562.176757812 142.5703125 577 107.15625 618.627929688 107.15625 c 0
 661.73046875 107.15625 698 151.497070312 698 293.15625 c 0
 698 440.703125 651.584960938 478.15625 602 478.15625 c 0
 556.725585938 478.15625 542.469726562 448.256835938 539.59375 390 c 0
 539.177734375 381.58984375 539 372.587890625 539 363 c 0
 539 287.15625 494 255 434 221 c 1
 387.627929688 301.15625 l 1
193 293 m 0
 193 515.57421875 277.772460938 585 381.372070312 585 c 0
 457.286132812 585 498.71484375 534.978515625 508 499 c 1
 443 427 l 1
 437.823242188 443.5859375 423 479 381.372070312 479 c 0
 338.26953125 479 302 434.659179688 302 293 c 0
 302 145.453125 348.415039062 108 398 108 c 0
 459 108 477.627929688 147.15625 477.627929688 185.15625 c 0
 477.627929688 220.15625 461.890625 232.250976562 449.627929688 237.15625 c 1
 512.627929688 307.15625 l 1
 548.627929688 295.44921875 579.627929688 244.15625 579.627929688 190.15625 c 0
 579.627929688 95.73046875 528.560546875 1 398 1 c 0
 291.000976562 1 193 58.625 193 293 c 0
127.092773438 283.84375 m 4
 127.092773438 131.499731789 150.871914542 101.84375 184.092773438 101.84375 c 4
 184.092773438 -0.15625 l 4
 89.0927734375 -0.15625 21.0927734375 46.1205357143 21.0927734375 283.84375 c 4
 21.0927734375 506.41796875 106.27351055 583.84375 210.372070312 583.84375 c 4
 279.691579071 583.84375 317.521432936 527.424168786 326 486.84375 c 5
 272 425.84375 l 5
 266.823242188 442.4296875 252 479.84375 210.372070312 479.84375 c 4
 166.794810047 479.84375 127.092773438 425.502929688 127.092773438 283.84375 c 4
EndSplineSet
Layer: 3
SplineSet
194 115 m 0
 137 104 128 158 128 284 c 0
 128 425.659179688 167.26953125 480 210.372070312 480 c 0
 252 480 266.823242188 442.5859375 272 426 c 1
 337 498 l 1
 327.71484375 533.978515625 286.286132812 584 210.372070312 584 c 0
 106.772460938 584 22 506.57421875 22 284 c 0
 22 49.625 112 -16 222 4 c 0
 194 115 l 0
399 106 m 0
 349.415039062 106 300 136.453125 300 284 c 0
 300 425.659179688 339.26953125 480 382.372070312 480 c 0
 424 480 438.823242188 442.5859375 444 426 c 1
 509 498 l 1
 499.71484375 533.978515625 458.286132812 584 382.372070312 584 c 0
 278.772460938 584 194 506.57421875 194 284 c 0
 194 49.625 292.000976562 0 399 0 c 0
 529.560546875 0 582.9921875 104.57421875 582.9921875 199 c 0
 582.9921875 255.70703125 559 330 489 350 c 1
 422 280 l 1
 434.262695312 275.094726562 480 249 480 199 c 0
 480 155.278320312 460 106 399 106 c 0
602.907226562 0.15625 m 0
 709.90625 0.15625 807.907226562 51.625 807.907226562 286 c 0
 807.907226562 520.375 709.90625 584 602.907226562 584 c 0
 523 584 438 527 438 401 c 0
 438 369 434 344 382 311 c 1
 435 220 l 1
 495 254 540 306.241210938 540 362 c 0
 540 438 555.495117188 478 602.907226562 478 c 1
 652.4921875 478 701.907226562 433.546875 701.907226562 286 c 0
 701.907226562 136.084960938 652.487304688 104 602.907226562 104 c 1
 561.279296875 104 546.456054688 141.5703125 541.279296875 158.15625 c 1
 476.279296875 86.15625 l 1
 485.564453125 50.1787109375 526.993164062 0.15625 602.907226562 0.15625 c 0
EndSplineSet
EndChar

StartChar: si_Ca
Encoding: 27 3488 34
Width: 529
VWidth: 0
Flags: HW
LayerCount: 4
Fore
SplineSet
28.1204340289 200.595777954 m 4
 28.1204340289 243.270370971 40.4984220711 281.648937762 58.76171875 306 c 5
 22 306 l 5
 22 393 l 5
 286.866210938 390 l 5
 320.706054688 306 l 5
 213.76171875 306 l 6
 156.9765625 306 136.743164062 261.911132812 136.743164062 214.068359375 c 4
 136.743164062 166.573242188 166.077148438 115 246.76171875 115 c 4
 351.213867188 115 392.76171875 195.017578125 392.76171875 354 c 4
 392.76171875 583 321.44140625 640 238.616210938 640 c 4
 197.512695312 640 157.427734375 618.959960938 140.372070312 576.85546875 c 5
 31.33984375 613.029296875 l 5
 67.32421875 707.868164062 151.895507812 755 238.616210938 755 c 4
 378.087890625 755 508.76171875 675.859375 508.76171875 354 c 4
 507.76171875 118 426.76171875 0 246.76171875 0 c 4
 83.1154289466 0 28.1204340289 112.889505744 28.1204340289 200.595777954 c 4
56.2978515625 409.272460938 m 4
 56.2978515625 481.53515625 105.268554688 531.563476562 179.5703125 531.563476562 c 4
 256.556640625 531.563476562 327.955078125 474.899414062 327.955078125 365.563476562 c 4
 327.955078125 351 324.76171875 325 320.706054688 306 c 5
 230.326171875 371.875 l 5
 231.266706046 376.782574445 231.741071488 381.77029089 231.741071488 386.713601115 c 4
 231.741071488 416.143780956 214.92737736 444 179.5703125 444 c 4
 154.770507812 444 145.778320312 426.133789062 145.778320312 404.787109375 c 4
 145.778320312 386.79296875 158.063476562 370.325195312 166.76171875 356 c 5
 86.76171875 318.563476562 l 5
 66.76171875 351 56.2978515625 380.620117188 56.2978515625 409.272460938 c 4
EndSplineSet
Layer: 3
SplineSet
246.76171875 0 m 0
 68.76171875 0 19.3089077967 133.561488168 29.353515625 223 c 0
 32.9697265625 255.19921875 43.76171875 286 58.76171875 306 c 1
 22 306 l 1
 22 393 l 1
 286.866210938 390 l 1
 320.706054688 306 l 1
 213.76171875 306 l 2
 156.9765625 306 136.743164062 261.911132812 136.743164062 214.068359375 c 0
 136.743164062 166.573242188 166.077148438 115 246.76171875 115 c 0
 351.213867188 115 392.76171875 195.017578125 392.76171875 354 c 0
 392.76171875 583 321.44140625 640 238.616210938 640 c 0
 197.512695312 640 157.427734375 618.959960938 140.372070312 576.85546875 c 1
 31.33984375 613.029296875 l 1
 67.32421875 707.868164062 151.895507812 755 238.616210938 755 c 0
 378.087890625 755 508.76171875 675.859375 508.76171875 354 c 0
 507.76171875 118 426.76171875 0 246.76171875 0 c 0
166.76171875 356 m 1
 86.76171875 318.563476562 l 1
 66.76171875 351 56.2978515625 380.620117188 56.2978515625 409.272460938 c 0
 56.2978515625 481.53515625 105.268554688 531.563476562 179.5703125 531.563476562 c 0
 256.556640625 531.563476562 327.955078125 474.899414062 327.955078125 365.563476562 c 0
 327.955078125 351 324.76171875 325 320.706054688 306 c 1
 320.706054688 306 229.260742188 366.313476562 230.326171875 371.875 c 0
 236.866210938 406 220.866210938 444 179.5703125 444 c 0
 154.770507812 444 145.778320312 426.133789062 145.778320312 404.787109375 c 0
 145.778320312 386.79296875 158.063476562 370.325195312 166.76171875 356 c 1
EndSplineSet
EndChar

StartChar: si_Cha
Encoding: 28 3489 35
Width: 632
VWidth: 0
Flags: HW
LayerCount: 4
Fore
SplineSet
58.16796875 456.407226562 m 4
 58.16796875 532.13671875 110.267578125 594 196.827148438 594 c 4
 259.645507812 594 318.737931459 556.277058229 338.364257812 483 c 4
 339.615286819 478.329144961 340.1796875 473.071047507 340.1796875 467.353515625 c 4
 340.1796875 425.62457443 310.110935901 359.422394782 297.5 318.436523438 c 5
 251 416 l 4
 252.061523438 422.2421875 252.564453125 428.678710937 252.564453125 434.341796875 c 4
 252.564453125 481.030273438 223.73828125 496 201 496 c 4
 165.856445312 496 151.643554688 475 151.643554688 451.1640625 c 4
 151.643554688 439.108398438 158.279296875 419.560546876 166.262695312 410.436523438 c 5
 89.5537109375 369.030273438 l 5
 69.4157909494 394.649624076 58.16796875 428.149714062 58.16796875 456.407226562 c 4
373.818289463 576 m 4
 483.527656914 688.385135123 489.955078125 723.752999662 489.955078125 779 c 5
 599.955078125 779 l 5
 599.955078125 681.14870328 549.677363823 617 471.955078125 537 c 4
 373.818289463 576 l 4
254.820095952 467.353853551 m 4
 254.820095952 473.071261948 255.384563956 478.329245839 256.635742188 483 c 4
 276.264648438 556.276367188 335.354492187 594 398.172851562 594 c 4
 484.732421874 594 547.73046875 538.436523438 547.73046875 408.6796875 c 4
 547.73046875 262.436523438 469.254882812 191.436523438 371.254882812 191.436523438 c 4
 276.254882812 191.436523438 247.254882812 274.436523438 274.254882812 319.436523438 c 5
 363.254882812 318.436523438 l 5
 340.254882812 312.436523438 344.254882812 277.943359375 376.272460938 277.943359375 c 4
 417.254882812 277.943359375 454.254882812 302.436523438 454.254882812 403.436523438 c 4
 454.254882812 474.436523438 425.537670844 496 394 496 c 4
 371.26171875 496 342.435546875 481.030273438 342.435546875 434.341796875 c 4
 342.435546875 428.678710938 342.938476562 422.2421875 344 416 c 4
 297.5 318.436523438 l 5
 284.889000114 359.422487788 254.820095952 425.624817664 254.820095952 467.353853551 c 4
139.779296875 224 m 4
 139.780273438 144.037109375 218.491210938 104.166992188 297.276367188 104.166992188 c 4
 376.209960938 104.166992188 455.21875 144.186523438 455.21875 224 c 4
 455.21875 275.725585938 427.779296875 318 372.779296875 318 c 6
 222.21875 318 l 6
 167.22265625 318 139.779296875 276.868164062 139.779296875 224 c 4
32.779296875 224 m 4
 32.779296875 329.376953125 93.8359375 416 216.21875 416 c 6
 378.779296875 416 l 6
 501.162109375 416 562.21875 329.65234375 562.21875 224 c 4
 562.21875 66.5009765625 429.859375 -12.2490234375 297.5 -12.2490234375 c 4
 165.139648438 -12.2490234375 32.779296875 66.501953125 32.779296875 224 c 4
EndSplineSet
EndChar

StartChar: si_Ja
Encoding: 29 3490 36
Width: 618
VWidth: 0
Flags: HW
LayerCount: 4
Fore
SplineSet
254.8203125 467.353515625 m 0
 254.8203125 473.071289062 255.384765625 478.329101562 256.635742188 483 c 0
 276.26171875 556.27734375 335.354492188 594 398.172851562 594 c 0
 484.732421875 594 536.83203125 532.13671875 536.83203125 456.407226562 c 0
 536.83203125 428.149414062 525.583984375 394.649414062 505.446289062 369.030273438 c 1
 428.737304688 410.436523438 l 1
 436.720703125 419.560546875 443.356445312 439.108398438 443.356445312 451.1640625 c 0
 443.356445312 475 429.143554688 496 394 496 c 0
 371.26171875 496 342.435546875 481.030273438 342.435546875 434.341796875 c 0
 342.435546875 428.678710938 342.938476562 422.2421875 344 416 c 0
 297.5 318.436523438 l 1
 284.888671875 359.422851562 254.8203125 425.625 254.8203125 467.353515625 c 0
58.16796875 456.407226562 m 0
 58.16796875 532.13671875 110.267578125 594 196.827148438 594 c 0
 259.645507812 594 318.737931459 556.277058229 338.364257812 483 c 0
 339.615286819 478.329144961 340.1796875 473.071047507 340.1796875 467.353515625 c 0
 340.1796875 425.62457443 310.110935901 359.422394782 297.5 318.436523438 c 1
 251 416 l 0
 252.061523438 422.2421875 252.564453125 428.678710937 252.564453125 434.341796875 c 0
 252.564453125 481.030273438 223.73828125 496 201 496 c 0
 165.856445312 496 151.643554688 475 151.643554688 451.1640625 c 0
 151.643554688 439.108398438 158.279296875 419.560546876 166.262695312 410.436523438 c 1
 89.5537109375 369.030273438 l 1
 69.4157909494 394.649624076 58.16796875 428.149714062 58.16796875 456.407226562 c 0
373.818289463 576 m 0
 483.527656914 688.385135123 489.955078125 723.752999662 489.955078125 779 c 1
 599.955078125 779 l 1
 599.955078125 681.14870328 549.677363823 617 471.955078125 537 c 0
 373.818289463 576 l 0
139.779296875 224 m 0
 139.779296875 144.037109375 218.491210938 104.166992188 297.276367188 104.166992188 c 0
 376.209960938 104.166992188 455.21875 144.186523438 455.21875 224 c 0
 455.21875 275.725585938 427.779296875 318 372.779296875 318 c 2
 222.21875 318 l 2
 167.21875 318 139.779296875 275.725585938 139.779296875 224 c 0
32.779296875 224 m 0
 32.779296875 329.376953125 93.8359375 416 216.21875 416 c 2
 378.779296875 416 l 2
 501.162109375 416 562.21875 329.65234375 562.21875 224 c 0
 562.21875 66.5009765625 429.859375 -12.2490234375 297.5 -12.2490234375 c 0
 165.139648438 -12.2490234375 32.779296875 66.501953125 32.779296875 224 c 0
EndSplineSet
EndChar

StartChar: si_Jha
Encoding: 30 3491 37
Width: 1041
VWidth: 0
Flags: HW
LayerCount: 4
Fore
SplineSet
490.541992188 231.204101562 m 0
 490.541992188 277.470703125 496.752929688 319.610351562 504.669921875 345 c 0
 528.739257812 422.728515625 584.12109375 472 656.219726562 472 c 0
 683.986328125 472 713.017578125 465.063476562 741.391601562 445.2578125 c 1
 703.526367188 345 l 1
 689.678710938 352.989257812 677.008789062 356.607421875 665.663085938 356.607421875 c 0
 638.879882812 356.607421875 619.48046875 336.442382812 609.40625 306 c 0
 604.974609375 291.600585938 601.489257812 261.723632812 601.489257812 229.770507812 c 0
 601.489257812 175.234375 611.642578125 114.65234375 644.580078125 114.65234375 c 0
 686.755859375 114.65234375 701.76171875 179.677734375 701.76171875 249.5 c 1
 797.672851562 249.5 l 1
 797.672851562 176.75 813.140625 115 856.130859375 115 c 0
 912.88671875 115 912.88671875 239.958007812 912.88671875 293 c 0
 912.88671875 522.796875 869.88671875 639.884765625 731.88671875 639.884765625 c 0
 690.783203125 639.884765625 643.124023438 618.959960938 626.068359375 576.85546875 c 1
 517.036132812 613.029296875 l 1
 553.020507812 707.868164062 645.166015625 755 731.88671875 755 c 0
 948.88671875 755 1027.88671875 599.055664062 1027.88671875 293 c 0
 1027.88671875 181.99609375 1026.88671875 0 856.130859375 0 c 0
 800.2109375 0 762.188476562 33.14453125 747.368164062 79.0302734375 c 1
 731.22265625 31.6025390625 691.810546875 0 639.130859375 0 c 0
 522.522460938 0 490.541992188 126.224609375 490.541992188 231.204101562 c 0
26.6279296875 126 m 1
 66 214 l 1
 111.627929688 206 l 1
 117.627929688 197 125.087890625 191.751953125 125.087890625 156 c 0
 125.087890625 138.591796875 126.720703125 109 150 109 c 0
 168.657226562 109 185 119 185 160 c 2
 185 227 l 1
 275 227 l 1
 275 160 l 2
 275 122 287 109 313 109 c 0
 348 109 353.087890625 165.987304688 353.087890625 210 c 0
 353.087890625 335.987304688 273 364 222 346 c 1
 295 426 l 1
 317.44140625 437 460.087890625 431 460.087890625 210 c 0
 460.087890625 112.106445312 420.04296875 -0 314.04296875 -0 c 0
 275.04296875 -0 240.04296875 29 230.627929688 52 c 1
 222.04296875 31 191.04296875 -0 154.627929688 -0 c 0
 -2.3720703125 -0 90.16796875 165 26.6279296875 126 c 1
22.6279296875 232 m 1
 86.6376953125 297.920898438 166.551757812 405.911132812 242.087890625 489 c 0
 290.735351562 545.3046875 343 585 433 585 c 0
 525.733656248 585 607.636900481 536.659441118 646.973839888 428 c 0
 544.525263188 382.999989238 l 0
 524.530159465 441.520210539 486.482771201 473 433 473 c 0
 380 473 353.579101562 457 314 416 c 0
 311.690429688 413.607421875 203.241210938 290.752929688 119.255859375 206 c 0
 73.6416015625 159.96875 29.6044921875 128.701171875 26.6279296875 126 c 9
 22.6279296875 232 l 1
154.615234375 594 m 0
 231.60546875 594 303 537.3359375 303 428 c 0
 303 396.735351562 292.087890625 389.899414062 267.087890625 369.899414062 c 1
 203.806640625 416.436523438 l 0
 204.868164062 422.678710938 205.37109375 428.6484375 205.37109375 434.311523438 c 0
 205.37109375 471.944335938 181.526367188 496 153 496 c 0
 125.166015625 496 111.575195312 475.012695312 111.575195312 451.903320312 c 0
 111.575195312 411.899414062 138.798828125 394.899414062 168.798828125 387.899414062 c 1
 109.087890625 327.899414062 l 1
 63.798828125 344.899414062 19 391.899414062 19 461.536132812 c 0
 19 532.131835938 67 594 154.615234375 594 c 0
EndSplineSet
Layer: 3
SplineSet
157.615234375 592.100585938 m 0
 234.60546875 592.100585938 306 535.436523438 306 426.100585938 c 0
 306 394.8359375 295.087890625 388 270.087890625 368 c 1
 206.806640625 414.537109375 l 0
 207.868164062 420.779296875 208.37109375 426.749023438 208.37109375 432.412109375 c 0
 208.37109375 470.044921875 184.526367188 494.100585938 156 494.100585938 c 0
 128.166015625 494.100585938 114.575195312 473.11328125 114.575195312 450.00390625 c 0
 114.575195312 410 141.798828125 393 171.798828125 386 c 1
 112.087890625 326 l 1
 66.798828125 343 22 390 22 459.63671875 c 0
 22 530.232421875 70 592.100585938 157.615234375 592.100585938 c 0
322.130859375 0 m 0
 283.130859375 0 248.130859375 29 238.715820312 52 c 1
 230.130859375 31 199.130859375 0 155.087890625 0 c 0
 48.2646484375 0 34.087890625 100 58.087890625 146 c 1
 158.087890625 249 l 1
 131.087890625 227.963867188 128.087890625 191.751953125 128.087890625 156 c 0
 128.087890625 138.591796875 134.80859375 109 158.087890625 109 c 0
 176.745117188 109 193.087890625 119 193.087890625 160 c 0
 193.087890625 176.21875 193.087890625 202.995117188 193.087890625 227 c 1
 283.087890625 227 l 1
 283.087890625 202.2265625 283.087890625 176.891601562 283.087890625 160 c 0
 283.087890625 122 295.087890625 109 321.087890625 109 c 0
 356.087890625 109 356.087890625 165.987304688 356.087890625 210 c 0
 356.087890625 335.987304688 291.087890625 370 240.087890625 352 c 1
 313.087890625 432 l 1
 335.529296875 443 463.087890625 431 463.087890625 210 c 0
 463.087890625 112.106445312 428.130859375 0 322.130859375 0 c 0
546.130859375 377 m 1
 545.130859375 453 488.087890625 482 447.087890625 482 c 0
 413.89453125 482 374.853515625 473.506835938 326.087890625 423 c 0
 322.5234375 419.307617188 37.5458984375 122.674804688 29.087890625 115 c 1
 26.087890625 249 l 17
 93.087890625 318 77.1484375 298.06640625 137.087890625 364 c 0
 157.087890625 386 245.087890625 489 245.087890625 489 c 0
 294.087890625 545 357.087890625 594 447.087890625 594 c 0
 554.086914062 594 610.087890625 534 653.087890625 444 c 1
 546.130859375 377 l 1
1019.37109375 293 m 0
 1019.37109375 181.99609375 1013.88671875 0 856.130859375 0 c 0
 800.2109375 0 762.188476562 33.14453125 747.368164062 79.0302734375 c 1
 731.22265625 31.6025390625 691.810546875 0 639.130859375 0 c 0
 471.130859375 0 478.536132812 258 504.416015625 341 c 0
 529.720703125 422.157226562 589.295898438 474.71484375 656.219726562 474.71484375 c 0
 683.986328125 474.71484375 713.017578125 465.66796875 741.391601562 445.862304688 c 1
 703.526367188 345.604492188 l 1
 689.678710938 353.59375 677.008789062 357.211914062 665.663085938 357.211914062 c 0
 638.124023438 357.211914062 618.390625 335.891601562 608.575195312 304 c 0
 596.579101562 265.024414062 591.131835938 124 639.130859375 115 c 0
 685.03125 106.393554688 701.76171875 176.75 701.76171875 249.5 c 1
 797.672851562 249.5 l 1
 797.672851562 176.75 813.140625 115 856.130859375 115 c 0
 904.130859375 115 904.37109375 239.958007812 904.37109375 293 c 0
 904.37109375 522.796875 840.71875 639.884765625 715.796875 639.884765625 c 0
 674.693359375 639.884765625 634.608398438 618.959960938 617.552734375 576.85546875 c 1
 508.520507812 613.029296875 l 1
 544.504882812 707.868164062 629.076171875 755 715.796875 755 c 0
 916.580078125 755 1018.88671875 599.055664062 1019.37109375 293 c 0
EndSplineSet
EndChar

StartChar: si_Nya
Encoding: 31 3492 38
Width: 1058
VWidth: 0
Flags: HW
LayerCount: 4
Fore
SplineSet
124 290.216796875 m 0
 124 137.873046875 147.779296875 108.216796875 181 108.216796875 c 0
 181 6.216796875 l 0
 86 6.216796875 18 52.4931640625 18 290.216796875 c 0
 18 512.791015625 92.8718093556 590.216796875 184.372070312 590.216796875 c 0
 253.69140625 590.216796875 291.521484376 533.796875 300 493.216796875 c 1
 246 432.216796875 l 1
 241.211989162 448.802734375 227.501893609 486.216796875 189 486.216796875 c 0
 154.987769413 486.216796875 124 431.875976563 124 290.216796875 c 0
219.052734375 126 m 1
 258.424804688 214 l 1
 304.052734375 206 l 1
 310.052734375 197 317.512695312 191.751953125 317.512695312 156 c 0
 317.512695312 138.591796875 319.145507812 109 342.424804688 109 c 0
 361.08203125 109 377.424804688 119 377.424804688 160 c 2
 377.424804688 227 l 1
 467.424804688 227 l 1
 467.424804688 160 l 2
 467.424804688 122 479.424804688 109 505.424804688 109 c 0
 540.424804688 109 545.512695312 165.987304688 545.512695312 210 c 0
 545.512695312 335.987304688 465.424804688 364 414.424804688 346 c 1
 487.424804688 426 l 1
 509.866210938 437 652.512695312 431 652.512695312 210 c 0
 652.512695312 112.106445312 612.467773438 -0 506.467773438 -0 c 0
 467.467773437 0 432.467773437 29 423.052734375 52 c 1
 414.467773437 31 383.467773437 -0 347.052734375 -0 c 0
 190.052734375 0 282.592773437 165 219.052734375 126 c 1
215.052734375 232 m 1
 279.0625 297.920898438 361.09861013 404.030362436 434.512695312 489 c 0
 483.16015625 545.3046875 550 585 625.424804688 585 c 0
 721.886183622 585 810 544 848 402 c 0
 765 368 l 0
 750 447 692.359129905 473 625.424804688 473 c 0
 586 473 546.003103627 457.000774791 506.424804688 416 c 0
 504.115234375 413.607421875 395.665919946 290.753024501 311.680664062 206 c 0
 266.06640625 159.96875 222.029296875 128.701171875 219.052734375 126 c 1
 215.052734375 232 l 1
670 217 m 0
 670 330.947265625 766.6796875 421.3515625 887 421.3515625 c 0
 905.830078125 421.3515625 918 420 935.806640625 418.436523438 c 1
 936.868164062 424.678710938 937.37109375 430.6484375 937.37109375 436.311523438 c 0
 937.37109375 473.944335938 915.141601562 498 886.615234375 498 c 0
 857.259765625 498 841.431640625 477 841.431640625 453.1640625 c 0
 841.431640625 440.755859375 844.948242188 427.390625 852.780273438 418 c 1
 775 379 l 1
 755.690429688 404.20703125 747.956054688 430.604492188 747.956054688 458.407226562 c 0
 747.956054688 534.13671875 800.055664062 596 886.615234375 596 c 0
 963.60546875 596 1035 539.3359375 1035 430 c 0
 1035 398.735351562 1028 357 1016 318 c 1
 1016 318 935.53125 318 887 318 c 0
 831 318 782 274 782 217 c 0
 782 160 828.782178218 116 887 116 c 0
 922.29296875 116 953.569335938 131.385742188 973.662109375 155.436523438 c 1
 1060 93.0419921875 l 1
 1019.88964844 36.2998046875 957.454101562 0 887 0 c 0
 766.6640625 0 670 96.6640625 670 217 c 0
802.333984375 -57.970703125 m 0
 802.333984375 -31.6059585666 809.779658115 -4.27525012086 826 21.5380859375 c 1
 916 44.4365234375 l 1
 926 4 l 1
 914.924574423 -8.7736371941 909.220703125 -26.3192638447 909.220703125 -43.205078125 c 0
 909.220703125 -70.9961866373 924.671503773 -97 957.0546875 -97 c 0
 981.685546875 -97 1008.50878906 -85.0556640625 1031 -54.5634765625 c 1
 1108 -106.563476562 l 1
 1062.08886719 -175.430664062 1007.33300781 -202.407226562 957.0546875 -202.407226562 c 0
 864.628048529 -202.407226562 802.333984375 -134.229782177 802.333984375 -57.970703125 c 0
347.040039062 594 m 0
 424.030273438 594 495.424804688 537.3359375 495.424804688 428 c 0
 495.424804688 396.735351562 484.512695312 389.899414062 459.512695312 369.899414062 c 1
 396.231445312 416.436523438 l 0
 397.29296875 422.678710938 397.795898438 428.6484375 397.795898438 434.311523438 c 0
 397.795898438 471.944335938 373.951171875 496 345.424804688 496 c 0
 317.590820312 496 304 475.012695312 304 451.903320312 c 0
 304 411.899414062 331.223632812 394.899414062 361.223632812 387.899414062 c 1
 301.512695312 327.899414062 l 1
 256.223632812 344.899414062 211.424804688 391.899414062 211.424804688 461.536132812 c 0
 211.424804688 532.131835938 259.424804688 594 347.040039062 594 c 0
EndSplineSet
Layer: 3
SplineSet
194.0546875 121.216796875 m 0
 222.0546875 10.216796875 l 0
 112.0546875 -9.783203125 22.0546875 55.841796875 22.0546875 290.216796875 c 0
 22.0546875 512.791015625 106.827148438 590.216796875 210.426757812 590.216796875 c 0
 286.340820312 590.216796875 327.76953125 540.1953125 337.0546875 504.216796875 c 1
 272.0546875 432.216796875 l 1
 266.877929688 448.802734375 252.0546875 486.216796875 210.426757812 486.216796875 c 0
 167.32421875 486.216796875 128.0546875 431.875976562 128.0546875 290.216796875 c 0
 128.0546875 164.216796875 137.0546875 110.216796875 194.0546875 121.216796875 c 0
346.58203125 592.100585938 m 0
 423.572265625 592.100585938 494.966796875 535.436523438 494.966796875 426.100585938 c 0
 494.966796875 394.8359375 484.0546875 388 459.0546875 368 c 1
 395.7734375 414.537109375 l 0
 396.834960938 420.779296875 397.337890625 426.749023438 397.337890625 432.412109375 c 0
 397.337890625 470.044921875 373.493164062 494.100585938 344.966796875 494.100585938 c 0
 317.1328125 494.100585938 303.541992188 473.11328125 303.541992188 450.00390625 c 0
 303.541992188 410 330.765625 393 360.765625 386 c 1
 301.0546875 326 l 1
 255.765625 343 210.966796875 390 210.966796875 459.63671875 c 0
 210.966796875 530.232421875 258.966796875 592.100585938 346.58203125 592.100585938 c 0
511.09765625 0 m 0
 472.09765625 0 437.09765625 29 427.682617188 52 c 1
 419.09765625 31 388.09765625 0 344.0546875 0 c 0
 237.231445312 0 223.0546875 100 247.0546875 146 c 1
 347.0546875 249 l 1
 320.0546875 227.963867188 317.0546875 191.751953125 317.0546875 156 c 0
 317.0546875 138.591796875 323.775390625 109 347.0546875 109 c 0
 365.711914062 109 382.0546875 119 382.0546875 160 c 0
 382.0546875 176.21875 382.0546875 202.995117188 382.0546875 227 c 1
 472.0546875 227 l 1
 472.0546875 202.2265625 472.0546875 176.891601562 472.0546875 160 c 0
 472.0546875 122 484.0546875 109 510.0546875 109 c 0
 545.0546875 109 545.0546875 165.987304688 545.0546875 210 c 0
 545.0546875 335.987304688 480.0546875 370 429.0546875 352 c 1
 502.0546875 432 l 1
 524.49609375 443 652.0546875 431 652.0546875 210 c 0
 652.0546875 112.106445312 617.09765625 0 511.09765625 0 c 0
756.0546875 379 m 1
 755.0546875 455 677.0546875 482 636.0546875 482 c 0
 602.861328125 482 563.8203125 473.506835938 515.0546875 423 c 0
 511.490234375 419.307617188 226.512695312 122.674804688 218.0546875 115 c 1
 215.0546875 249 l 17
 282.0546875 318 266.115234375 298.06640625 326.0546875 364 c 0
 346.0546875 386 434.0546875 489 434.0546875 489 c 0
 483.0546875 545 546.0546875 594 636.0546875 594 c 0
 743.053710938 594 799.0546875 534 842.0546875 444 c 1
 756.0546875 379 l 1
887 318 m 0
 831 318 786 273 786 217 c 0
 786 161 831 116 887 116 c 0
 922.29296875 116 953.569335938 131.385742188 973.662109375 155.436523438 c 1
 1060 93.0419921875 l 1
 1019.88964844 36.2998046875 957.454101562 0 887 0 c 0
 766.6640625 0 670 96.6640625 670 217 c 0
 670 330.947265625 766.68359375 421.3515625 887 421.3515625 c 1
 905.834960938 421.3515625 918 420 935.806640625 418.436523438 c 1
 936.868164062 424.678710938 937.37109375 430.6484375 937.37109375 436.311523438 c 0
 937.37109375 473.944335938 915.141601562 498 886.615234375 498 c 0
 857.259765625 498 841.431640625 477 841.431640625 453.1640625 c 0
 841.431640625 441.108398438 845.016601562 428.124023438 853 419 c 1
 775 379 l 1
 755.690429688 404.20703125 747.956054688 430.604492188 747.956054688 458.407226562 c 0
 747.956054688 534.13671875 800.055664062 596 886.615234375 596 c 0
 963.60546875 596 1035 539.3359375 1035 430 c 0
 1035 398.735351562 1028 357 1016 318 c 1
 1016 318 935.53125 318 887 318 c 0
1031 -54.5634765625 m 1
 1108 -106.563476562 l 1
 1062.08886719 -175.430664062 1007.33300781 -202.407226562 957.0546875 -202.407226562 c 0
 832.673828125 -202.407226562 762.862304688 -78.939453125 826 21.5380859375 c 1
 916 44.4365234375 l 1
 926 4 l 1
 896.696289062 -29.796875 904.99609375 -97 957.0546875 -97 c 0
 981.685546875 -97 1008.50878906 -85.0556640625 1031 -54.5634765625 c 1
EndSplineSet
EndChar

StartChar: si_Jnya
Encoding: 32 3493 39
Width: 998
VWidth: 0
Flags: HW
LayerCount: 4
Fore
SplineSet
128 284 m 4
 128 131.65625 151.779296875 102 185 102 c 4
 185 0 l 4
 90 0 22 46.2763671875 22 284 c 4
 22 506.57421875 96.8718093556 584 188.372070312 584 c 4
 257.69140625 584 295.521484376 527.580078125 304 487 c 5
 250 426 l 5
 245.211989162 442.5859375 231.501893609 480 193 480 c 4
 158.987769413 480 128 425.659179688 128 284 c 4
610 217 m 4
 610 330.947265625 706.6796875 421.3515625 827 421.3515625 c 4
 845.830078125 421.3515625 858 420 875.806640625 418.436523438 c 5
 876.868164062 424.678710938 877.37109375 430.6484375 877.37109375 436.311523438 c 4
 877.37109375 473.944335938 855.141601562 498 826.615234375 498 c 4
 797.259765625 498 781.431640625 477 781.431640625 453.1640625 c 4
 781.431640625 440.755859375 784.948242188 427.390625 792.780273438 418 c 5
 715 379 l 5
 695.690429688 404.20703125 687.956054688 430.604492188 687.956054688 458.407226562 c 4
 687.956054688 534.13671875 740.055664062 596 826.615234375 596 c 4
 903.60546875 596 975 539.3359375 975 430 c 4
 975 398.735351562 968 357 956 318 c 5
 956 318 875.53125 318 827 318 c 4
 771 318 722 274 722 217 c 4
 722 160 768.782178218 116 827 116 c 4
 862.29296875 116 893.569335938 131.385742188 913.662109375 155.436523438 c 5
 1000 93.0419921875 l 5
 959.889648438 36.2998046875 897.454101562 0 827 0 c 4
 706.6640625 0 610 96.6640625 610 217 c 4
742.333984375 -57.970703125 m 4
 742.333984375 -31.6059585666 749.779658115 -4.27525012086 766 21.5380859375 c 5
 856 44.4365234375 l 5
 866 4 l 5
 854.924574423 -8.7736371941 849.220703125 -26.3192638447 849.220703125 -43.205078125 c 4
 849.220703125 -70.9961866373 864.671503773 -97 897.0546875 -97 c 4
 921.685546875 -97 948.508789062 -85.0556640625 971 -54.5634765625 c 5
 1048 -106.563476562 l 5
 1002.08886719 -175.430664062 947.333007812 -202.407226562 897.0546875 -202.407226562 c 4
 804.628048529 -202.407226562 742.333984375 -134.229782177 742.333984375 -57.970703125 c 4
400 107 m 4
 461 107 479.627929688 146.15625 479.627929688 184.15625 c 4
 479.627929688 219.15625 463.890625 231.250976562 451.627929688 236.15625 c 5
 514.627929688 306.15625 l 5
 550.627929688 294.44921875 581.627929688 243.15625 581.627929688 189.15625 c 4
 581.627929688 94.73046875 530.560546875 0 400 0 c 4
 293.000976562 0 195 57.625 195 292 c 4
 195 514.57421875 279.772460938 584 383.372070312 584 c 4
 459.286132812 584 500.71484375 533.978515625 510 498 c 5
 445 426 l 5
 439.823242188 442.5859375 425 478 383.372070312 478 c 4
 340.26953125 478 304 433.659179688 304 292 c 4
 304 144.453125 350.415039062 107 400 107 c 4
615 584.15625 m 4
 679.259765625 584.15625 729.274473662 563.372115165 767.764540402 496 c 4
 708 303 l 5
 708 450.546875 664.584960938 477.15625 615 477.15625 c 4
 563.189453125 477.15625 541 438 541 362 c 4
 541 286.15625 496 254 436 220 c 5
 389.627929688 300.15625 l 5
 441.627929688 333.15625 439 369 439 401 c 4
 439 527 535.092773438 584.15625 615 584.15625 c 4
EndSplineSet
Layer: 3
SplineSet
827 318 m 0
 771 318 726 273 726 217 c 0
 726 161 771 116 827 116 c 0
 862.29296875 116 893.569335938 131.385742188 913.662109375 155.436523438 c 1
 1000 93.0419921875 l 1
 959.889648438 36.2998046875 897.454101562 0 827 0 c 0
 706.6640625 0 610 96.6640625 610 217 c 0
 610 330.947265625 706.68359375 421.3515625 827 421.3515625 c 1
 845.834960938 421.3515625 858 420 875.806640625 418.436523438 c 1
 876.868164062 424.678710938 877.37109375 430.6484375 877.37109375 436.311523438 c 0
 877.37109375 473.944335938 855.141601562 498 826.615234375 498 c 0
 797.259765625 498 781.431640625 477 781.431640625 453.1640625 c 0
 781.431640625 441.108398438 785.016601562 428.124023438 793 419 c 1
 715 379 l 1
 695.690429688 404.20703125 687.956054688 430.604492188 687.956054688 458.407226562 c 0
 687.956054688 534.13671875 740.055664062 596 826.615234375 596 c 0
 903.60546875 596 975 539.3359375 975 430 c 0
 975 398.735351562 968 357 956 318 c 1
 956 318 875.53125 318 827 318 c 0
971 -54.5634765625 m 1
 1048 -106.563476562 l 1
 1002.08886719 -175.430664062 947.333007812 -202.407226562 897.0546875 -202.407226562 c 0
 772.673828125 -202.407226562 702.862304688 -78.939453125 766 21.5380859375 c 1
 856 44.4365234375 l 1
 866 4 l 1
 836.696289062 -29.796875 844.99609375 -97 897.0546875 -97 c 0
 921.685546875 -97 948.508789062 -85.0556640625 971 -54.5634765625 c 1
194 115 m 0
 222 4 l 0
 112 -16 22 49.625 22 284 c 0
 22 506.57421875 106.772460938 584 210.372070312 584 c 0
 286.286132812 584 327.71484375 533.978515625 337 498 c 1
 272 426 l 1
 266.823242188 442.5859375 252 480 210.372070312 480 c 0
 167.26953125 480 128 425.659179688 128 284 c 0
 128 158 137 104 194 115 c 0
399 106 m 0
 460 106 480 155.278320312 480 199 c 0
 480 249 434.262695312 275.094726562 422 280 c 1
 489 350 l 1
 559 330 582.9921875 255.70703125 582.9921875 199 c 0
 582.9921875 104.57421875 529.560546875 0 399 0 c 0
 292.000976562 0 194 49.625 194 284 c 0
 194 506.57421875 278.772460938 584 382.372070312 584 c 0
 458.286132812 584 499.71484375 533.978515625 509 498 c 1
 444 426 l 1
 438.823242188 442.5859375 424 480 382.372070312 480 c 0
 339.26953125 480 300 425.659179688 300 284 c 0
 300 136.453125 349.415039062 106 399 106 c 0
782 374 m 0
 693 377 l 0
 693 444 656 478 612 478 c 0
 560.740234375 478 540 438 540 362 c 0
 540 306.241210938 495 254 435 220 c 1
 382 311 l 1
 434 344 438 369 438 401 c 0
 438 527 532.092773438 584 612 584 c 0
 718.999023438 584 784 502 782 374 c 0
EndSplineSet
EndChar

StartChar: si_Ndja
Encoding: 33 3494 40
Width: 800
VWidth: 0
Flags: HW
LayerCount: 4
Fore
SplineSet
127.092773438 283.84375 m 0
 127.092773438 131.5 150.872070312 101.84375 184.092773438 101.84375 c 0
 184.092773438 -0.15625 l 0
 89.0927734375 -0.15625 21.0927734375 46.1201171875 21.0927734375 283.84375 c 0
 21.0927734375 506.41796875 95.9645827931 583.84375 187.46484375 583.84375 c 0
 256.784179687 583.84375 294.614257813 527.423828125 303.092773438 486.84375 c 1
 249.092773438 425.84375 l 1
 244.304762599 442.4296875 230.594667047 479.84375 192.092773438 479.84375 c 0
 158.080542851 479.84375 127.092773438 425.502929688 127.092773438 283.84375 c 0
EndSplineSet
Refer: 36 3490 N 1 0 0 1 182 0 2
Layer: 2
SplineSet
127.092773438 283.84375 m 4
 127.092773438 131.499731789 150.871914542 101.84375 184.092773438 101.84375 c 4
 184.092773438 -0.15625 l 4
 89.0927734375 -0.15625 21.0927734375 46.1205357143 21.0927734375 283.84375 c 4
 21.0927734375 506.41796875 102.055828687 583.84375 201 583.84375 c 4
 269.943061843 583.84375 307.56747669 527.424168786 316 486.84375 c 5
 262 425.84375 l 5
 256.875988401 442.4296875 242.20378088 479.84375 201 479.84375 c 4
 162.326829497 479.84375 127.092773438 425.502929688 127.092773438 283.84375 c 4
EndSplineSet
Layer: 3
SplineSet
129 284 m 0
 129 131.655981789 152.779141104 102 186 102 c 0
 186 0 l 0
 90.9999999998 0 23 46.2767857143 23 284 c 0
 23 506.458294678 99.9545654848 583.84375 194 583.84375 c 0
 256.348508102 583.84375 290.374065876 527.424168786 298 486.84375 c 1
 244 425.84375 l 1
 239.799990493 442.4296875 227.773590885 479.84375 194 479.84375 c 0
 159.987682131 479.84375 129 425.546249857 129 284 c 0
EndSplineSet
Refer: 36 3490 N 1 0 0 1 182 0 2
EndChar

StartChar: si_Ttha
Encoding: 35 3496 41
Width: 573
VWidth: 0
Flags: HW
LayerCount: 4
Fore
SplineSet
272.790039062 611.133789062 m 4
 272.790039062 667.848323534 313.998266947 688.157161354 313.998266947 709.82355783 c 4
 313.998266947 716.95345009 309.535784705 724.230353802 297.673828125 733 c 5
 404 755 l 5
 384.778320312 647 l 21
 368.399414062 639.98046875 358.778320312 621.141601562 358.778320312 605 c 4
 358.778320312 585.998456882 376.790316003 559.628370072 418 548.854949734 c 4
 422.33416255 547.721872495 426.924925028 546.761316907 431.778320312 546 c 5
 516 524 l 5
 448.673828125 461 l 5
 434.878770079 461.400055468 420.431658942 463.679432885 406.000001927 467.641017496 c 4
 339.229615068 485.969927117 272.790039062 540.308152872 272.790039062 611.133789062 c 4
40.673828125 231.204101562 m 4
 40.673828125 277.470703125 46.884765625 319.610351562 54.8017578125 345 c 4
 78.87109375 422.728515625 134.252929688 472 206.3515625 472 c 4
 234.118164062 472 263.149414062 465.063476562 291.5234375 445.2578125 c 5
 253.658203125 345 l 5
 239.810546875 352.989257812 227.140625 356.607421875 215.794921875 356.607421875 c 4
 189.01171875 356.607421875 169.612304688 336.442382812 159.538085938 306 c 4
 155.106445312 291.600585938 151.62109375 261.723632812 151.62109375 229.770507812 c 4
 151.62109375 175.234375 161.774414062 114.65234375 194.711914062 114.65234375 c 4
 236.887695312 114.65234375 251.893554688 179.677734375 251.893554688 249.5 c 5
 347.8046875 249.5 l 5
 347.8046875 176.75 363.272460938 115 406.262695312 115 c 4
 463.018554688 115 463.018554688 239.958007812 463.018554688 293 c 4
 463.018554688 384.547851562 448.15625 481.404296875 429.516601562 545 c 5
 423.778320312 579 405.778320312 628 383.6953125 648 c 5
 360.958007812 683.220703125 332.458007812 712.00390625 297.673828125 733 c 5
 369.673828125 817 l 5
 448.651367188 764.920898438 503.0625 686.227539062 535.161132812 588 c 4
 559.149414062 514.590820312 578.018554688 410 578.018554688 293 c 4
 578.018554688 181.99609375 577.018554688 0 406.262695312 0 c 4
 350.342773438 0 312.3203125 33.14453125 297.5 79.0302734375 c 5
 281.354492188 31.6025390625 241.942382812 0 189.262695312 0 c 4
 72.654296875 0 40.673828125 126.224609375 40.673828125 231.204101562 c 4
EndSplineSet
EndChar

StartChar: si_Nndda
Encoding: 39 3500 42
Width: 747
VWidth: 0
Flags: HW
LayerCount: 4
Fore
SplineSet
217.780273438 193.436523438 m 0
 217.780273438 234.737304688 229.262695312 280.436523438 243.262695312 306 c 1
 212.018554688 306 l 1
 212.018554688 391 l 1
 501.26171875 389.5 l 1
 534.763671875 306 l 1
 385.018554688 306 l 2
 344.262695312 306 324.780273438 245.162109375 324.780273438 193.436523438 c 0
 324.780273438 156.328125 330.454101562 114.65234375 367.711914062 114.65234375 c 0
 409.887695312 114.65234375 424.893554688 179.677734375 424.893554688 249.5 c 1
 520.8046875 249.5 l 1
 520.8046875 176.75 536.272460938 115 579.262695312 115 c 0
 636.018554688 115 636.018554688 239.958007812 636.018554688 293 c 0
 636.018554688 522.796875 593.018554688 639.884765625 455.018554688 639.884765625 c 0
 413.915039062 639.884765625 366.255859375 618.959960938 349.200195312 576.85546875 c 1
 240.16796875 613.029296875 l 1
 276.15234375 707.868164062 368.297851562 755 455.018554688 755 c 0
 672.018554688 755 751.018554688 599.055664062 751.018554688 293 c 0
 751.018554688 181.99609375 750.018554688 0 579.262695312 0 c 0
 523.342773438 0 485.3203125 33.14453125 470.5 79.0302734375 c 1
 454.354492188 31.6025390625 414.942382812 0 362.262695312 0 c 0
 246.462890625 0 217.780273438 105.454101562 217.780273438 193.436523438 c 0
270.35546875 409.272460938 m 0
 270.35546875 481.53515625 319.326171875 531.563476562 393.627929688 531.563476562 c 0
 470.614257812 531.563476562 542.012695312 474.899414062 542.012695312 365.563476562 c 0
 542.012695312 351 538.819335938 325 534.763671875 306 c 1
 444.383789062 371.875 l 1
 445.32421875 376.782226562 445.798828125 381.770507812 445.798828125 386.713867188 c 0
 445.798828125 416.143554688 428.985351562 444 393.627929688 444 c 0
 368.828125 444 359.8359375 426.133789062 359.8359375 404.787109375 c 0
 359.8359375 386.79296875 372.12109375 370.325195312 380.819335938 356 c 1
 300.819335938 318.563476562 l 1
 280.819335938 351 270.35546875 380.620117188 270.35546875 409.272460938 c 0
127.092773438 283.84375 m 0
 127.092773438 131.499731789 150.871914542 101.84375 184.092773438 101.84375 c 0
 184.092773438 -0.15625 l 0
 89.0927734375 -0.15625 21.0927734375 46.1205357143 21.0927734375 283.84375 c 0
 21.0927734375 487.98604126 106.27351055 559 210.372070312 559 c 0
 286.885637698 559 328.64151746 502.580418786 338 462 c 1
 272 401 l 1
 266.823242188 417.5859375 252 455 210.372070312 455 c 0
 166.794810047 455 127.092773438 407.547086599 127.092773438 283.84375 c 0
EndSplineSet
EndChar

StartChar: si_Ta
Encoding: 40 3501 46
Width: 696
VWidth: 0
Flags: HW
LayerCount: 4
Fore
SplineSet
436 473 m 4
 383 473 356.579295551 456.999812734 317 416 c 4
 313.435546875 412.307617188 53.4580078125 138.674804688 45 131 c 5
 42 265 l 21
 109 334 77.1483402856 298.066494627 137.087890625 364 c 4
 157.087890625 386 245.087890625 489 245.087890625 489 c 4
 294.087890625 545 346 585 436 585 c 4
 566 585 674.715820312 490 674.715820312 267 c 4
 674.715820312 70 597.315429688 0 493.715820312 0 c 4
 417.801757812 0 376.373046875 50.021484375 367.087890625 86 c 5
 432.087890625 158 l 5
 437.264648438 141.4140625 452.087890625 105 493.715820312 105 c 4
 536.818359375 105 563.715820312 157 563.715820312 267 c 4
 563.715820312 399 518 473 436 473 c 4
250 110 m 4
 327.409179688 110 336.087890625 163 336.087890625 232 c 4
 336.087890625 316 291.087890625 351 238.087890625 349 c 5
 283 418 l 5
 325 432 443.087890625 407 443.087890625 231 c 4
 443.087890625 69 372.16796875 0 249.087890625 0 c 4
 43 0 111 143 70 162 c 5
 142 235 l 5
 185 206 132 110 250 110 c 4
157.615234375 592.100585938 m 4
 234.60546875 592.100585938 306 535.436523438 306 426.100585938 c 4
 306 394.8359375 295.087890625 388 270.087890625 368 c 5
 206.806640625 414.537109375 l 4
 207.868164062 420.779296875 208.37109375 426.749023438 208.37109375 432.412109375 c 4
 208.37109375 470.044921875 184.526367188 494.100585938 156 494.100585938 c 4
 128.166015625 494.100585938 114.575195312 473.11328125 114.575195312 450.00390625 c 4
 114.575195312 410 141.798828125 393 171.798828125 386 c 5
 112.087890625 326 l 5
 66.798828125 343 22 390 22 459.63671875 c 4
 22 530.232421875 70 592.100585938 157.615234375 592.100585938 c 4
EndSplineSet
Layer: 2
SplineSet
436 473 m 4
 383 473 356.579295551 456.999812734 317 416 c 4
 313.435546875 412.307617188 53.4580078125 138.674804688 45 131 c 5
 42 265 l 21
 109 334 77.1483402856 298.066494627 137.087890625 364 c 4
 157.087890625 386 245.087890625 489 245.087890625 489 c 4
 294.087890625 545 346 585 436 585 c 4
 566 585 674.715820312 490 674.715820312 267 c 4
 674.715820312 70 597.315429688 0 493.715820312 0 c 4
 417.801757812 0 376.373046875 50.021484375 367.087890625 86 c 5
 432.087890625 158 l 5
 437.264648438 141.4140625 452.087890625 105 493.715820312 105 c 4
 536.818359375 105 563.715820312 157 563.715820312 267 c 4
 563.715820312 399 518 473 436 473 c 4
-652.384765625 594 m 0
 -575.39453125 594 -504 537.3359375 -504 428 c 0
 -504 396.735351562 -514.912109375 389.899414062 -539.912109375 369.899414062 c 1
 -603.193359375 416.436523438 l 0
 -602.131835938 422.678710938 -601.62890625 428.6484375 -601.62890625 434.311523438 c 0
 -601.62890625 471.944335938 -625.473632812 496 -654 496 c 0
 -681.833984375 496 -695.424804688 475.012695312 -695.424804688 451.903320312 c 0
 -695.424804688 411.899414062 -668.201171875 394.899414062 -638.201171875 387.899414062 c 1
 -697.912109375 327.899414062 l 1
 -743.201171875 344.899414062 -788 391.899414062 -788 461.536132812 c 0
 -788 532.131835938 -740 594 -652.384765625 594 c 0
-492.95703125 0 m 0
 -531.95703125 0 -566.95703125 29 -576.372070312 52 c 1
 -584.95703125 31 -615.95703125 0 -660 0 c 0
 -766.823242188 0 -775.912109375 100 -751.912109375 146 c 1
 -741 214 l 1
 -651.912109375 249 l 1
 -678.912109375 227.963867188 -681.912109375 191.751953125 -681.912109375 156 c 0
 -681.912109375 138.591796875 -680.279296875 109 -657 109 c 0
 -638.342773438 109 -622 119 -622 160 c 0
 -622 176.21875 -622 202.995117188 -622 227 c 1
 -532 227 l 1
 -532 202.2265625 -532 176.891601562 -532 160 c 0
 -532 122 -520 109 -494 109 c 0
 -459 109 -453.912109375 165.987304688 -453.912109375 210 c 0
 -453.912109375 335.987304688 -534 364 -585 346 c 1
 -522 416 l 1
 -499.55859375 427 -346.912109375 431 -346.912109375 210 c 0
 -346.912109375 112.106445312 -386.95703125 0 -492.95703125 0 c 0
-374 473 m 0
 -427 473 -453.420898438 457 -493 416 c 0
 -496.564453125 412.307617188 -772.454101562 122.674804688 -780.912109375 115 c 1
 -783.912109375 249 l 17
 -716.912109375 318 -732.8515625 298.06640625 -672.912109375 364 c 0
 -652.912109375 386 -564.912109375 489 -564.912109375 489 c 0
 -515.912109375 545 -464 585 -374 585 c 0
 -244 585 -135.284179688 490 -135.284179688 267 c 0
 -135.284179688 70 -212.684570312 0 -316.284179688 0 c 0
 -392.198242188 0 -433.626953125 50.021484375 -442.912109375 86 c 1
 -377.912109375 158 l 1
 -372.735351562 141.4140625 -357.912109375 105 -316.284179688 105 c 0
 -273.181640625 105 -246.284179688 157 -246.284179688 267 c 0
 -246.284179688 399 -292 473 -374 473 c 0
1050 0 m 0
 943.176757812 0 827.372070312 57 854.372070312 285 c 1
 951.372070312 279 l 1
 940.372070312 155 960 106 1050 106 c 0
 1115 106 1145 147 1145 217 c 0
 1145 308 1093 322 1042 304 c 1
 1122 385 l 1
 1144.44140625 396 1252 382 1252 217 c 0
 1252 62 1154 0 1050 0 c 0
1250.64355469 473.229492188 m 0
 1208.671875 473.229492188 1186.37207031 465 1149.37207031 409 c 0
 1107.04785156 344.942382812 1074.37207031 129 920.372070312 188 c 1
 875.744140625 206 l 1
 935.744140625 263 l 1
 1003.37207031 241.556640625 1026.07519531 394.865234375 1063.37207031 462 c 0
 1103.37207031 534 1170.37207031 585 1260.37207031 585 c 0
 1378 585 1488 486 1488 263 c 0
 1488 58 1406 0 1294 0 c 0
 1216 0 1177.28515625 58.021484375 1168 94 c 1
 1236 158 l 1
 1237 134 1252.37207031 103 1294 103 c 0
 1344 103 1377 137 1377 263 c 0
 1377 399.940429688 1325.22460938 473.229492188 1250.64355469 473.229492188 c 0
1001.80859375 593.563476562 m 0
 1078.79882812 593.563476562 1150.19335938 536.899414062 1150.19335938 427.563476562 c 0
 1150.19335938 396.298828125 1139.28125 389.462890625 1114.28125 369.462890625 c 1
 1051 416 l 0
 1052.06152344 422.2421875 1052.56445312 428.211914062 1052.56445312 433.875 c 0
 1052.56445312 471.5078125 1028.71972656 495.563476562 1000.19335938 495.563476562 c 0
 972.359375 495.563476562 958.768554688 474.576171875 958.768554688 451.466796875 c 0
 958.768554688 418.462890625 993.627929688 387.563476562 1047.62792969 380.563476562 c 1
 1021 302.462890625 l 1
 919.627929688 327.563476562 866.193359375 391.462890625 866.193359375 461.099609375 c 0
 866.193359375 531.6953125 914.193359375 593.563476562 1001.80859375 593.563476562 c 0
250 110 m 4
 327.409179688 110 336.087890625 163 336.087890625 232 c 4
 336.087890625 316 291.087890625 351 238.087890625 349 c 5
 283 418 l 5
 325 432 443.087890625 407 443.087890625 231 c 4
 443.087890625 69 372.16796875 0 249.087890625 0 c 4
 43 0 111 143 70 162 c 5
 142 235 l 5
 185 206 132 110 250 110 c 4
157.615234375 592.100585938 m 4
 234.60546875 592.100585938 306 535.436523438 306 426.100585938 c 4
 306 394.8359375 295.087890625 388 270.087890625 368 c 5
 206.806640625 414.537109375 l 4
 207.868164062 420.779296875 208.37109375 426.749023438 208.37109375 432.412109375 c 4
 208.37109375 470.044921875 184.526367188 494.100585938 156 494.100585938 c 4
 128.166015625 494.100585938 114.575195312 473.11328125 114.575195312 450.00390625 c 4
 114.575195312 410 141.798828125 393 171.798828125 386 c 5
 112.087890625 326 l 5
 66.798828125 343 22 390 22 459.63671875 c 4
 22 530.232421875 70 592.100585938 157.615234375 592.100585938 c 4
EndSplineSet
Layer: 3
SplineSet
447.087890625 482 m 0
 413.89453125 482 374.848632812 473.510742188 326.087890625 423 c 0
 322.5234375 419.307617188 37.5458984375 122.674804688 29.087890625 115 c 1
 26.087890625 249 l 17
 93.087890625 318 77.1484375 298.06640625 137.087890625 364 c 0
 157.087890625 386 245.087890625 489 245.087890625 489 c 0
 294.087890625 545 357.087890625 594 447.087890625 594 c 0
 564.715820312 594 674.715820312 502 674.715820312 279 c 0
 674.715820312 56.42578125 597.315429688 0 493.715820312 0 c 0
 417.801757812 0 376.373046875 50.021484375 367.087890625 86 c 1
 432.087890625 158 l 1
 437.264648438 141.4140625 452.087890625 108 493.715820312 108 c 0
 536.818359375 108 563.715820312 137.340820312 563.715820312 279 c 0
 563.715820312 411 508.715820312 482 447.087890625 482 c 0
249.087890625 109 m 0
 326.497070312 109 336.087890625 163 336.087890625 232 c 0
 336.087890625 316 291.087890625 351 238.087890625 349 c 1
 291.087890625 442 l 1
 327.087890625 440 443.087890625 407 443.087890625 231 c 0
 443.087890625 69 372.16796875 0 249.087890625 0 c 0
 50.087890625 0 105.087890625 129 59.7158203125 159 c 1
 136.715820312 240 l 1
 188.715820312 200 131.087890625 109 249.087890625 109 c 0
157.615234375 592.100585938 m 0
 234.60546875 592.100585938 306 535.436523438 306 426.100585938 c 0
 306 394.8359375 295.087890625 388 270.087890625 368 c 1
 206.806640625 414.537109375 l 0
 207.868164062 420.779296875 208.37109375 426.749023438 208.37109375 432.412109375 c 0
 208.37109375 470.044921875 184.526367188 494.100585938 156 494.100585938 c 0
 128.166015625 494.100585938 114.575195312 473.11328125 114.575195312 450.00390625 c 0
 114.575195312 410 141.798828125 393 171.798828125 386 c 1
 112.087890625 326 l 1
 66.798828125 343 22 390 22 459.63671875 c 0
 22 530.232421875 70 592.100585938 157.615234375 592.100585938 c 0
EndSplineSet
EndChar

StartChar: si_Tha
Encoding: 41 3502 47
Width: 535
VWidth: 0
Flags: HW
LayerCount: 4
Fore
SplineSet
237.116210938 611.133789062 m 0
 237.116210938 667.848632812 278.32421875 688.157226562 278.32421875 709.823242188 c 0
 278.32421875 716.953125 273.862304688 724.23046875 262 733 c 1
 368.326171875 755 l 1
 349.104492188 647 l 17
 332.725585938 639.98046875 323.104492188 621.141601562 323.104492188 605 c 0
 323.104492188 585.998046875 341.116210938 559.627929688 382.326171875 548.854492188 c 0
 386.66015625 547.721679688 391.250976562 546.76171875 396.104492188 546 c 1
 480.326171875 524 l 1
 413 461 l 1
 399.205078125 461.400390625 384.7578125 463.6796875 370.326171875 467.640625 c 0
 303.555664062 485.969726562 237.116210938 540.30859375 237.116210938 611.133789062 c 0
22 252.395507812 m 0
 22 381.537109375 89 472 186.693359375 472 c 0
 214.459960938 472 243.491210938 465.063476562 271.865234375 445.2578125 c 1
 234 345 l 1
 220.15234375 352.989257812 207.482421875 356.607421875 196.13671875 356.607421875 c 0
 155.620117188 356.607421875 132 310.458984375 132 252.395507812 c 0
 132 189.243164062 159.225585938 115 252.145507812 115 c 0
 356.59765625 115 411.145507812 181.017578125 411.145507812 340 c 0
 411.145507812 415.912109375 409.759765625 484.646484375 393.842773438 545 c 1
 388.092773438 578.997070312 370.08984375 627.989257812 348.021484375 648 c 1
 326.522460938 682.765625 296.455078125 712.203125 262 733 c 1
 334 817 l 1
 472 726 526.145507812 555.741210938 526.145507812 340 c 0
 526.145507812 104 432.145507812 0 252.145507812 0 c 0
 74.1455078125 0 22 136.287109375 22 252.395507812 c 0
EndSplineSet
EndChar

StartChar: si_Dha
Encoding: 43 3504 48
Width: 597
VWidth: 0
Flags: HW
LayerCount: 4
Fore
SplineSet
40.673828125 231.204101562 m 4
 40.673828125 277.470703125 46.884765625 319.610351562 54.8017578125 345 c 4
 78.87109375 422.728515625 134.252929688 472 206.3515625 472 c 4
 234.118164062 472 263.149414062 465.063476562 291.5234375 445.2578125 c 5
 253.658203125 345 l 5
 239.810546875 352.989257812 227.140625 356.607421875 215.794921875 356.607421875 c 4
 189.01171875 356.607421875 169.612304688 336.442382812 159.538085938 306 c 4
 155.106445312 291.600585938 151.62109375 261.723632812 151.62109375 229.770507812 c 4
 151.62109375 175.234375 161.774414062 114.65234375 194.711914062 114.65234375 c 4
 236.887695312 114.65234375 251.893554688 179.677734375 251.893554688 249.5 c 5
 347.8046875 249.5 l 5
 347.8046875 176.75 363.272460938 115 406.262695312 115 c 4
 463.018554688 115 463.018554688 239.958007812 463.018554688 293 c 4
 463.018554688 522.796875 420.018554688 639.884765625 282.018554688 639.884765625 c 4
 240.915039062 639.884765625 193.255859375 618.959960938 176.200195312 576.85546875 c 5
 67.16796875 613.029296875 l 5
 103.15234375 707.868164062 195.297851562 755 282.018554688 755 c 4
 499.018554688 755 578.018554688 599.055664062 578.018554688 293 c 4
 578.018554688 181.99609375 577.018554688 0 406.262695312 0 c 4
 350.342773438 0 312.3203125 33.14453125 297.5 79.0302734375 c 5
 281.354492188 31.6025390625 241.942382812 0 189.262695312 0 c 4
 72.654296875 0 40.673828125 126.224609375 40.673828125 231.204101562 c 4
EndSplineSet
EndChar

StartChar: si_Na
Encoding: 44 3505 49
Width: 691
VWidth: 0
Flags: HW
LayerCount: 4
Fore
SplineSet
224 0 m 0
 117.176757812 0 1.3720703125 57 28.3720703125 285 c 1
 125.372070312 279 l 1
 114.372070312 155 134 106 224 106 c 0
 289 106 319 147 319 217 c 0
 319 308 267 322 216 304 c 1
 296 385 l 1
 318.44140625 396 426 382 426 217 c 0
 426 62 328 0 224 0 c 0
424.643554688 473.229492188 m 0
 382.671875 473.229492188 360.372070312 465 323.372070312 409 c 0
 281.047851562 344.942382812 248.372070312 129 94.3720703125 188 c 1
 49.744140625 206 l 1
 109.744140625 263 l 1
 177.372070312 241.556640625 200.075195312 394.865234375 237.372070312 462 c 0
 277.372070312 534 344.372070312 585 434.372070312 585 c 0
 552 585 662 486 662 263 c 0
 662 58 580 0 468 0 c 0
 392.0859375 0 351.28515625 58.021484375 342 94 c 1
 410 158 l 1
 411 134 426.372070312 103 468 103 c 0
 518 103 551 137 551 263 c 0
 551 399.940429688 499.224609375 473.229492188 424.643554688 473.229492188 c 0
175.80859375 593.563476562 m 0
 252.798828125 593.563476562 324.193359375 536.899414062 324.193359375 427.563476562 c 0
 324.193359375 396.298828125 313.28125 389.462890625 288.28125 369.462890625 c 1
 225 416 l 0
 226.061523438 422.2421875 226.564453125 428.211914062 226.564453125 433.875 c 0
 226.564453125 471.5078125 202.719726562 495.563476562 174.193359375 495.563476562 c 0
 146.359375 495.563476562 132.768554688 474.576171875 132.768554688 451.466796875 c 0
 132.768554688 418.462890625 167.627929688 387.563476562 221.627929688 380.563476562 c 1
 195 302.462890625 l 1
 93.6279296875 327.563476562 40.193359375 391.462890625 40.193359375 461.099609375 c 0
 40.193359375 531.6953125 88.193359375 593.563476562 175.80859375 593.563476562 c 0
EndSplineSet
Layer: 2
SplineSet
-306 0 m 4
 -412.823242188 0 -528.627929688 57 -501.627929688 285 c 5
 -404.627929688 279 l 5
 -415.627929688 155 -396 106 -306 106 c 4
 -241 106 -211 147 -211 217 c 4
 -211 308 -263 322 -314 304 c 5
 -234 385 l 5
 -211.55859375 396 -104 382 -104 217 c 4
 -104 62 -202 0 -306 0 c 4
-105.356445312 473.229492188 m 4
 -147.328125 473.229492188 -169.627929688 465 -206.627929688 409 c 4
 -248.952148438 344.942382812 -281.627929688 129 -435.627929688 188 c 5
 -480.255859375 206 l 5
 -420.255859375 263 l 5
 -352.627929688 241.556640625 -329.924804688 394.865234375 -292.627929688 462 c 4
 -252.627929688 534 -185.627929688 585 -95.6279296875 585 c 4
 22 585 132 486 132 263 c 4
 132 58 50 0 -62 0 c 4
 -137.9140625 0 -178.71484375 58.021484375 -188 94 c 5
 -120 158 l 5
 -119 134 -103.627929688 103 -62 103 c 4
 -12 103 21 137 21 263 c 4
 21 399.940429688 -30.775390625 473.229492188 -105.356445312 473.229492188 c 4
-354.19140625 593.563476562 m 4
 -277.201171875 593.563476562 -205.806640625 536.899414062 -205.806640625 427.563476562 c 4
 -205.806640625 396.298828125 -216.71875 389.462890625 -241.71875 369.462890625 c 5
 -305 416 l 4
 -303.938476562 422.2421875 -303.435546875 428.211914062 -303.435546875 433.875 c 4
 -303.435546875 471.5078125 -327.280273438 495.563476562 -355.806640625 495.563476562 c 4
 -383.640625 495.563476562 -397.231445312 474.576171875 -397.231445312 451.466796875 c 4
 -397.231445312 418.462890625 -362.372070312 387.563476562 -308.372070312 380.563476562 c 5
 -335 302.462890625 l 5
 -436.372070312 327.563476562 -489.806640625 391.462890625 -489.806640625 461.099609375 c 4
 -489.806640625 531.6953125 -441.806640625 593.563476562 -354.19140625 593.563476562 c 4
1375 585 m 0
 1285 585 1225.32421875 525.930664062 1216 454 c 0
 1209 400 1247 311 1177 281 c 1
 1215 206 l 1
 1325 262 1307 308.212890625 1307 374 c 0
 1307 410 1323.71582031 473 1375 473 c 0
 1457 473 1483 399 1483 267 c 0
 1483 157 1449.10253906 105 1406 105 c 0
 1364.37207031 105 1349.54882812 141.4140625 1344.37207031 158 c 1
 1279.37207031 86 l 1
 1288.65722656 50.021484375 1330.0859375 0 1406 0 c 0
 1509.59960938 0 1594 70 1594 267 c 0
 1594 490 1505 585 1375 585 c 0
1185.37207031 105.84375 m 0
 1135.78710938 105.84375 1086.37207031 144.296875 1086.37207031 291.84375 c 0
 1086.37207031 408 1125.64160156 479.84375 1168.74414062 479.84375 c 0
 1210.37207031 479.84375 1225.1953125 442.4296875 1230.37207031 425.84375 c 1
 1295.37207031 497.84375 l 1
 1286.08691406 533.822265625 1244.65820312 583.84375 1168.74414062 583.84375 c 0
 1065.14453125 583.84375 980.372070312 514.41796875 980.372070312 291.84375 c 0
 980.372070312 57.46875 1078.37304688 -0.15625 1185.37207031 -0.15625 c 0
 1315.93261719 -0.15625 1367 94.57421875 1367 189 c 0
 1367 243 1336 294.29296875 1300 306 c 1
 1237 236 l 1
 1249.26269531 231.094726562 1265 219 1265 184 c 0
 1265 146 1246.37207031 105.84375 1185.37207031 105.84375 c 0
461.372070312 105.84375 m 0
 411.787109375 105.84375 362.372070312 144.296875 362.372070312 291.84375 c 0
 362.372070312 408 401.641601562 479.84375 444.744140625 479.84375 c 0
 486.372070312 479.84375 501.1953125 442.4296875 506.372070312 425.84375 c 1
 571.372070312 497.84375 l 1
 562.086914062 533.822265625 520.658203125 583.84375 444.744140625 583.84375 c 0
 341.14453125 583.84375 256.372070312 514.41796875 256.372070312 291.84375 c 0
 256.372070312 57.46875 354.373046875 -0.15625 461.372070312 -0.15625 c 0
 591.932617188 -0.15625 643 94.57421875 643 189 c 0
 643 243 612 294.29296875 576 306 c 1
 513 236 l 1
 525.262695312 231.094726562 541 219 541 184 c 0
 541 146 522.372070312 105.84375 461.372070312 105.84375 c 0
674 584 m 0
 594.092773438 584 500.372070312 526.84375 500.372070312 400.84375 c 0
 500.372070312 368.84375 503 333 451 300 c 1
 497.372070312 219.84375 l 1
 557.372070312 253.84375 602.372070312 286 602.372070312 361.84375 c 0
 602.372070312 437.84375 622.189453125 478 674 478 c 0
 720 478 763.372070312 433 763.372070312 292 c 0
 763.372070312 150.340820312 724.579101562 104 682 104 c 0
 636 104 620 133 612 149 c 1
 555.372070312 86 l 1
 564.657226562 50.021484375 606.0859375 0 682 0 c 0
 785.599609375 0 870.372070312 69.42578125 870.372070312 292 c 0
 870.372070312 508 773 584 674 584 c 0
EndSplineSet
Layer: 3
SplineSet
696 585 m 0
 826 585 927 490 927 267 c 0
 927 70 849.599609375 0 746 0 c 0
 670.0859375 0 628.657226562 50.021484375 619.372070312 86 c 1
 684.372070312 158 l 1
 689.548828125 141.4140625 704.372070312 105 746 105 c 0
 789.102539062 105 816 157 816 267 c 0
 816 399 778 473 696 473 c 0
 644.715820312 473 603.8203125 436.528320312 577 375 c 0
 543 297 520 129 366 188 c 1
 321.372070312 206 l 1
 381.372070312 263 l 1
 449 241.556640625 469 368 499 440 c 0
 530.678710938 516.029296875 606 585 696 585 c 0
440.80859375 593.563476562 m 0
 517.798828125 593.563476562 589.193359375 536.899414062 589.193359375 427.563476562 c 0
 589.193359375 396.298828125 578.28125 389.462890625 553.28125 369.462890625 c 1
 490 416 l 0
 491.061523438 422.2421875 491.564453125 428.211914062 491.564453125 433.875 c 0
 491.564453125 471.5078125 467.719726562 495.563476562 439.193359375 495.563476562 c 0
 411.359375 495.563476562 397.768554688 474.576171875 397.768554688 451.466796875 c 0
 397.768554688 418.462890625 432.627929688 387.563476562 486.627929688 380.563476562 c 1
 460 302.462890625 l 1
 358.627929688 327.563476562 305.193359375 391.462890625 305.193359375 461.099609375 c 0
 305.193359375 531.6953125 353.193359375 593.563476562 440.80859375 593.563476562 c 0
294.372070312 286 m 1
 390.372070312 279 l 1
 377.372070312 155 405 109 493 109 c 0
 570.409179688 109 603 155 603 224 c 0
 603 308 553 325 500 323 c 1
 553 416 l 1
 589 414 710 399 710 223 c 0
 710 61 616.080078125 0 493 0 c 0
 361 0 270.372070312 97 294.372070312 286 c 1
-89 585 m 0
 17.9990234375 585 132 520.21875 132 285.84375 c 0
 132 51.46875 33.9990234375 0 -73 0 c 0
 -148.9140625 0 -190.342773438 50.021484375 -199.627929688 86 c 1
 -134.627929688 158 l 1
 -129.451171875 141.4140625 -114.627929688 108 -73 108 c 1
 -23.419921875 108 26 135.928710938 26 285.84375 c 0
 26 433.390625 -37.744140625 473 -89 473 c 0
 -130.971679688 473 -163 465 -200 409 c 0
 -242.32421875 344.942382812 -275 129 -429 188 c 1
 -473.627929688 206 l 1
 -413.627929688 263 l 1
 -346 241.556640625 -323.296875 394.865234375 -286 462 c 0
 -246 534 -179 585 -89 585 c 0
-354.19140625 593.563476562 m 0
 -277.201171875 593.563476562 -205.806640625 536.899414062 -205.806640625 427.563476562 c 0
 -205.806640625 396.298828125 -216.71875 389.462890625 -241.71875 369.462890625 c 1
 -305 416 l 0
 -303.938476562 422.2421875 -303.435546875 428.211914062 -303.435546875 433.875 c 0
 -303.435546875 471.5078125 -327.280273438 495.563476562 -355.806640625 495.563476562 c 0
 -383.640625 495.563476562 -397.231445312 474.576171875 -397.231445312 451.466796875 c 0
 -397.231445312 418.462890625 -362.372070312 387.563476562 -308.372070312 380.563476562 c 1
 -335 302.462890625 l 1
 -436.372070312 327.563476562 -489.806640625 391.462890625 -489.806640625 461.099609375 c 0
 -489.806640625 531.6953125 -441.806640625 593.563476562 -354.19140625 593.563476562 c 0
-500.627929688 286 m 1
 -404.627929688 279 l 1
 -417.627929688 155 -390 109 -302 109 c 0
 -224.590820312 109 -192 155 -192 224 c 0
 -192 308 -242 325 -295 323 c 1
 -242 416 l 1
 -206 414 -85 399 -85 223 c 0
 -85 61 -178.919921875 0 -302 0 c 0
 -434 0 -524.627929688 97 -500.627929688 286 c 1
EndSplineSet
EndChar

StartChar: si_Nda
Encoding: 45 3507 50
Width: 575
VWidth: 0
Flags: HW
LayerCount: 4
Fore
SplineSet
125 284 m 4
 125 131.655981789 148.779141104 102 182 102 c 4
 182 0 l 4
 87 0 19 46.2767857143 19 284 c 4
 19 506.57421875 103.772460938 584 207.372070312 584 c 4
 276.691579071 584 314.521432936 527.580418786 323 487 c 5
 269 426 l 5
 263.823242188 442.5859375 249 480 207.372070312 480 c 4
 164.26953125 480 125 425.659179688 125 284 c 4
404 318 m 4
 348 318 303 273 303 217 c 4
 303 161 348 116 404 116 c 4
 439.29296875 116 470.569335938 131.385742188 490.662109375 155.436523438 c 5
 577 93.0419921875 l 5
 536.889648438 36.2998046875 474.454101562 0 404 0 c 4
 283.6640625 0 187 96.6640625 187 217 c 4
 187 330.947265625 283.68359375 421.3515625 404 421.3515625 c 5
 422.834960938 421.3515625 435 420 452.806640625 418.436523438 c 5
 453.868164062 424.678710938 454.37109375 430.6484375 454.37109375 436.311523438 c 4
 454.37109375 473.944335938 432.141601562 498 403.615234375 498 c 4
 374.259765625 498 358.431640625 477 358.431640625 453.1640625 c 4
 358.431640625 441.108398438 362.016601562 428.124023438 370 419 c 5
 292 379 l 5
 272.690429688 404.20703125 264.956054688 430.604492188 264.956054688 458.407226562 c 4
 264.956054688 534.13671875 317.055664062 596 403.615234375 596 c 4
 480.60546875 596 552 539.3359375 552 430 c 4
 552 398.735351562 545 357 533 318 c 5
 533 318 452.53125 318 404 318 c 4
548 -54.5634765625 m 5
 625 -106.563476562 l 5
 579.088867188 -175.430664062 524.333007812 -202.407226562 474.0546875 -202.407226562 c 4
 349.673828125 -202.407226562 279.862304688 -78.939453125 343 21.5380859375 c 5
 433 44.4365234375 l 5
 443 4 l 5
 413.696289062 -29.796875 421.99609375 -97 474.0546875 -97 c 4
 498.685546875 -97 525.508789062 -85.0556640625 548 -54.5634765625 c 5
EndSplineSet
Layer: 2
SplineSet
125 284 m 4
 125 131.655981789 148.779141104 102 182 102 c 4
 182 0 l 4
 87 0 19 46.2767857143 19 284 c 4
 19 506.57421875 103.772460938 584 207.372070312 584 c 4
 276.691579071 584 314.521432936 527.580418786 323 487 c 5
 269 426 l 5
 263.823242188 442.5859375 249 480 207.372070312 480 c 4
 164.26953125 480 125 425.659179688 125 284 c 4
404 318 m 4
 348 318 303 273 303 217 c 4
 303 161 348 116 404 116 c 4
 439.29296875 116 470.569335938 131.385742188 490.662109375 155.436523438 c 5
 577 93.0419921875 l 5
 536.889648438 36.2998046875 474.454101562 0 404 0 c 4
 283.6640625 0 187 96.6640625 187 217 c 4
 187 330.947265625 283.68359375 421.3515625 404 421.3515625 c 5
 422.834960938 421.3515625 435 420 452.806640625 418.436523438 c 5
 453.868164062 424.678710938 454.37109375 430.6484375 454.37109375 436.311523438 c 4
 454.37109375 473.944335938 432.141601562 498 403.615234375 498 c 4
 374.259765625 498 358.431640625 477 358.431640625 453.1640625 c 4
 358.431640625 441.108398438 362.016601562 428.124023438 370 419 c 5
 292 379 l 5
 272.690429688 404.20703125 264.956054688 430.604492188 264.956054688 458.407226562 c 4
 264.956054688 534.13671875 317.055664062 596 403.615234375 596 c 4
 480.60546875 596 552 539.3359375 552 430 c 4
 552 398.735351562 545 357 533 318 c 5
 533 318 452.53125 318 404 318 c 4
548 -54.5634765625 m 5
 625 -106.563476562 l 5
 579.088867188 -175.430664062 524.333007812 -202.407226562 474.0546875 -202.407226562 c 4
 349.673828125 -202.407226562 279.862304688 -78.939453125 343 21.5380859375 c 5
 433 44.4365234375 l 5
 443 4 l 5
 413.696289062 -29.796875 421.99609375 -97 474.0546875 -97 c 4
 498.685546875 -97 525.508789062 -85.0556640625 548 -54.5634765625 c 5
EndSplineSet
Layer: 3
SplineSet
194 115 m 0
 222 4 l 0
 112 -16 22 49.625 22 284 c 0
 22 506.57421875 106.772460938 584 210.372070312 584 c 0
 286.286132812 584 327.71484375 533.978515625 337 498 c 1
 272 426 l 1
 266.823242188 442.5859375 252 480 210.372070312 480 c 0
 167.26953125 480 128 425.659179688 128 284 c 0
 128 158 137 104 194 115 c 0
404 318 m 0
 348 318 303 273 303 217 c 0
 303 161 348 116 404 116 c 0
 439.29296875 116 470.569335938 131.385742188 490.662109375 155.436523438 c 1
 577 93.0419921875 l 1
 536.889648438 36.2998046875 474.454101562 0 404 0 c 0
 283.6640625 0 187 96.6640625 187 217 c 0
 187 330.947265625 283.68359375 421.3515625 404 421.3515625 c 1
 422.834960938 421.3515625 435 420 452.806640625 418.436523438 c 1
 453.868164062 424.678710938 454.37109375 430.6484375 454.37109375 436.311523438 c 0
 454.37109375 473.944335938 432.141601562 498 403.615234375 498 c 0
 374.259765625 498 358.431640625 477 358.431640625 453.1640625 c 0
 358.431640625 441.108398438 362.016601562 428.124023438 370 419 c 1
 292 379 l 1
 272.690429688 404.20703125 264.956054688 430.604492188 264.956054688 458.407226562 c 0
 264.956054688 534.13671875 317.055664062 596 403.615234375 596 c 0
 480.60546875 596 552 539.3359375 552 430 c 0
 552 398.735351562 545 357 533 318 c 1
 533 318 452.53125 318 404 318 c 0
548 -54.5634765625 m 1
 625 -106.563476562 l 1
 579.088867188 -175.430664062 524.333007812 -202.407226562 474.0546875 -202.407226562 c 0
 349.673828125 -202.407226562 279.862304688 -78.939453125 343 21.5380859375 c 1
 433 44.4365234375 l 1
 443 4 l 1
 413.696289062 -29.796875 421.99609375 -97 474.0546875 -97 c 0
 498.685546875 -97 525.508789062 -85.0556640625 548 -54.5634765625 c 1
EndSplineSet
EndChar

StartChar: si_Pa
Encoding: 46 3508 51
Width: 572
VWidth: 0
Flags: HW
LayerCount: 4
Fore
SplineSet
254.8203125 467.353515625 m 4
 254.8203125 473.071289062 255.384765625 478.329101562 256.635742188 483 c 4
 276.26171875 556.27734375 335.354492188 594 398.172851562 594 c 4
 484.732421875 594 536.83203125 532.13671875 536.83203125 456.407226562 c 4
 536.83203125 428.149414062 525.583984375 394.649414062 505.446289062 369.030273438 c 5
 428.737304688 410.436523438 l 5
 436.720703125 419.560546875 443.356445312 439.108398438 443.356445312 451.1640625 c 4
 443.356445312 475 429.143554688 496 394 496 c 4
 371.26171875 496 342.435546875 481.030273438 342.435546875 434.341796875 c 4
 342.435546875 428.678710938 342.938476562 422.2421875 344 416 c 4
 297.5 318.436523438 l 5
 284.888671875 359.422851562 254.8203125 425.625 254.8203125 467.353515625 c 4
139.779296875 224 m 0
 139.779296875 144.037109375 218.491210938 104.166992188 297.276367188 104.166992188 c 0
 376.209960938 104.166992188 455.21875 144.186523438 455.21875 224 c 0
 455.21875 275.725585938 427.779296875 318 372.779296875 318 c 2
 222.21875 318 l 2
 167.21875 318 139.779296875 275.725585938 139.779296875 224 c 0
32.779296875 224 m 0
 32.779296875 329.376953125 93.8359375 416 216.21875 416 c 2
 378.779296875 416 l 2
 501.162109375 416 562.21875 329.65234375 562.21875 224 c 0
 562.21875 66.5009765625 429.859375 -12.2490234375 297.5 -12.2490234375 c 0
 165.139648438 -12.2490234375 32.779296875 66.501953125 32.779296875 224 c 0
58.16796875 456.407226562 m 4
 58.16796875 532.13671875 110.267578125 594 196.827148438 594 c 4
 259.645507812 594 318.737931459 556.277058229 338.364257812 483 c 4
 339.615286819 478.329144961 340.1796875 473.071047507 340.1796875 467.353515625 c 4
 340.1796875 425.62457443 310.110935901 359.422394782 297.5 318.436523438 c 5
 251 416 l 4
 252.061523438 422.2421875 252.564453125 428.678710937 252.564453125 434.341796875 c 4
 252.564453125 481.030273438 223.73828125 496 201 496 c 4
 165.856445312 496 151.643554688 475 151.643554688 451.1640625 c 4
 151.643554688 439.108398438 158.279296875 419.560546876 166.262695312 410.436523438 c 5
 89.5537109375 369.030273438 l 5
 69.4157909494 394.649624076 58.16796875 428.149714062 58.16796875 456.407226562 c 4
EndSplineSet
EndChar

StartChar: si_Pha
Encoding: 47 3509 52
Width: 548
VWidth: 0
Flags: HW
LayerCount: 4
Fore
SplineSet
237.159179688 611.133789062 m 4
 237.159179688 667.848632812 278.3671875 688.157226562 278.3671875 709.823242188 c 4
 278.3671875 716.953125 273.905273438 724.23046875 262.04296875 733 c 5
 368.369140625 755 l 5
 349.147460938 647 l 5
 332.768554688 639.98046875 323.147460938 621.141601562 323.147460938 605 c 4
 323.147460938 585.998046875 341.158685634 559.626039684 382.369140625 548.854492188 c 4
 386.703125 547.721679688 391.293945312 546.76171875 396.147460938 546 c 5
 480.369140625 524 l 5
 413.04296875 461 l 5
 399.248046875 461.400390625 384.800608464 463.679058009 370.369140625 467.640625 c 4
 303.598632812 485.969726562 237.159179688 540.30859375 237.159179688 611.133789062 c 4
22 218.826171875 m 4
 22 279.354492188 41.8984553666 335.661112137 72.3779296875 362 c 4
 93.3974609375 380.1640625 121.474609375 391 158.076171875 391 c 4
 165.076171875 391 264.188476562 391 264.188476562 391 c 5
 326.1328125 306 l 5
 201.076171875 306 l 6
 145.076171875 306 132.67578125 270.6015625 132.67578125 226.6015625 c 4
 132.67578125 174 159.268554688 115 252.188476562 115 c 4
 356.640625 115 411.188476562 181.017578125 411.188476562 340 c 4
 411.188476562 415.912109375 409.802734375 484.646484375 393.885742188 545 c 5
 388.135742188 578.997070312 370.1328125 627.989257812 348.064453125 648 c 5
 326.565429688 682.765625 296.498046875 712.203125 262.04296875 733 c 5
 334.04296875 817 l 5
 472.04296875 726 526.188476562 555.741210938 526.188476562 340 c 4
 526.188476562 104 432.188476562 0 252.188476562 0 c 4
 74.1884765625 0 22 137 22 218.826171875 c 4
61.724609375 409.272460938 m 4
 61.724609375 481.53515625 110.6953125 531.563476562 184.997070312 531.563476562 c 4
 261.983398438 531.563476562 333.381835938 474.899414062 333.381835938 365.563476562 c 4
 333.381835938 351 330.188476562 325 326.1328125 306 c 5
 235.752929688 371.875 l 5
 236.693463858 376.782574444 237.1678293 381.770290889 237.1678293 386.713601114 c 4
 237.1678293 416.143780955 220.354135173 444 184.997070312 444 c 4
 160.197265625 444 151.205078125 426.133789062 151.205078125 404.787109375 c 4
 151.205078125 386.79296875 163.490234375 370.325195312 172.188476562 356 c 5
 92.1884765625 318.563476562 l 5
 72.1884765625 351 61.724609375 380.620117188 61.724609375 409.272460938 c 4
EndSplineSet
EndChar

StartChar: si_Ba
Encoding: 48 3510 53
Width: 575
VWidth: 0
Flags: HW
LayerCount: 4
Fore
SplineSet
22 220 m 0
 22 425.889648438 98 488.874023438 202.185546875 488.874023438 c 0
 309.69140625 488.874023438 371.125 430 371.125 324 c 0
 371.125 251 320.483398438 228 320.483398438 177 c 0
 320.483398438 142.7578125 333.727539062 115 360 115 c 0
 412.211914062 115 439.240234375 190 439.240234375 293 c 0
 439.240234375 522.796875 396.240234375 639.884765625 258.240234375 639.884765625 c 0
 217.13671875 639.884765625 169.477539062 618.959960938 152.421875 576.85546875 c 1
 43.3896484375 613.029296875 l 1
 79.3740234375 707.868164062 171.51953125 755 258.240234375 755 c 0
 475.240234375 755 554.240234375 599.055664062 554.240234375 293 c 0
 553.755859375 181.99609375 521.880859375 0 364.125 0 c 0
 239.822265625 0 211.586914062 87.4052734375 211.586914062 177 c 0
 211.586914062 237 259.125 264 259.125 324 c 0
 259.125 354 243.69140625 376.432617188 201 376.432617188 c 0
 161.172851562 376.432617188 132 339.788085938 132 220 c 0
 132 128 150 110 171 110 c 0
 191 110 208 120 224 156 c 1
 280 73 l 1
 251 28 223.478515625 0 171 0 c 0
 66 0 22 79 22 220 c 0
EndSplineSet
EndChar

